# This file uses centimeters as units for non-parametric coordinates.

g default
v 0.386154 0.000000 -0.386154
v -0.000000 0.000000 -0.546104
v -0.386154 0.000000 -0.386154
v -0.546104 0.000000 0.000000
v -0.386154 0.000000 0.386154
v -0.000000 0.000000 0.546104
v 0.386154 0.000000 0.386154
v 0.546104 0.000000 0.000000
v 0.331567 0.509506 -0.331567
v 0.000000 0.509506 -0.468906
v -0.331567 0.509506 -0.331567
v -0.468906 0.509506 0.000000
v -0.331567 0.509506 0.331567
v 0.000000 0.509506 0.468906
v 0.331567 0.509506 0.331567
v 0.468906 0.509506 0.000000
v 0.241685 0.943313 -0.241685
v 0.000000 0.943313 -0.341795
v -0.241685 0.943313 -0.241685
v -0.341795 0.943313 -0.000000
v -0.241685 0.943313 0.241685
v 0.000000 0.943313 0.341795
v 0.241685 0.943313 0.241685
v 0.341795 0.943313 -0.000000
v 0.137339 1.013968 -0.137339
v 0.000000 1.013968 -0.194227
v -0.137339 1.013968 -0.137339
v -0.194227 1.013968 0.000000
v -0.137339 1.013968 0.137339
v 0.000000 1.013968 0.194227
v 0.137339 1.013968 0.137339
v 0.194227 1.013968 0.000000
v 0.000000 1.024487 0.000000
v 0.345226 0.254753 -0.345226
v 0.488223 0.254753 0.000000
v 0.345226 0.254753 0.345226
v 0.000000 0.254753 0.488223
v -0.345226 0.254753 0.345226
v -0.488223 0.254753 0.000000
v -0.345226 0.254753 -0.345226
v 0.000000 0.254753 -0.488223
v 0.292668 0.730903 -0.292668
v 0.413896 0.730903 0.000000
v 0.292668 0.730903 0.292668
v 0.000000 0.730903 0.413896
v -0.292668 0.730903 0.292668
v -0.413896 0.730903 0.000000
v -0.292668 0.730903 -0.292668
v 0.000000 0.730903 -0.413896
v 0.435403 0.004908 -0.435403
v -0.000000 0.004908 -0.615753
v -0.000000 0.259661 -0.552954
v 0.390997 0.259661 -0.390997
v -0.435403 0.004908 -0.435403
v -0.390997 0.259661 -0.390997
v -0.615753 0.004908 0.000000
v -0.552954 0.259661 0.000000
v -0.435403 0.004908 0.435403
v -0.390997 0.259661 0.390997
v -0.000000 0.004908 0.615753
v -0.000000 0.259661 0.552954
v 0.435403 0.004908 0.435403
v 0.390997 0.259661 0.390997
v 0.615753 0.004908 -0.000000
v 0.552954 0.259661 -0.000000
vt 0.613419 0.742855
vt 0.623405 0.742855
vt 0.633242 0.742855
vt 0.643076 0.742855
vt 0.652912 0.742855
vt 0.662750 0.742855
vt 0.672594 0.742855
vt 0.682442 0.742855
vt 0.691994 0.742855
vt 0.912522 0.058268
vt 0.919364 0.048431
vt 0.928055 0.040165
vt 0.938722 0.034642
vt 0.950598 0.032601
vt 0.962568 0.034351
vt 0.973444 0.039776
vt 0.982202 0.048284
vt 0.988608 0.058732
vt 0.927527 0.065702
vt 0.931098 0.057910
vt 0.936640 0.052325
vt 0.943413 0.048825
vt 0.950838 0.047566
vt 0.958260 0.048649
vt 0.964976 0.052040
vt 0.970213 0.057617
vt 0.972975 0.065220
vt 0.933985 0.065622
vt 0.935905 0.060701
vt 0.939853 0.056677
vt 0.944965 0.054021
vt 0.950646 0.052999
vt 0.956332 0.053714
vt 0.961443 0.056104
vt 0.965321 0.059950
vt 0.966895 0.064780
vt 0.940747 0.064991
vt 0.942493 0.062655
vt 0.945423 0.060634
vt 0.948977 0.059480
vt 0.952710 0.059391
vt 0.956185 0.060360
vt 0.958903 0.062144
vt 0.960231 0.063937
vt 0.691571 0.748865
vt 0.905523 0.052945
vt 0.682442 0.748865
vt 0.672594 0.748865
vt 0.662750 0.748865
vt 0.652912 0.748865
vt 0.643076 0.748865
vt 0.633242 0.748865
vt 0.623405 0.748865
vt 0.981120 0.062618
vt 0.919669 0.062499
vt 0.976393 0.053275
vt 0.969310 0.046040
vt 0.960462 0.041549
vt 0.950727 0.040110
vt 0.941034 0.041777
vt 0.932244 0.046374
vt 0.925037 0.053520
vt 0.612954 0.744325
vt 0.623405 0.744325
vt 0.623405 0.747388
vt 0.612954 0.747388
vt 0.633242 0.744325
vt 0.633242 0.747388
vt 0.643076 0.744325
vt 0.643076 0.747388
vt 0.652912 0.744325
vt 0.652912 0.747388
vt 0.662750 0.744325
vt 0.662750 0.747388
vt 0.672594 0.744325
vt 0.672594 0.747388
vt 0.682442 0.744325
vt 0.682442 0.747388
vt 0.692409 0.744325
vt 0.692409 0.747388
vt 0.913235 0.042519
vt 0.996048 0.053553
vt 0.613823 0.748865
vt 0.923374 0.033107
vt 0.936086 0.026594
vt 0.950384 0.024133
vt 0.964845 0.026187
vt 0.977967 0.032568
vt 0.988484 0.042334
vn 0.373129 0.222059 -0.900813
vn 0.373129 0.222059 -0.900813
vn 0.373129 0.222059 -0.900813
vn 0.373129 0.222059 -0.900813
vn -0.373129 0.222059 -0.900813
vn -0.373129 0.222059 -0.900813
vn -0.373129 0.222059 -0.900813
vn -0.373129 0.222059 -0.900813
vn -0.900813 0.222058 -0.373129
vn -0.900813 0.222058 -0.373129
vn -0.900813 0.222058 -0.373129
vn -0.900813 0.222058 -0.373129
vn -0.900813 0.222058 0.373129
vn -0.900813 0.222058 0.373129
vn -0.900813 0.222058 0.373129
vn -0.900813 0.222058 0.373129
vn -0.373129 0.222058 0.900813
vn -0.373129 0.222058 0.900813
vn -0.373129 0.222058 0.900813
vn -0.373129 0.222058 0.900813
vn 0.373129 0.222058 0.900813
vn 0.373129 0.222058 0.900813
vn 0.373129 0.222058 0.900813
vn 0.373129 0.222058 0.900813
vn 0.900813 0.222058 0.373129
vn 0.900813 0.222058 0.373129
vn 0.900813 0.222058 0.373129
vn 0.900813 0.222058 0.373129
vn 0.900813 0.222059 -0.373129
vn 0.900813 0.222059 -0.373129
vn 0.900813 0.222059 -0.373129
vn 0.900813 0.222059 -0.373129
vn 0.372982 0.223737 -0.900459
vn 0.372982 0.223737 -0.900459
vn 0.369953 0.255787 -0.893145
vn 0.369953 0.255787 -0.893145
vn -0.372982 0.223737 -0.900459
vn -0.372982 0.223737 -0.900459
vn -0.369953 0.255787 -0.893145
vn -0.369953 0.255787 -0.893145
vn -0.900459 0.223737 -0.372982
vn -0.900459 0.223737 -0.372982
vn -0.893145 0.255787 -0.369953
vn -0.893145 0.255787 -0.369953
vn -0.900459 0.223737 0.372982
vn -0.900459 0.223737 0.372982
vn -0.893145 0.255787 0.369953
vn -0.893145 0.255787 0.369953
vn -0.372982 0.223737 0.900459
vn -0.372982 0.223737 0.900459
vn -0.369953 0.255787 0.893145
vn -0.369953 0.255787 0.893145
vn 0.372982 0.223737 0.900459
vn 0.372982 0.223737 0.900459
vn 0.369953 0.255787 0.893145
vn 0.369953 0.255787 0.893145
vn 0.900459 0.223737 0.372982
vn 0.900459 0.223737 0.372982
vn 0.893145 0.255787 0.369953
vn 0.893145 0.255787 0.369953
vn 0.900459 0.223737 -0.372982
vn 0.900459 0.223737 -0.372982
vn 0.893145 0.255787 -0.369953
vn 0.893145 0.255787 -0.369953
vn 0.176084 0.887852 -0.425104
vn 0.176084 0.887852 -0.425104
vn 0.176084 0.887852 -0.425104
vn 0.176084 0.887852 -0.425104
vn -0.176084 0.887852 -0.425104
vn -0.176084 0.887852 -0.425104
vn -0.176084 0.887852 -0.425104
vn -0.176084 0.887852 -0.425104
vn -0.425104 0.887852 -0.176084
vn -0.425104 0.887852 -0.176084
vn -0.425104 0.887852 -0.176084
vn -0.425104 0.887852 -0.176084
vn -0.425104 0.887852 0.176084
vn -0.425104 0.887852 0.176084
vn -0.425104 0.887852 0.176084
vn -0.425104 0.887852 0.176084
vn -0.176084 0.887852 0.425104
vn -0.176084 0.887852 0.425104
vn -0.176084 0.887852 0.425104
vn -0.176084 0.887852 0.425104
vn 0.176084 0.887852 0.425104
vn 0.176084 0.887852 0.425104
vn 0.176084 0.887852 0.425104
vn 0.176084 0.887852 0.425104
vn 0.425104 0.887852 0.176084
vn 0.425104 0.887852 0.176084
vn 0.425104 0.887852 0.176084
vn 0.425104 0.887852 0.176084
vn 0.425104 0.887852 -0.176084
vn 0.425104 0.887852 -0.176084
vn 0.425104 0.887852 -0.176084
vn 0.425104 0.887852 -0.176084
vn 0.022394 0.998286 -0.054065
vn 0.022394 0.998286 -0.054065
vn 0.022394 0.998286 -0.054065
vn -0.022394 0.998286 -0.054065
vn -0.022394 0.998286 -0.054065
vn -0.022394 0.998286 -0.054065
vn -0.054065 0.998286 -0.022396
vn -0.054065 0.998286 -0.022396
vn -0.054065 0.998286 -0.022396
vn -0.054065 0.998286 0.022396
vn -0.054065 0.998286 0.022396
vn -0.054065 0.998286 0.022396
vn -0.022394 0.998286 0.054065
vn -0.022394 0.998286 0.054065
vn -0.022394 0.998286 0.054065
vn 0.022394 0.998286 0.054065
vn 0.022394 0.998286 0.054065
vn 0.022394 0.998286 0.054065
vn 0.054065 0.998286 0.022396
vn 0.054065 0.998286 0.022396
vn 0.054065 0.998286 0.022396
vn 0.054065 0.998286 -0.022396
vn 0.054065 0.998286 -0.022396
vn 0.054065 0.998286 -0.022396
vn 0.921621 0.069884 -0.381748
vn 0.921621 0.069884 -0.381748
vn 0.921621 0.069884 -0.381748
vn 0.921621 0.069884 -0.381748
vn 0.921621 0.069884 0.381748
vn 0.921621 0.069884 0.381748
vn 0.921621 0.069884 0.381748
vn 0.921621 0.069884 0.381748
vn 0.381748 0.069884 0.921621
vn 0.381748 0.069884 0.921621
vn 0.381748 0.069884 0.921621
vn 0.381748 0.069884 0.921621
vn -0.381748 0.069884 0.921621
vn -0.381748 0.069884 0.921621
vn -0.381748 0.069884 0.921621
vn -0.381748 0.069884 0.921621
vn -0.921621 0.069884 0.381748
vn -0.921621 0.069884 0.381748
vn -0.921621 0.069884 0.381748
vn -0.921621 0.069884 0.381748
vn -0.921621 0.069884 -0.381748
vn -0.921621 0.069884 -0.381748
vn -0.921621 0.069884 -0.381748
vn -0.921621 0.069884 -0.381748
vn -0.381748 0.069884 -0.921621
vn -0.381748 0.069884 -0.921621
vn -0.381748 0.069884 -0.921621
vn -0.381748 0.069884 -0.921621
vn 0.381748 0.069884 -0.921621
vn 0.381748 0.069884 -0.921621
vn 0.381748 0.069884 -0.921621
vn 0.381748 0.069884 -0.921621
vn 0.881547 0.299234 -0.365149
vn 0.881547 0.299234 -0.365149
vn 0.881547 0.299235 0.365149
vn 0.881547 0.299235 0.365149
vn 0.365149 0.299234 0.881547
vn 0.365149 0.299234 0.881547
vn -0.365149 0.299234 0.881547
vn -0.365149 0.299234 0.881547
vn -0.881547 0.299234 0.365149
vn -0.881547 0.299234 0.365149
vn -0.881547 0.299234 -0.365149
vn -0.881547 0.299234 -0.365149
vn -0.365149 0.299234 -0.881547
vn -0.365149 0.299234 -0.881547
vn 0.365149 0.299234 -0.881547
vn 0.365149 0.299234 -0.881547
vn 0.049708 -0.997526 -0.049708
vn 0.000000 -0.997526 -0.070298
vn 0.000000 -0.997526 -0.070298
vn 0.049708 -0.997526 -0.049708
vn 0.000000 0.997137 0.075610
vn -0.053464 0.997137 0.053464
vn -0.053464 0.997138 0.053464
vn 0.000000 0.997137 0.075610
vn -0.049708 -0.997526 -0.049708
vn -0.049708 -0.997526 -0.049708
vn 0.053464 0.997137 0.053464
vn 0.053464 0.997137 0.053464
vn -0.070298 -0.997526 0.000000
vn -0.070298 -0.997526 0.000000
vn 0.075610 0.997137 0.000000
vn 0.075610 0.997137 0.000000
vn -0.049708 -0.997526 0.049708
vn -0.049708 -0.997526 0.049708
vn 0.053464 0.997138 -0.053464
vn 0.053464 0.997138 -0.053464
vn -0.000000 -0.997526 0.070298
vn -0.000000 -0.997526 0.070298
vn 0.000000 0.997137 -0.075610
vn 0.000000 0.997137 -0.075610
vn 0.049708 -0.997526 0.049708
vn 0.049708 -0.997526 0.049708
vn -0.053464 0.997137 -0.053464
vn -0.053464 0.997137 -0.053464
vn 0.070298 -0.997526 -0.000000
vn 0.070298 -0.997526 -0.000000
vn -0.075610 0.997138 -0.000000
vn -0.075610 0.997137 -0.000000
s off
g AlarmLight
f 50/63/1 51/64/2 52/65/3 53/66/4
f 51/64/5 54/67/6 55/68/7 52/65/8
f 54/67/9 56/69/10 57/70/11 55/68/12
f 56/69/13 58/71/14 59/72/15 57/70/16
f 58/71/17 60/73/18 61/74/19 59/72/20
f 60/73/21 62/75/22 63/76/23 61/74/24
f 62/75/25 64/77/26 65/78/27 63/76/28
f 64/77/29 50/79/30 53/80/31 65/78/32
s 1
f 9/10/33 10/11/34 49/62/35 42/55/36
s 2
f 10/11/37 11/12/38 48/61/39 49/62/40
s 3
f 11/12/41 12/13/42 47/60/43 48/61/44
s 4
f 12/13/45 13/14/46 46/59/47 47/60/48
s 5
f 13/14/49 14/15/50 45/58/51 46/59/52
s 6
f 14/15/53 15/16/54 44/57/55 45/58/56
s 7
f 15/16/57 16/17/58 43/56/59 44/57/60
s 8
f 16/17/61 9/18/62 42/54/63 43/56/64
s off
f 17/19/65 18/20/66 26/29/67 25/28/68
f 18/20/69 19/21/70 27/30/71 26/29/72
f 19/21/73 20/22/74 28/31/75 27/30/76
f 20/22/77 21/23/78 29/32/79 28/31/80
f 21/23/81 22/24/82 30/33/83 29/32/84
f 22/24/85 23/25/86 31/34/87 30/33/88
f 23/25/89 24/26/90 32/35/91 31/34/92
f 24/26/93 17/27/94 25/36/95 32/35/96
f 25/28/97 26/29/98 33/37/99
f 26/29/100 27/30/101 33/38/102
f 27/30/103 28/31/104 33/39/105
f 28/31/106 29/32/107 33/40/108
f 29/32/109 30/33/110 33/41/111
f 30/33/112 31/34/113 33/42/114
f 31/34/115 32/35/116 33/43/117
f 32/35/118 25/36/119 33/44/120
f 35/89/121 34/82/122 9/18/123 16/17/124
f 36/88/125 35/89/126 16/17/127 15/16/128
f 37/87/129 36/88/130 15/16/131 14/15/132
f 38/86/133 37/87/134 14/15/135 13/14/136
f 39/85/137 38/86/138 13/14/139 12/13/140
f 40/84/141 39/85/142 12/13/143 11/12/144
f 41/81/145 40/84/146 11/12/147 10/11/148
f 34/46/149 41/81/150 10/11/151 9/10/152
s 8
f 43/56/64 42/54/63 17/27/153 24/26/154
s 7
f 44/57/60 43/56/59 24/26/155 23/25/156
s 6
f 45/58/56 44/57/55 23/25/157 22/24/158
s 5
f 46/59/52 45/58/51 22/24/159 21/23/160
s 4
f 47/60/48 46/59/47 21/23/161 20/22/162
s 3
f 48/61/44 47/60/43 20/22/163 19/21/164
s 2
f 49/62/40 48/61/39 19/21/165 18/20/166
s 1
f 42/55/36 49/62/35 18/20/167 17/19/168
s 9
f 1/1/169 2/2/170 51/64/171 50/63/172
s 10
f 41/53/173 34/83/174 53/66/175 52/65/176
s 9
f 2/2/170 3/3/177 54/67/178 51/64/171
s 10
f 40/52/179 41/53/173 52/65/176 55/68/180
s 9
f 3/3/177 4/4/181 56/69/182 54/67/178
s 10
f 39/51/183 40/52/179 55/68/180 57/70/184
s 9
f 4/4/181 5/5/185 58/71/186 56/69/182
s 10
f 38/50/187 39/51/183 57/70/184 59/72/188
s 9
f 5/5/185 6/6/189 60/73/190 58/71/186
s 10
f 37/49/191 38/50/187 59/72/188 61/74/192
s 9
f 6/6/189 7/7/193 62/75/194 60/73/190
s 10
f 36/48/195 37/49/191 61/74/192 63/76/196
s 9
f 7/7/193 8/8/197 64/77/198 62/75/194
s 10
f 35/47/199 36/48/195 63/76/196 65/78/200
s 9
f 8/8/197 1/9/169 50/79/172 64/77/198
s 10
f 34/45/174 35/47/199 65/78/200 53/80/175
