# This file uses centimeters as units for non-parametric coordinates.

g default
v -1.000000 -0.400000 1.000000
v -1.000000 -0.400000 -1.000000
v 1.000000 -0.400000 -1.000000
v 1.000000 -0.400000 1.000000
v -0.498288 0.650000 1.000000
v 0.501766 0.650000 1.000000
v -0.498288 0.650000 -1.000000
v 0.501766 0.650000 -1.000000
v -1.000000 0.650000 0.508282
v -1.000000 0.650000 -0.508282
v 1.000000 0.650000 0.494046
v 1.000000 0.650000 -0.504342
v -1.000000 0.650000 -1.000000
v 1.000000 0.650000 -1.000000
v -1.000000 0.650000 1.000000
v 1.000000 0.650000 1.000000
v -1.176744 1.249244 0.561468
v -0.561468 1.249244 1.176744
v 1.176744 1.249244 0.561468
v 0.561468 1.249244 1.176744
v -1.176744 1.249244 -0.561468
v -0.561468 1.249244 -1.176744
v 1.176744 1.249244 -0.561468
v 0.561468 1.249244 -1.176744
v -0.419831 1.249244 0.879897
v -0.879897 1.249244 0.419831
v 0.419831 1.249244 0.879897
v 0.879897 1.249244 0.419831
v 0.879897 1.249244 -0.419831
v 0.419831 1.249244 -0.879897
v -0.419831 1.249244 -0.879897
v -0.879897 1.249244 -0.419831
v -0.278080 1.351043 0.582810
v -0.582810 1.351043 0.278080
v 0.278080 1.351043 0.582810
v 0.582810 1.351043 0.278080
v 0.582810 1.351043 -0.278080
v 0.278080 1.351043 -0.582810
v -0.278080 1.351043 -0.582810
v -0.582810 1.351043 -0.278080
v -0.419831 1.132682 0.879897
v -0.879897 1.132682 0.419831
v -0.278080 1.132682 0.582810
v -0.582810 1.132682 0.278080
v 0.419831 1.132682 0.879897
v 0.278080 1.132682 0.582810
v 0.879897 1.132682 0.419831
v 0.582810 1.132682 0.278080
v 0.879897 1.132682 -0.419831
v 0.582810 1.132682 -0.278080
v 0.419831 1.132682 -0.879897
v 0.278080 1.132682 -0.582810
v -0.419831 1.132682 -0.879897
v -0.278080 1.132682 -0.582810
v -0.879897 1.132682 -0.419831
v -0.582810 1.132682 -0.278080
v -1.000000 0.650000 -0.504006
v -0.640056 -1.200000 0.880032
v -0.880032 -1.200000 0.640056
v -1.200000 -0.880032 0.960024
v -0.960024 -0.880032 1.200000
v -0.960024 -0.880032 -1.200000
v -1.200000 -0.880032 -0.960024
v -0.640056 -1.200000 -0.880032
v -0.880032 -1.200000 -0.640056
v 0.960024 -0.880032 1.200000
v 1.200000 -0.880032 0.960024
v 0.880032 -1.200000 0.640056
v 0.640056 -1.200000 0.880032
v 0.640056 -1.200000 -0.880032
v 0.880032 -1.200000 -0.640056
v 1.200000 -0.880032 -0.960024
v 0.960024 -0.880032 -1.200000
v 1.200000 -0.400000 0.960024
v 0.960024 -0.400000 1.200000
v -0.960024 -0.400000 1.200000
v -1.200000 -0.400000 0.960024
v 0.960024 -0.400000 -1.200000
v 1.200000 -0.400000 -0.960024
v -1.200000 -0.400000 -0.960024
v -0.960024 -0.400000 -1.200000
vt 0.684871 0.675595
vt 0.677070 0.675610
vt 0.677183 0.683590
vt 0.684663 0.683575
vt 0.551050 0.712181
vt 0.551050 0.724271
vt 0.551050 0.769071
vt 0.551050 0.757255
vt 0.551050 0.791808
vt 0.551050 0.779882
vt 0.551050 0.734896
vt 0.551050 0.746735
vt 0.673565 0.745130
vt 0.651041 0.745025
vt 0.606477 0.744618
vt 0.628545 0.745077
vt 0.622259 0.739964
vt 0.634342 0.728253
vt 0.670170 0.726628
vt 0.667765 0.740676
vt 0.656054 0.728593
vt 0.619514 0.775724
vt 0.621919 0.761676
vt 0.633630 0.773759
vt 0.667425 0.762388
vt 0.655342 0.774099
vt 0.602663 0.630166
vt 0.622301 0.610561
vt 0.657187 0.610540
vt 0.676826 0.630273
vt 0.676750 0.665120
vt 0.657105 0.684721
vt 0.622224 0.684735
vt 0.602591 0.665006
vt 0.620223 0.638343
vt 0.630409 0.628154
vt 0.648380 0.630122
vt 0.659192 0.638338
vt 0.659194 0.656932
vt 0.649008 0.667121
vt 0.631036 0.665150
vt 0.620225 0.656937
vt 0.718325 0.136396
vt 0.623775 0.614185
vt 0.738048 0.129844
vt 0.616286 0.636580
vt 0.655787 0.614198
vt 0.757439 0.129884
vt 0.673198 0.631734
vt 0.768390 0.140883
vt 0.673092 0.663715
vt 0.768290 0.160258
vt 0.655633 0.681096
vt 0.757329 0.171217
vt 0.623624 0.681077
vt 0.737939 0.171175
vt 0.606219 0.663545
vt 0.726990 0.160177
vt 0.551050 0.779670
vt 0.687211 0.685766
vt 0.684976 0.688334
vt 0.677403 0.684298
vt 0.677282 0.674886
vt 0.693172 0.684819
vt 0.694426 0.683042
vt 0.684694 0.673025
vt 0.685725 0.675573
vt 0.684654 0.674886
vt 0.677226 0.673101
vt 0.676217 0.675595
vt 0.694436 0.693496
vt 0.694120 0.690780
vt 0.684449 0.684299
vt 0.685525 0.683590
vt 0.684539 0.686085
vt 0.688158 0.691728
vt 0.677329 0.686159
vt 0.676320 0.683611
vt 0.683578 0.671242
vt 0.686894 0.683050
vt 0.687216 0.690787
vt 0.676819 0.670851
vt 0.686905 0.693504
vt 0.690831 0.751632
vt 0.678905 0.751632
vt 0.668094 0.751604
vt 0.656278 0.751604
vt 0.633918 0.751594
vt 0.645758 0.751594
vt 0.611204 0.751671
vt 0.623293 0.751671
vt 0.669390 0.776504
vt 0.620294 0.725848
vt 0.622247 0.639001
vt 0.621999 0.655959
vt 0.630414 0.667123
vt 0.647991 0.665349
vt 0.657169 0.656273
vt 0.657418 0.639314
vt 0.649003 0.628151
vt 0.631423 0.629924
vt 0.627956 0.742792
vt 0.627702 0.759028
vt 0.636458 0.768062
vt 0.652694 0.768316
vt 0.661728 0.759560
vt 0.661982 0.743325
vt 0.653226 0.734290
vt 0.636990 0.734036
vt 0.562482 0.729520
vt 0.562482 0.796847
vt 0.562482 0.707437
vt 0.562482 0.752026
vt 0.562482 0.774540
vt 0.551051 0.796845
vt 0.695851 0.744619
vt 0.686907 0.695387
vt 0.694424 0.681159
vt 0.676001 0.686166
vt 0.676955 0.688465
vt 0.685846 0.686092
vt 0.688151 0.684824
vt 0.686892 0.681167
vt 0.675920 0.673093
vt 0.693179 0.691723
vt 0.694438 0.695379
vt 0.686021 0.673019
vt 0.685037 0.670720
vt 0.678399 0.687943
vt 0.683502 0.687973
vt 0.678307 0.671212
vt 0.694115 0.685759
vt 0.727089 0.140805
vt 0.616174 0.658605
vt 0.606321 0.631570
vt 0.718235 0.164520
vt 0.628623 0.671109
vt 0.733544 0.179940
vt 0.650667 0.671157
vt 0.761697 0.179957
vt 0.663130 0.658696
vt 0.777053 0.164669
vt 0.663243 0.636668
vt 0.777146 0.136541
vt 0.650792 0.624163
vt 0.761833 0.121117
vt 0.628745 0.624117
vt 0.733676 0.121106
vt 0.551050 0.752026
vt 0.656278 0.744604
vt 0.645758 0.744604
vt 0.551050 0.774541
vt 0.678905 0.744604
vt 0.668094 0.744604
vt 0.623293 0.744604
vt 0.551050 0.729520
vt 0.633918 0.744604
vt 0.690831 0.744604
vt 0.551051 0.707439
vt 0.611204 0.744604
vn -0.675606 0.295148 0.675606
vn -0.675606 0.295148 0.675606
vn -0.675606 0.295148 0.675606
vn 0.000000 1.000000 0.000000
vn 0.000000 1.000000 0.000000
vn 0.000000 1.000000 0.000000
vn 0.000000 1.000000 0.000000
vn 0.000000 1.000000 0.000000
vn 0.000000 1.000000 0.000000
vn 0.000000 1.000000 0.000000
vn 0.000000 1.000000 0.000000
vn 0.000000 1.000000 0.000000
vn 0.000000 1.000000 0.000000
vn 0.000000 1.000000 0.000000
vn 0.000000 1.000000 0.000000
vn 0.000000 1.000000 0.000000
vn 0.000000 1.000000 0.000000
vn 0.675606 0.295148 0.675606
vn 0.675606 0.295148 0.675606
vn 0.675606 0.295148 0.675606
vn -0.675606 0.295148 -0.675606
vn -0.675606 0.295148 -0.675606
vn -0.675606 0.295148 -0.675606
vn 0.675606 0.295148 -0.675606
vn 0.675606 0.295148 -0.675606
vn 0.675606 0.295148 -0.675606
vn 0.000000 0.000000 0.000000
vn 0.000000 0.000000 0.000000
vn 0.000000 0.000000 0.000000
vn 0.000000 1.000000 0.000000
vn 0.000000 1.000000 -0.000000
vn 0.000000 1.000000 -0.000000
vn -1.000000 0.000000 0.000000
vn -1.000000 0.000000 0.000000
vn -1.000000 0.000000 0.000000
vn -1.000000 0.000000 0.000000
vn 0.000000 0.000000 1.000000
vn 0.000000 0.000000 1.000000
vn 0.000000 0.000000 1.000000
vn 1.000000 0.000000 0.000000
vn 1.000000 0.000000 0.000000
vn 1.000000 0.000000 0.000000
vn 0.000000 0.000000 -1.000000
vn 0.000000 0.000000 -1.000000
vn 0.000000 0.000000 -1.000000
vn -0.959150 -0.282897 0.000000
vn -0.959150 -0.282897 0.000000
vn -0.959150 -0.282897 0.000000
vn 0.000000 -0.282897 0.959150
vn 0.000000 -0.282897 0.959150
vn 0.000000 -0.282897 0.959150
vn 0.959150 -0.282897 0.000000
vn 0.959150 -0.282897 0.000000
vn 0.959150 -0.282897 0.000000
vn 0.000000 -0.282897 0.959150
vn 0.000000 -0.282897 0.959150
vn 0.000000 -0.282897 0.959150
vn -0.959150 -0.282897 0.000000
vn -0.959150 -0.282897 0.000000
vn -0.959150 -0.282897 0.000000
vn 0.000000 -0.282897 -0.959150
vn 0.000000 -0.282897 -0.959150
vn 0.000000 -0.282897 -0.959150
vn 0.959150 -0.282897 0.000000
vn 0.959150 -0.282897 0.000000
vn 0.959150 -0.282897 0.000000
vn 0.000000 -0.282897 -0.959150
vn 0.000000 -0.282897 -0.959150
vn 0.000000 -0.282897 -0.959150
vn 0.000000 -0.282897 0.959150
vn 0.000000 -0.282897 0.959150
vn 0.000000 -0.282897 0.959150
vn 0.000000 -0.282897 0.959150
vn 0.959150 -0.282897 0.000000
vn 0.959150 -0.282897 0.000000
vn 0.959150 -0.282897 0.000000
vn 0.959150 -0.282897 0.000000
vn 0.000000 -0.282897 -0.959150
vn 0.000000 -0.282897 -0.959150
vn 0.000000 -0.282897 -0.959150
vn 0.000000 -0.282897 -0.959150
vn -0.959150 -0.282897 0.000000
vn -0.959150 -0.282897 0.000000
vn -0.959150 -0.282897 0.000000
vn -0.959150 -0.282897 0.000000
vn 0.000000 1.000000 0.000000
vn 0.000000 1.000000 0.000000
vn 0.000000 1.000000 0.000000
vn 0.000000 1.000000 0.000000
vn 0.000000 1.000000 0.000000
vn 0.000000 1.000000 0.000000
vn 0.000000 1.000000 0.000000
vn 0.000000 1.000000 0.000000
vn 0.000000 1.000000 -0.000000
vn 0.000000 1.000000 -0.000000
vn 0.000000 1.000000 -0.000000
vn 0.000000 1.000000 -0.000000
vn 0.000000 1.000000 0.000000
vn 0.000000 1.000000 0.000000
vn 0.000000 1.000000 0.000000
vn 0.000000 1.000000 0.000000
vn 0.000000 1.000000 0.000000
vn 0.000000 1.000000 0.000000
vn 0.000000 1.000000 0.000000
vn 0.000000 1.000000 0.000000
vn 0.000000 1.000000 -0.000000
vn 0.000000 1.000000 -0.000000
vn 0.000000 1.000000 -0.000000
vn 0.000000 1.000000 -0.000000
vn 0.000000 1.000000 0.000000
vn 0.000000 1.000000 0.000000
vn 0.000000 1.000000 0.000000
vn 0.000000 1.000000 0.000000
vn 0.000000 1.000000 0.000000
vn 0.000000 1.000000 0.000000
vn 0.000000 1.000000 0.000000
vn 0.000000 1.000000 0.000000
vn 0.000000 1.000000 0.000000
vn 0.000000 1.000000 0.000000
vn 0.000000 1.000000 0.000000
vn 0.000000 1.000000 0.000000
vn 0.000000 1.000000 -0.000000
vn 0.000000 1.000000 -0.000000
vn 0.000000 1.000000 -0.000000
vn 0.000000 1.000000 -0.000000
vn 0.000000 1.000000 -0.000000
vn 0.000000 1.000000 -0.000000
vn 0.000000 1.000000 -0.000000
vn 0.000000 1.000000 -0.000000
vn 0.000000 1.000000 0.000000
vn 0.000000 1.000000 0.000000
vn 0.000000 1.000000 0.000000
vn 0.000000 1.000000 0.000000
vn 0.000000 1.000000 -0.000000
vn 0.000000 1.000000 -0.000000
vn 0.000000 1.000000 -0.000000
vn 0.000000 1.000000 -0.000000
vn 0.000000 1.000000 0.000000
vn 0.000000 1.000000 0.000000
vn 0.000000 1.000000 0.000000
vn 0.000000 1.000000 0.000000
vn 0.000000 1.000000 0.000000
vn 0.000000 1.000000 0.000000
vn 0.000000 1.000000 0.000000
vn 0.000000 1.000000 0.000000
vn 0.000000 1.000000 0.000000
vn 0.000000 1.000000 0.000000
vn 0.000000 1.000000 0.000000
vn 0.000000 1.000000 0.000000
vn 0.707107 0.000000 -0.707107
vn 0.707107 0.000000 -0.707107
vn 0.707107 0.000000 -0.707107
vn 0.707107 0.000000 -0.707107
vn -0.707107 0.000000 0.707107
vn -0.707107 0.000000 0.707107
vn -0.707107 0.000000 0.707107
vn -0.707107 0.000000 0.707107
vn 0.000000 0.000000 -1.000000
vn 0.000000 0.000000 -1.000000
vn 0.000000 0.000000 -1.000000
vn 0.000000 0.000000 -1.000000
vn 0.000000 0.000000 1.000000
vn 0.000000 0.000000 1.000000
vn 0.000000 0.000000 1.000000
vn 0.000000 0.000000 1.000000
vn -0.707107 0.000000 -0.707107
vn -0.707107 0.000000 -0.707107
vn -0.707107 0.000000 -0.707107
vn -0.707107 0.000000 -0.707107
vn 0.707107 0.000000 0.707107
vn 0.707107 0.000000 0.707107
vn 0.707107 0.000000 0.707107
vn 0.707107 0.000000 0.707107
vn -1.000000 0.000000 0.000000
vn -1.000000 0.000000 0.000000
vn -1.000000 0.000000 0.000000
vn -1.000000 0.000000 0.000000
vn 1.000000 0.000000 0.000000
vn 1.000000 0.000000 0.000000
vn 1.000000 0.000000 0.000000
vn 1.000000 0.000000 0.000000
vn -0.707107 0.000000 0.707107
vn -0.707107 0.000000 0.707107
vn -0.707107 0.000000 0.707107
vn -0.707107 0.000000 0.707107
vn 0.707107 0.000000 -0.707107
vn 0.707107 0.000000 -0.707107
vn 0.707107 0.000000 -0.707107
vn 0.707107 0.000000 -0.707107
vn 0.000000 0.000000 1.000000
vn 0.000000 0.000000 1.000000
vn 0.000000 0.000000 1.000000
vn 0.000000 0.000000 1.000000
vn 0.000000 0.000000 -1.000000
vn 0.000000 0.000000 -1.000000
vn 0.000000 0.000000 -1.000000
vn 0.000000 0.000000 -1.000000
vn 0.707107 0.000000 0.707107
vn 0.707107 0.000000 0.707107
vn 0.707107 0.000000 0.707107
vn 0.707107 0.000000 0.707107
vn -0.707107 0.000000 -0.707107
vn -0.707107 0.000000 -0.707107
vn -0.707107 0.000000 -0.707107
vn -0.707107 0.000000 -0.707107
vn 1.000000 0.000000 0.000000
vn 1.000000 0.000000 0.000000
vn 1.000000 0.000000 0.000000
vn 1.000000 0.000000 0.000000
vn -1.000000 0.000000 0.000000
vn -1.000000 0.000000 0.000000
vn -1.000000 0.000000 0.000000
vn -1.000000 0.000000 0.000000
vn 0.000000 0.000000 1.000000
vn 0.000000 0.000000 1.000000
vn 0.000000 0.000000 1.000000
vn 0.000000 0.000000 1.000000
vn 0.000000 0.000000 1.000000
vn 0.000000 0.000000 1.000000
vn 0.000000 0.000000 1.000000
vn 0.000000 0.000000 1.000000
vn 0.000000 0.000000 1.000000
vn 0.000000 0.000000 -1.000000
vn 0.000000 0.000000 -1.000000
vn 0.000000 0.000000 -1.000000
vn 0.000000 0.000000 -1.000000
vn 0.000000 0.000000 -1.000000
vn 0.000000 0.000000 -1.000000
vn -1.000000 0.000000 0.000000
vn -1.000000 0.000000 0.000000
vn -1.000000 0.000000 0.000000
vn 1.000000 0.000000 0.000000
vn 1.000000 0.000000 0.000000
vn 1.000000 0.000000 0.000000
vn 1.000000 0.000000 0.000000
vn 1.000000 0.000000 0.000000
vn 1.000000 0.000000 0.000000
vn 1.000000 0.000000 0.000000
vn 1.000000 0.000000 0.000000
vn 1.000000 0.000000 0.000000
vn 0.000000 0.000000 -1.000000
vn 0.000000 0.000000 -1.000000
vn 0.000000 0.000000 -1.000000
vn -1.000000 0.000000 0.000000
vn -1.000000 0.000000 0.000000
vn -1.000000 0.000000 0.000000
vn -1.000000 0.000000 0.000000
vn -1.000000 0.000000 0.000000
vn -1.000000 0.000000 0.000000
vn 0.000000 -1.000000 0.000000
vn 0.000000 -1.000000 0.000000
vn 0.000000 -1.000000 0.000000
vn -0.408248 -0.816497 0.408248
vn -0.408248 -0.816497 0.408248
vn -0.408248 -0.816497 0.408248
vn -0.408248 -0.816497 0.408248
vn -0.707107 0.000000 0.707107
vn -0.707107 0.000000 0.707107
vn -0.707107 0.000000 0.707107
vn -0.707107 0.000000 0.707107
vn -0.707107 0.000000 -0.707107
vn -0.707107 0.000000 -0.707107
vn -0.707107 0.000000 -0.707107
vn -0.707107 0.000000 -0.707107
vn -0.408248 -0.816497 -0.408248
vn -0.408248 -0.816497 -0.408248
vn -0.408248 -0.816497 -0.408248
vn -0.408248 -0.816497 -0.408248
vn 0.707107 0.000000 0.707107
vn 0.707107 0.000000 0.707107
vn 0.707107 0.000000 0.707107
vn 0.707107 0.000000 0.707107
vn 0.408248 -0.816497 0.408248
vn 0.408248 -0.816497 0.408248
vn 0.408248 -0.816497 0.408248
vn 0.408248 -0.816497 0.408248
vn 0.408248 -0.816497 -0.408248
vn 0.408248 -0.816497 -0.408248
vn 0.408248 -0.816497 -0.408248
vn 0.408248 -0.816497 -0.408248
vn 0.707107 0.000000 -0.707107
vn 0.707107 0.000000 -0.707107
vn 0.707107 0.000000 -0.707107
vn 0.707107 0.000000 -0.707107
vn -0.707107 -0.707107 0.000000
vn -0.707107 -0.707107 0.000000
vn -0.707107 -0.707107 0.000000
vn -0.707107 -0.707107 0.000000
vn 0.000000 -0.707107 0.707107
vn 0.000000 -0.707107 0.707107
vn 0.000000 -0.707107 0.707107
vn 0.000000 -0.707107 0.707107
vn 0.707107 -0.707107 0.000000
vn 0.707107 -0.707107 0.000000
vn 0.707107 -0.707107 0.000000
vn 0.707107 -0.707107 0.000000
vn 0.000000 -0.707107 -0.707107
vn 0.000000 -0.707107 -0.707107
vn 0.000000 -0.707107 -0.707107
vn 0.000000 -0.707107 -0.707107
vn 0.000000 0.000000 1.000000
vn 0.000000 0.000000 1.000000
vn 0.000000 0.000000 1.000000
vn 0.000000 0.000000 1.000000
vn 0.000000 0.000000 -1.000000
vn 0.000000 0.000000 -1.000000
vn 0.000000 0.000000 -1.000000
vn 0.000000 0.000000 -1.000000
vn 1.000000 0.000000 0.000000
vn 1.000000 0.000000 0.000000
vn 1.000000 0.000000 0.000000
vn 1.000000 0.000000 0.000000
vn -1.000000 0.000000 0.000000
vn -1.000000 0.000000 0.000000
vn -1.000000 0.000000 0.000000
vn -1.000000 0.000000 0.000000
vn 0.000000 1.000000 -0.000000
vn 0.000000 1.000000 -0.000000
vn 0.000000 1.000000 -0.000000
vn 0.000000 1.000000 -0.000000
vn 0.000000 1.000000 0.000000
vn 0.000000 1.000000 0.000000
vn 0.000000 1.000000 0.000000
vn 0.000000 1.000000 0.000000
vn 0.000000 1.000000 0.000000
vn 0.000000 1.000000 0.000000
vn 0.000000 1.000000 0.000000
vn 0.000000 1.000000 0.000000
vn 0.000000 1.000000 0.000000
vn 0.000000 1.000000 0.000000
vn 0.000000 1.000000 -0.000001
vn 0.000000 1.000000 0.000001
vn 0.000000 1.000000 0.000000
vn 0.000000 1.000000 0.000001
vn 0.000000 1.000000 -0.000001
vn 0.000000 -1.000000 -0.000000
vn 0.000000 -1.000000 0.000000
vn 0.000000 -1.000000 -0.000000
vn 0.000000 -1.000000 -0.000001
vn 0.000000 -1.000000 -0.000001
s off
g Box group1
f 17/17/1 15/93/2 18/18/3
f 4/4/4 75/74/5 74/73/6
f 2/2/7 81/70/8 80/63/9
f 3/3/10 4/4/11 74/73/12 79/62/13
f 1/1/14 2/2/15 80/63/16 77/68/17
f 16/19/18 19/20/19 20/21/20
f 13/22/21 21/23/22 22/24/23
f 23/25/24 14/92/25 24/26/26
f 10/10/27 57/59/28 9/9/29
s 1
f 34/35/30 37/39/31 40/42/32
s off
f 2/114/33 57/59/34 10/10/35 13/152/36
f 1/112/37 5/5/38 15/159/39
f 4/110/40 11/11/41 16/156/42
f 2/114/43 7/7/44 3/113/45
f 9/158/46 15/116/47 17/84/48
f 15/15/49 5/160/50 18/90/51
f 16/16/52 11/157/53 19/88/54
f 6/155/55 16/16/56 20/91/57
f 13/13/58 10/153/59 21/85/60
f 7/154/61 13/13/62 22/86/63
f 12/151/64 14/14/65 23/89/66
f 14/14/67 8/150/68 24/87/69
f 5/160/70 6/155/71 20/91/72 18/90/73
f 11/157/74 12/151/75 23/89/76 19/88/77
f 8/150/78 7/154/79 22/86/80 24/87/81
f 10/153/82 9/158/83 17/84/84 21/85/85
f 17/17/86 18/18/87 25/109/88 26/102/89
f 18/18/90 20/21/91 27/108/92 25/109/93
f 20/21/94 19/20/95 28/107/96 27/108/97
f 19/20/98 23/25/99 29/106/100 28/107/101
f 23/25/102 24/26/103 30/105/104 29/106/105
f 24/26/106 22/24/107 31/104/108 30/105/109
f 22/24/110 21/23/111 32/103/112 31/104/113
f 21/23/114 17/17/115 26/102/116 32/103/117
f 42/43/118 41/148/119 43/45/120 44/133/121
f 41/148/122 45/146/123 46/48/124 43/45/125
f 45/146/126 47/144/127 48/50/128 46/48/129
f 47/144/130 49/142/131 50/52/132 48/50/133
f 49/142/134 51/140/135 52/54/136 50/52/137
f 51/140/138 53/138/139 54/56/140 52/54/141
f 53/138/142 55/136/143 56/58/144 54/56/145
f 55/136/146 42/43/147 44/133/148 56/58/149
f 26/27/150 25/28/151 41/44/152 42/135/153
f 33/101/154 34/94/155 44/46/156 43/147/157
f 25/28/158 27/29/159 45/47/160 41/44/161
f 35/37/162 33/101/163 43/147/164 46/145/165
f 27/29/166 28/30/167 47/49/168 45/47/169
f 36/99/170 35/37/171 46/145/172 48/143/173
f 28/30/174 29/31/175 49/51/176 47/49/177
f 37/98/178 36/99/179 48/143/180 50/141/181
f 29/31/182 30/32/183 51/53/184 49/51/185
f 38/97/186 37/98/187 50/141/188 52/139/189
f 30/32/190 31/33/191 53/55/192 51/53/193
f 39/41/194 38/97/195 52/139/196 54/137/197
f 31/33/198 32/34/199 55/57/200 53/55/201
f 40/95/202 39/41/203 54/137/204 56/134/205
f 32/34/206 26/27/207 42/135/208 55/57/209
f 34/94/210 40/95/211 56/134/212 44/46/213
f 1/112/214 6/6/215 5/5/216
f 6/6/217 4/110/218 16/156/219
f 1/112/220 4/110/221 6/6/222
f 13/152/223 7/7/224 2/114/225
f 3/113/226 8/8/227 14/149/228
f 9/9/229 1/111/230 15/115/231
f 4/110/232 3/113/233 12/12/234
f 12/12/235 3/113/236 14/149/237
f 4/110/238 12/12/239 11/11/240
f 3/113/241 7/7/242 8/8/243
f 2/114/244 1/111/245 9/9/246
f 2/114/247 9/9/248 57/59/249
s 2
f 58/64/250 68/60/251 69/122/252
s off
f 59/79/253 58/128/254 61/127/255 60/66/256
f 60/66/257 61/127/258 76/67/259 77/68/260
f 62/124/261 63/69/262 80/63/263 81/70/264
f 63/69/265 62/124/266 64/82/267 65/131/268
f 66/121/269 67/75/270 74/73/271 75/74/272
f 67/75/273 66/121/274 69/61/275 68/130/276
f 71/129/277 70/120/278 73/119/279 72/77/280
f 72/77/281 73/119/282 78/78/283 79/62/284
f 59/79/285 60/66/286 63/69/287 65/131/288
f 61/65/289 58/64/290 69/122/291 66/80/292
f 67/75/293 68/130/294 71/129/295 72/77/296
f 73/83/297 70/76/298 64/125/299 62/71/300
f 61/65/301 66/80/302 75/123/303 76/118/304
f 62/71/305 81/126/306 78/117/307 73/83/308
f 67/75/309 72/77/310 79/62/311 74/73/312
f 63/69/313 60/66/314 77/68/315 80/63/316
f 4/4/317 1/1/318 76/67/319 75/74/320
f 76/67/321 1/1/322 77/68/323
f 2/2/324 3/3/325 78/78/326 81/70/327
f 78/78/328 3/3/329 79/62/330
s 1
f 40/42/32 38/40/331 39/96/332
f 40/42/32 37/39/31 38/40/331
f 34/35/30 36/38/333 37/39/31
f 34/35/30 33/36/334 36/38/333
f 36/38/333 33/36/334 35/100/335
s 2
f 65/72/336 68/60/251 58/64/250 59/132/337
f 65/72/336 71/81/338 68/60/251
f 65/72/336 64/125/339 70/76/340 71/81/338
