# This file uses centimeters as units for non-parametric coordinates.

g default
v -1.000000 -0.400000 1.000000
v -1.000000 -0.400000 -1.000000
v 1.000000 -0.400000 -1.000000
v 1.000000 -0.400000 1.000000
v -0.498288 0.650000 1.000000
v 0.501766 0.650000 1.000000
v -0.498288 0.650000 -1.000000
v 0.501766 0.650000 -1.000000
v -1.000000 0.650000 0.508282
v -1.000000 0.650000 -0.508282
v 1.000000 0.650000 0.494046
v 1.000000 0.650000 -0.504342
v -1.000000 0.650000 -1.000000
v 1.000000 0.650000 -1.000000
v -1.000000 0.650000 1.000000
v 1.000000 0.650000 1.000000
v -1.176744 1.249244 0.561468
v -1.124215 0.745241 1.124215
v -0.561468 1.249244 1.176744
v 1.124215 0.745241 1.124215
v 1.176744 1.249244 0.561468
v 0.561468 1.249244 1.176744
v -1.124215 0.745241 -1.124215
v -1.176744 1.249244 -0.561468
v -0.561468 1.249244 -1.176744
v 1.176744 1.249244 -0.561468
v 1.124215 0.745241 -1.124215
v 0.561468 1.249244 -1.176744
v -0.419831 1.249244 0.879897
v -0.879897 1.249244 0.419831
v 0.419831 1.249244 0.879897
v 0.879897 1.249244 0.419831
v 0.879897 1.249244 -0.419831
v 0.419831 1.249244 -0.879897
v -0.419831 1.249244 -0.879897
v -0.879897 1.249244 -0.419831
v -0.278080 1.351043 0.582810
v -0.582810 1.351043 0.278080
v 0.278080 1.351043 0.582810
v 0.582810 1.351043 0.278080
v 0.582810 1.351043 -0.278080
v 0.278080 1.351043 -0.582810
v -0.278080 1.351043 -0.582810
v -0.582810 1.351043 -0.278080
v -0.419831 1.132682 0.879897
v -0.879897 1.132682 0.419831
v -0.278080 1.132682 0.582810
v -0.582810 1.132682 0.278080
v 0.419831 1.132682 0.879897
v 0.278080 1.132682 0.582810
v 0.879897 1.132682 0.419831
v 0.582810 1.132682 0.278080
v 0.879897 1.132682 -0.419831
v 0.582810 1.132682 -0.278080
v 0.419831 1.132682 -0.879897
v 0.278080 1.132682 -0.582810
v -0.419831 1.132682 -0.879897
v -0.278080 1.132682 -0.582810
v -0.879897 1.132682 -0.419831
v -0.582810 1.132682 -0.278080
v -1.000000 0.650000 -0.504006
v -0.640056 -1.200000 0.880032
v -0.880032 -1.200000 0.640056
v -1.200000 -0.880032 0.960024
v -0.960024 -0.880032 1.200000
v -0.960024 -0.880032 -1.200000
v -1.200000 -0.880032 -0.960024
v -0.640056 -1.200000 -0.880032
v -0.880032 -1.200000 -0.640056
v 0.960024 -0.880032 1.200000
v 1.200000 -0.880032 0.960024
v 0.880032 -1.200000 0.640056
v 0.640056 -1.200000 0.880032
v 0.640056 -1.200000 -0.880032
v 0.880032 -1.200000 -0.640056
v 1.200000 -0.880032 -0.960024
v 0.960024 -0.880032 -1.200000
v 1.200000 -0.400000 0.960024
v 0.960024 -0.400000 1.200000
v -0.960024 -0.400000 1.200000
v -1.200000 -0.400000 0.960024
v 0.960024 -0.400000 -1.200000
v 1.200000 -0.400000 -0.960024
v -1.200000 -0.400000 -0.960024
v -0.960024 -0.400000 -1.200000
vt 0.480610 0.342989
vt 0.236581 0.343477
vt 0.240097 0.593089
vt 0.474102 0.592617
vt 0.053064 0.127860
vt 0.188275 0.127860
vt 0.689344 0.127860
vt 0.557189 0.127860
vt 0.943641 0.127860
vt 0.810260 0.127860
vt 0.307109 0.127860
vt 0.439532 0.127860
vt 0.750516 0.127860
vt 0.498710 0.127860
vt 0.000002 0.127860
vt 0.246989 0.127860
vt 0.532237 0.293212
vt 0.000002 0.155333
vt 0.608901 0.218910
vt 0.838426 0.206468
vt 0.820967 0.297728
vt 0.746664 0.221064
vt 0.512624 0.522236
vt 0.530083 0.430976
vt 0.604385 0.507639
vt 0.818813 0.435491
vt 0.498710 0.151512
vt 0.742149 0.509794
vt 0.000264 0.787724
vt 0.072337 0.715775
vt 0.200368 0.715696
vt 0.272445 0.788115
vt 0.272166 0.916006
vt 0.200067 0.987940
vt 0.072055 0.987991
vt 0.000002 0.915589
vt 0.855858 0.243872
vt 0.893242 0.206477
vt 0.168049 0.787572
vt 0.998876 0.243852
vt 0.998885 0.312091
vt 0.961501 0.349486
vt 0.104392 0.916123
vt 0.855867 0.312110
vt 0.013691 0.792876
vt 0.077747 0.729073
vt 0.095987 0.765534
vt 0.050260 0.811272
vt 0.195233 0.729122
vt 0.176899 0.765701
vt 0.259128 0.793478
vt 0.222594 0.811596
vt 0.258742 0.910848
vt 0.222179 0.892439
vt 0.194666 0.974639
vt 0.176441 0.938170
vt 0.077195 0.974567
vt 0.095536 0.937992
vt 0.013318 0.910224
vt 0.049849 0.892103
vt 0.807886 0.127860
vt 0.553786 0.661149
vt 0.483873 0.741482
vt 0.246993 0.615243
vt 0.243222 0.320834
vt 0.740267 0.631517
vt 0.779470 0.575957
vt 0.475073 0.262623
vt 0.507323 0.342324
vt 0.473823 0.320835
vt 0.241444 0.264972
vt 0.209908 0.343005
vt 0.779798 0.902952
vt 0.769898 0.817997
vt 0.467385 0.615260
vt 0.501051 0.593091
vt 0.470202 0.671125
vt 0.583418 0.847629
vt 0.244668 0.673452
vt 0.213104 0.593745
vt 0.440152 0.206829
vt 0.543886 0.576194
vt 0.553944 0.818214
vt 0.228724 0.194619
vt 0.544215 0.903189
vt 0.943641 0.206468
vt 0.810260 0.206468
vt 0.689344 0.206162
vt 0.557189 0.206162
vt 0.307109 0.206048
vt 0.439532 0.206048
vt 0.053064 0.206911
vt 0.188275 0.206911
vt 0.833409 0.527252
vt 0.750516 0.154347
vt 0.246989 0.152923
vt 0.517641 0.201451
vt 0.072139 0.820156
vt 0.071226 0.882393
vt 0.893262 0.349495
vt 0.166620 0.916856
vt 0.200304 0.883545
vt 0.201217 0.821305
vt 0.961481 0.206468
vt 0.105816 0.786844
vt 0.568383 0.311158
vt 0.566772 0.414169
vt 0.622331 0.471493
vt 0.725342 0.473104
vt 0.782667 0.417546
vt 0.784278 0.314534
vt 0.728719 0.257210
vt 0.625708 0.255599
vt 0.246989 0.000002
vt 0.999998 0.000002
vt 0.000002 0.000002
vt 0.498710 0.000002
vt 0.750516 0.000002
vt 0.999998 0.127860
vt 0.999998 0.156398
vt 0.544274 0.962087
vt 0.779411 0.517059
vt 0.203125 0.673653
vt 0.232970 0.745572
vt 0.511091 0.671358
vt 0.583201 0.631675
vt 0.543827 0.517296
vt 0.200593 0.264744
vt 0.740483 0.847471
vt 0.779857 0.961851
vt 0.516574 0.262411
vt 0.485793 0.190497
vt 0.278154 0.729248
vt 0.437774 0.730203
vt 0.275272 0.205892
vt 0.769740 0.660932
vn -0.574977 0.582067 0.574978
vn -0.574977 0.582067 0.574978
vn -0.574977 0.582067 0.574978
vn 0.000000 1.000000 0.000000
vn 0.000000 1.000000 0.000000
vn 0.000000 1.000000 0.000000
vn 0.000000 1.000000 0.000000
vn 0.000000 1.000000 0.000000
vn 0.000000 1.000000 0.000000
vn 0.000000 1.000000 0.000000
vn 0.000000 1.000000 0.000000
vn 0.000000 1.000000 0.000000
vn 0.000000 1.000000 0.000000
vn 0.000000 1.000000 0.000000
vn 0.000000 1.000000 0.000000
vn 0.000000 1.000000 0.000000
vn 0.000000 1.000000 0.000000
vn 0.574977 0.582067 0.574978
vn 0.574977 0.582067 0.574978
vn 0.574977 0.582067 0.574978
vn -0.574977 0.582067 -0.574978
vn -0.574977 0.582067 -0.574978
vn -0.574977 0.582067 -0.574978
vn 0.574977 0.582067 -0.574978
vn 0.574977 0.582067 -0.574978
vn 0.574977 0.582067 -0.574978
vn 0.000000 0.000000 0.000000
vn 0.000000 0.000000 0.000000
vn 0.000000 0.000000 0.000000
vn 0.000000 1.000000 0.000000
vn 0.000000 1.000000 -0.000000
vn 0.000000 1.000000 -0.000000
vn -1.000000 0.000000 0.000000
vn -1.000000 0.000000 0.000000
vn -1.000000 0.000000 0.000000
vn -1.000000 0.000000 0.000000
vn 0.000000 0.000000 1.000000
vn 0.000000 0.000000 1.000000
vn 0.000000 0.000000 1.000000
vn 1.000000 0.000000 0.000000
vn 1.000000 0.000000 0.000000
vn 1.000000 0.000000 0.000000
vn 0.000000 0.000000 -1.000000
vn 0.000000 0.000000 -1.000000
vn 0.000000 0.000000 -1.000000
vn -0.921475 -0.366326 -0.129188
vn -0.921475 -0.366326 -0.129188
vn -0.921475 -0.366326 -0.129188
vn -0.921475 -0.366326 -0.129188
vn 0.127426 -0.365236 0.922152
vn 0.127426 -0.365236 0.922153
vn 0.127426 -0.365236 0.922153
vn 0.127426 -0.365236 0.922152
vn 0.922433 -0.364782 -0.126692
vn 0.922433 -0.364782 -0.126692
vn 0.922433 -0.364782 -0.126692
vn 0.922433 -0.364782 -0.126692
vn -0.128034 -0.365612 0.921919
vn -0.128034 -0.365612 0.921919
vn -0.128034 -0.365612 0.921919
vn -0.128034 -0.365612 0.921919
vn -0.921475 -0.366326 0.129188
vn -0.921475 -0.366326 0.129188
vn -0.921475 -0.366326 0.129188
vn -0.921475 -0.366326 0.129188
vn 0.127426 -0.365236 -0.922153
vn 0.127426 -0.365236 -0.922152
vn 0.127426 -0.365236 -0.922153
vn 0.127426 -0.365236 -0.922153
vn 0.921745 -0.365893 0.128488
vn 0.921745 -0.365893 0.128488
vn 0.921745 -0.365893 0.128488
vn 0.921745 -0.365893 0.128488
vn -0.128034 -0.365612 -0.921919
vn -0.128034 -0.365612 -0.921919
vn -0.128034 -0.365612 -0.921919
vn -0.128034 -0.365612 -0.921919
vn 0.000000 -0.282897 0.959150
vn 0.000000 -0.282897 0.959150
vn 0.000000 -0.282897 0.959150
vn 0.000000 -0.282897 0.959150
vn 0.959150 -0.282897 0.000000
vn 0.959150 -0.282897 0.000000
vn 0.959150 -0.282897 0.000000
vn 0.959150 -0.282897 0.000000
vn 0.000000 -0.282897 -0.959150
vn 0.000000 -0.282897 -0.959150
vn 0.000000 -0.282897 -0.959150
vn 0.000000 -0.282897 -0.959150
vn -0.959150 -0.282897 0.000000
vn -0.959150 -0.282897 0.000000
vn -0.959150 -0.282897 0.000000
vn -0.959150 -0.282897 0.000000
vn 0.000000 1.000000 0.000000
vn 0.000000 1.000000 0.000000
vn 0.000000 1.000000 0.000000
vn 0.000000 1.000000 0.000000
vn 0.000000 1.000000 0.000000
vn 0.000000 1.000000 0.000000
vn 0.000000 1.000000 0.000000
vn 0.000000 1.000000 0.000000
vn 0.000000 1.000000 -0.000000
vn 0.000000 1.000000 -0.000000
vn 0.000000 1.000000 -0.000000
vn 0.000000 1.000000 -0.000000
vn 0.000000 1.000000 0.000000
vn 0.000000 1.000000 0.000000
vn 0.000000 1.000000 0.000000
vn 0.000000 1.000000 0.000000
vn 0.000000 1.000000 0.000000
vn 0.000000 1.000000 0.000000
vn 0.000000 1.000000 0.000000
vn 0.000000 1.000000 0.000000
vn 0.000000 1.000000 -0.000000
vn 0.000000 1.000000 -0.000000
vn 0.000000 1.000000 -0.000000
vn 0.000000 1.000000 -0.000000
vn 0.000000 1.000000 0.000000
vn 0.000000 1.000000 0.000000
vn 0.000000 1.000000 0.000000
vn 0.000000 1.000000 0.000000
vn 0.000000 1.000000 0.000000
vn 0.000000 1.000000 0.000000
vn 0.000000 1.000000 0.000000
vn 0.000000 1.000000 0.000000
vn 0.000000 1.000000 0.000000
vn 0.000000 1.000000 0.000000
vn 0.000000 1.000000 0.000000
vn 0.000000 1.000000 0.000000
vn 0.000000 1.000000 -0.000000
vn 0.000000 1.000000 -0.000000
vn 0.000000 1.000000 -0.000000
vn 0.000000 1.000000 -0.000000
vn 0.000000 1.000000 -0.000000
vn 0.000000 1.000000 -0.000000
vn 0.000000 1.000000 -0.000000
vn 0.000000 1.000000 -0.000000
vn 0.000000 1.000000 0.000000
vn 0.000000 1.000000 0.000000
vn 0.000000 1.000000 0.000000
vn 0.000000 1.000000 0.000000
vn 0.000000 1.000000 -0.000000
vn 0.000000 1.000000 -0.000000
vn 0.000000 1.000000 -0.000000
vn 0.000000 1.000000 -0.000000
vn 0.000000 1.000000 0.000000
vn 0.000000 1.000000 0.000000
vn 0.000000 1.000000 0.000000
vn 0.000000 1.000000 0.000000
vn 0.000000 1.000000 0.000000
vn 0.000000 1.000000 0.000000
vn 0.000000 1.000000 0.000000
vn 0.000000 1.000000 0.000000
vn 0.000000 1.000000 0.000000
vn 0.000000 1.000000 0.000000
vn 0.000000 1.000000 0.000000
vn 0.000000 1.000000 0.000000
vn 0.707107 0.000000 -0.707107
vn 0.707107 0.000000 -0.707107
vn 0.707107 0.000000 -0.707107
vn 0.707107 0.000000 -0.707107
vn -0.707107 0.000000 0.707107
vn -0.707107 0.000000 0.707107
vn -0.707107 0.000000 0.707107
vn -0.707107 0.000000 0.707107
vn 0.000000 0.000000 -1.000000
vn 0.000000 0.000000 -1.000000
vn 0.000000 0.000000 -1.000000
vn 0.000000 0.000000 -1.000000
vn 0.000000 0.000000 1.000000
vn 0.000000 0.000000 1.000000
vn 0.000000 0.000000 1.000000
vn 0.000000 0.000000 1.000000
vn -0.707107 0.000000 -0.707107
vn -0.707107 0.000000 -0.707107
vn -0.707107 0.000000 -0.707107
vn -0.707107 0.000000 -0.707107
vn 0.707107 0.000000 0.707107
vn 0.707107 0.000000 0.707107
vn 0.707107 0.000000 0.707107
vn 0.707107 0.000000 0.707107
vn -1.000000 0.000000 0.000000
vn -1.000000 0.000000 0.000000
vn -1.000000 0.000000 0.000000
vn -1.000000 0.000000 0.000000
vn 1.000000 0.000000 0.000000
vn 1.000000 0.000000 0.000000
vn 1.000000 0.000000 0.000000
vn 1.000000 0.000000 0.000000
vn -0.707107 0.000000 0.707107
vn -0.707107 0.000000 0.707107
vn -0.707107 0.000000 0.707107
vn -0.707107 0.000000 0.707107
vn 0.707107 0.000000 -0.707107
vn 0.707107 0.000000 -0.707107
vn 0.707107 0.000000 -0.707107
vn 0.707107 0.000000 -0.707107
vn 0.000000 0.000000 1.000000
vn 0.000000 0.000000 1.000000
vn 0.000000 0.000000 1.000000
vn 0.000000 0.000000 1.000000
vn 0.000000 0.000000 -1.000000
vn 0.000000 0.000000 -1.000000
vn 0.000000 0.000000 -1.000000
vn 0.000000 0.000000 -1.000000
vn 0.707107 0.000000 0.707107
vn 0.707107 0.000000 0.707107
vn 0.707107 0.000000 0.707107
vn 0.707107 0.000000 0.707107
vn -0.707107 0.000000 -0.707107
vn -0.707107 0.000000 -0.707107
vn -0.707107 0.000000 -0.707107
vn -0.707107 0.000000 -0.707107
vn 1.000000 0.000000 0.000000
vn 1.000000 0.000000 0.000000
vn 1.000000 0.000000 0.000000
vn 1.000000 0.000000 0.000000
vn -1.000000 0.000000 0.000000
vn -1.000000 0.000000 0.000000
vn -1.000000 0.000000 0.000000
vn -1.000000 0.000000 0.000000
vn 0.000000 0.000000 1.000000
vn 0.000000 0.000000 1.000000
vn 0.000000 0.000000 1.000000
vn 0.000000 0.000000 1.000000
vn 0.000000 0.000000 1.000000
vn 0.000000 0.000000 1.000000
vn 0.000000 0.000000 1.000000
vn 0.000000 0.000000 1.000000
vn 0.000000 0.000000 1.000000
vn 0.000000 0.000000 -1.000000
vn 0.000000 0.000000 -1.000000
vn 0.000000 0.000000 -1.000000
vn 0.000000 0.000000 -1.000000
vn 0.000000 0.000000 -1.000000
vn 0.000000 0.000000 -1.000000
vn -1.000000 0.000000 0.000000
vn -1.000000 0.000000 0.000000
vn -1.000000 0.000000 0.000000
vn 1.000000 0.000000 0.000000
vn 1.000000 0.000000 0.000000
vn 1.000000 0.000000 0.000000
vn 1.000000 0.000000 0.000000
vn 1.000000 0.000000 0.000000
vn 1.000000 0.000000 0.000000
vn 1.000000 0.000000 0.000000
vn 1.000000 0.000000 0.000000
vn 1.000000 0.000000 0.000000
vn 0.000000 0.000000 -1.000000
vn 0.000000 0.000000 -1.000000
vn 0.000000 0.000000 -1.000000
vn -1.000000 0.000000 0.000000
vn -1.000000 0.000000 0.000000
vn -1.000000 0.000000 0.000000
vn -1.000000 0.000000 0.000000
vn -1.000000 0.000000 0.000000
vn -1.000000 0.000000 0.000000
vn 0.000000 -1.000000 0.000000
vn 0.000000 -1.000000 0.000000
vn 0.000000 -1.000000 0.000000
vn -0.408248 -0.816497 0.408248
vn -0.408248 -0.816497 0.408248
vn -0.408248 -0.816497 0.408248
vn -0.408248 -0.816497 0.408248
vn -0.707107 0.000000 0.707107
vn -0.707107 0.000000 0.707107
vn -0.707107 0.000000 0.707107
vn -0.707107 0.000000 0.707107
vn -0.707107 0.000000 -0.707107
vn -0.707107 0.000000 -0.707107
vn -0.707107 0.000000 -0.707107
vn -0.707107 0.000000 -0.707107
vn -0.408248 -0.816497 -0.408248
vn -0.408248 -0.816497 -0.408248
vn -0.408248 -0.816497 -0.408248
vn -0.408248 -0.816497 -0.408248
vn 0.707107 0.000000 0.707107
vn 0.707107 0.000000 0.707107
vn 0.707107 0.000000 0.707107
vn 0.707107 0.000000 0.707107
vn 0.408248 -0.816497 0.408248
vn 0.408248 -0.816497 0.408248
vn 0.408248 -0.816497 0.408248
vn 0.408248 -0.816497 0.408248
vn 0.408248 -0.816497 -0.408248
vn 0.408248 -0.816497 -0.408248
vn 0.408248 -0.816497 -0.408248
vn 0.408248 -0.816497 -0.408248
vn 0.707107 0.000000 -0.707107
vn 0.707107 0.000000 -0.707107
vn 0.707107 0.000000 -0.707107
vn 0.707107 0.000000 -0.707107
vn -0.707107 -0.707107 0.000000
vn -0.707107 -0.707107 0.000000
vn -0.707107 -0.707107 0.000000
vn -0.707107 -0.707107 0.000000
vn 0.000000 -0.707107 0.707107
vn 0.000000 -0.707107 0.707107
vn 0.000000 -0.707107 0.707107
vn 0.000000 -0.707107 0.707107
vn 0.707107 -0.707107 0.000000
vn 0.707107 -0.707107 0.000000
vn 0.707107 -0.707107 0.000000
vn 0.707107 -0.707107 0.000000
vn 0.000000 -0.707107 -0.707107
vn 0.000000 -0.707107 -0.707107
vn 0.000000 -0.707107 -0.707107
vn 0.000000 -0.707107 -0.707107
vn 0.000000 0.000000 1.000000
vn 0.000000 0.000000 1.000000
vn 0.000000 0.000000 1.000000
vn 0.000000 0.000000 1.000000
vn 0.000000 0.000000 -1.000000
vn 0.000000 0.000000 -1.000000
vn 0.000000 0.000000 -1.000000
vn 0.000000 0.000000 -1.000000
vn 1.000000 0.000000 0.000000
vn 1.000000 0.000000 0.000000
vn 1.000000 0.000000 0.000000
vn 1.000000 0.000000 0.000000
vn -1.000000 0.000000 0.000000
vn -1.000000 0.000000 0.000000
vn -1.000000 0.000000 0.000000
vn -1.000000 0.000000 0.000000
vn 0.000000 1.000000 -0.000000
vn 0.000000 1.000000 -0.000000
vn 0.000000 1.000000 -0.000000
vn 0.000000 1.000000 -0.000000
vn 0.000000 1.000000 0.000000
vn 0.000000 1.000000 0.000000
vn 0.000000 1.000000 0.000000
vn 0.000000 1.000000 0.000000
vn 0.000000 1.000000 0.000000
vn 0.000000 1.000000 0.000000
vn 0.000000 1.000000 0.000000
vn 0.000000 1.000000 0.000000
vn 0.000000 1.000000 0.000000
vn 0.000000 1.000000 0.000000
vn 0.000000 1.000000 -0.000001
vn 0.000000 1.000000 0.000001
vn 0.000000 1.000000 0.000000
vn 0.000000 1.000000 0.000001
vn 0.000000 1.000000 -0.000001
vn 0.000000 -1.000000 -0.000000
vn 0.000000 -1.000000 0.000000
vn 0.000000 -1.000000 -0.000000
vn 0.000000 -1.000000 -0.000001
vn 0.000000 -1.000000 -0.000001
s off
g Box
f 17/17/1 18/97/2 19/19/3
f 4/4/4 79/76/5 78/75/6
f 2/2/7 85/72/8 84/65/9
f 3/3/10 4/4/11 78/75/12 83/64/13
f 1/1/14 2/2/15 84/65/16 81/70/17
f 20/20/18 21/21/19 22/22/20
f 23/23/21 24/24/22 25/25/23
f 26/26/24 27/94/25 28/28/26
f 10/10/27 61/61/28 9/9/29
s 1
f 38/37/30 41/41/31 44/44/32
s off
f 2/118/33 61/61/34 10/10/35 13/13/36
f 1/116/37 5/5/38 15/15/39
f 4/114/40 11/11/41 16/16/42
f 2/118/43 7/7/44 3/117/45
f 9/9/46 15/119/47 18/120/48 17/86/49
f 15/15/50 5/5/51 19/92/52 18/18/53
f 16/16/54 11/11/55 21/90/56 20/96/57
f 6/6/58 16/16/59 20/96/60 22/93/61
f 13/13/62 10/10/63 24/87/64 23/95/65
f 7/7/66 13/13/67 23/95/68 25/88/69
f 12/12/70 14/14/71 27/27/72 26/91/73
f 14/14/74 8/8/75 28/89/76 27/27/77
f 5/5/78 6/6/79 22/93/80 19/92/81
f 11/11/82 12/12/83 26/91/84 21/90/85
f 8/8/86 7/7/87 25/88/88 28/89/89
f 10/10/90 9/9/91 17/86/92 24/87/93
f 17/17/94 19/19/95 29/113/96 30/106/97
f 19/19/98 22/22/99 31/112/100 29/113/101
f 22/22/102 21/21/103 32/111/104 31/112/105
f 21/21/106 26/26/107 33/110/108 32/111/109
f 26/26/110 28/28/111 34/109/112 33/110/113
f 28/28/114 25/25/115 35/108/116 34/109/117
f 25/25/118 24/24/119 36/107/120 35/108/121
f 24/24/122 17/17/123 30/106/124 36/107/125
f 46/45/126 45/46/127 47/47/128 48/48/129
f 45/46/130 49/49/131 50/50/132 47/47/133
f 49/49/134 51/51/135 52/52/136 50/50/137
f 51/51/138 53/53/139 54/54/140 52/52/141
f 53/53/142 55/55/143 56/56/144 54/54/145
f 55/55/146 57/57/147 58/58/148 56/56/149
f 57/57/150 59/59/151 60/60/152 58/58/153
f 59/59/154 46/45/155 48/48/156 60/60/157
f 30/29/158 29/30/159 45/46/160 46/45/161
f 37/105/162 38/98/163 48/48/164 47/47/165
f 29/30/166 31/31/167 49/49/168 45/46/169
f 39/39/170 37/105/171 47/47/172 50/50/173
f 31/31/174 32/32/175 51/51/176 49/49/177
f 40/103/178 39/39/179 50/50/180 52/52/181
f 32/32/182 33/33/183 53/53/184 51/51/185
f 41/102/186 40/103/187 52/52/188 54/54/189
f 33/33/190 34/34/191 55/55/192 53/53/193
f 42/101/194 41/102/195 54/54/196 56/56/197
f 34/34/198 35/35/199 57/57/200 55/55/201
f 43/43/202 42/101/203 56/56/204 58/58/205
f 35/35/206 36/36/207 59/59/208 57/57/209
f 44/99/210 43/43/211 58/58/212 60/60/213
f 36/36/214 30/29/215 46/45/216 59/59/217
f 38/98/218 44/99/219 60/60/220 48/48/221
f 1/116/222 6/6/223 5/5/224
f 6/6/225 4/114/226 16/16/227
f 1/116/228 4/114/229 6/6/230
f 13/13/231 7/7/232 2/118/233
f 3/117/234 8/8/235 14/14/236
f 9/9/237 1/115/238 15/119/239
f 4/114/240 3/117/241 12/12/242
f 12/12/243 3/117/244 14/14/245
f 4/114/246 12/12/247 11/11/248
f 3/117/249 7/7/250 8/8/251
f 2/118/252 1/115/253 9/9/254
f 2/118/255 9/9/256 61/61/257
s 2
f 62/66/258 72/62/259 73/126/260
s off
f 63/81/261 62/132/262 65/131/263 64/68/264
f 64/68/265 65/131/266 80/69/267 81/70/268
f 66/128/269 67/71/270 84/65/271 85/72/272
f 67/71/273 66/128/274 68/84/275 69/135/276
f 70/125/277 71/77/278 78/75/279 79/76/280
f 71/77/281 70/125/282 73/63/283 72/134/284
f 75/133/285 74/124/286 77/123/287 76/79/288
f 76/79/289 77/123/290 82/80/291 83/64/292
f 63/81/293 64/68/294 67/71/295 69/135/296
f 65/67/297 62/66/298 73/126/299 70/82/300
f 71/77/301 72/134/302 75/133/303 76/79/304
f 77/85/305 74/78/306 68/129/307 66/73/308
f 65/67/309 70/82/310 79/127/311 80/122/312
f 66/73/313 85/130/314 82/121/315 77/85/316
f 71/77/317 76/79/318 83/64/319 78/75/320
f 67/71/321 64/68/322 81/70/323 84/65/324
f 4/4/325 1/1/326 80/69/327 79/76/328
f 80/69/329 1/1/330 81/70/331
f 2/2/332 3/3/333 82/80/334 85/72/335
f 82/80/336 3/3/337 83/64/338
s 1
f 44/44/32 42/42/339 43/100/340
f 44/44/32 41/41/31 42/42/339
f 38/37/30 40/40/341 41/41/31
f 38/37/30 37/38/342 40/40/341
f 40/40/341 37/38/342 39/104/343
s 2
f 69/74/344 72/62/259 62/66/258 63/136/345
f 69/74/344 75/83/346 72/62/259
f 69/74/344 68/129/347 74/78/348 75/83/346
