# This file uses centimeters as units for non-parametric coordinates.

g default
v 0.102500 -0.500000 0.500000
v 0.102500 -0.500000 0.295000
v 0.500000 -0.500000 0.295000
v 0.500000 -0.500000 0.500000
v -0.500000 5.117789 -4.152855
v 0.500000 4.871829 -4.152855
v -0.102500 5.825673 -4.152855
v -0.500000 -0.500000 -0.500000
v -0.500000 -0.500000 -0.295000
v -0.500000 3.520534 -0.295000
v -0.500000 3.520534 -0.500000
v -0.102500 5.117789 -4.152855
v -0.102500 3.520534 -0.500000
v -0.102500 -0.500000 -0.500000
v -0.102500 -0.500000 -0.295000
v -0.102500 3.520534 -0.295000
v 0.500000 6.071633 -4.152855
v 0.500000 5.117789 -4.152855
v 0.102500 3.520534 -0.500000
v 0.102500 -0.500000 -0.500000
v 0.102500 4.871829 -4.152855
v -0.500000 4.871829 -4.152855
v -0.102500 4.871829 -4.152855
v 0.102500 5.825673 -4.152855
v -0.500000 6.071633 -4.152855
v 0.500000 3.520534 -0.500000
v 0.500000 -0.500000 -0.500000
v 0.102500 6.071633 -4.152855
v -0.500000 5.825673 -4.152855
v -0.500000 3.520533 0.295000
v -0.500000 -0.500000 0.295000
v -0.500000 -0.500000 0.500000
v -0.500000 3.520533 0.500000
v -0.102500 3.520533 0.295000
v -0.102500 -0.500000 0.295000
v 0.102500 5.117789 -4.152855
v 0.500000 3.520534 -0.295000
v 0.102500 3.520534 -0.295000
v 0.102500 -0.500000 -0.295000
v 0.500000 -0.500000 -0.295000
v 0.102500 3.520533 0.295000
v -0.500000 4.871829 -1.452390
v -0.500000 5.117789 -1.452389
v -0.102500 -0.500000 0.500000
v -0.102500 3.520533 0.500000
v 0.500000 5.825673 -4.152855
v 0.102500 3.520533 0.500000
v 0.500000 3.520533 0.295000
v 0.500000 3.520533 0.500000
v -0.500000 5.825673 -1.452389
v -0.500000 6.071633 -1.452389
v 0.500000 5.117789 -1.452389
v 0.500000 4.871829 -1.452390
v 0.102500 5.825673 -1.452389
v 0.102500 5.117789 -1.452389
v 0.102500 4.871829 -1.452390
v -0.102500 4.871829 -1.452390
v -0.500000 4.554154 -0.760876
v -0.500000 4.429358 -0.923514
v -0.102500 4.429358 -0.923514
v -0.102500 4.554154 -0.760876
v 0.102500 4.429358 -0.923514
v -0.102500 5.117789 -1.452389
v 0.500000 4.429358 -0.923514
v 0.500000 6.071633 -1.452389
v 0.500000 5.825673 -1.452389
v -0.102500 4.913323 -0.292798
v -0.102500 6.071633 -4.152855
v 0.500000 4.554154 -0.760876
v 0.102500 4.554154 -0.760876
v -0.500000 5.038119 -0.130159
v -0.500000 4.913323 -0.292798
v 0.102500 4.913323 -0.292798
v -0.102500 5.825673 -1.452389
v -0.102500 5.038119 -0.130159
v -0.102500 6.071633 -1.452389
v 0.102500 5.038119 -0.130159
v 0.500000 4.913323 -0.292798
v 0.102500 6.071633 -1.452389
v 0.500000 5.038119 -0.130159
v -0.102500 3.552846 -0.411562
v -0.102500 -0.565028 -0.411562
v 0.102500 3.552846 -0.411562
v 0.102500 -0.565028 -0.411562
v 0.102500 4.936857 -1.387010
v -0.102500 4.936857 -1.387010
v -0.102500 4.936857 -4.152855
v 0.102500 4.936857 -4.152855
v -0.102500 4.483674 -0.845329
v 0.102500 4.483674 -0.845329
vt 0.742613 0.260715
vt 0.742613 0.276711
vt 0.959025 0.711191
vt 0.951401 0.697448
vt 0.871728 0.716845
vt 0.871728 0.700791
vt 0.803006 0.711576
vt 0.816345 0.697919
vt 0.214813 0.292666
vt 0.214813 0.273564
vt 0.214813 0.030873
vt 0.214813 0.049976
vt 0.424489 0.030873
vt 0.757734 0.492895
vt 0.871728 0.465306
vt 0.871728 0.480828
vt 0.995461 0.479306
vt 0.987784 0.493278
vt 0.742613 0.031020
vt 0.742613 0.047016
vt 0.214813 0.080848
vt 0.214813 0.135825
vt 0.424489 0.080848
vt 0.800205 0.563228
vt 0.871728 0.511703
vt 0.871728 0.556718
vt 0.984304 0.524050
vt 0.961352 0.563918
vt 0.742613 0.078034
vt 0.742613 0.124073
vt 0.987885 0.812843
vt 0.742613 0.384778
vt 0.742613 0.400773
vt 0.995440 0.827034
vt 0.871728 0.839370
vt 0.871728 0.823977
vt 0.744802 0.827000
vt 0.424593 0.409387
vt 0.214813 0.428489
vt 0.214813 0.409387
vt 0.984537 0.781800
vt 0.961597 0.741595
vt 0.742613 0.307727
vt 0.742613 0.353763
vt 0.871728 0.793242
vt 0.871728 0.748548
vt 0.424593 0.378515
vt 0.800220 0.742259
vt 0.214813 0.378515
vt 0.214813 0.323538
vt 0.958801 0.594232
vt 0.742613 0.155091
vt 0.742613 0.171088
vt 0.951218 0.607928
vt 0.871728 0.604645
vt 0.871728 0.588536
vt 0.816356 0.607559
vt 0.803008 0.593955
vt 0.214813 0.166696
vt 0.214813 0.185799
vt 0.742613 0.229698
vt 0.950432 0.667438
vt 0.950985 0.660360
vt 0.742613 0.222973
vt 0.871728 0.668428
vt 0.871728 0.660939
vt 0.424593 0.242692
vt 0.818068 0.660509
vt 0.214813 0.242692
vt 0.214813 0.237642
vt 0.429604 0.202106
vt 0.742613 0.202106
vt 0.742613 0.208554
vt 0.950947 0.644922
vt 0.871728 0.637093
vt 0.871728 0.644579
vt 0.817299 0.637948
vt 0.818030 0.644902
vt 0.214813 0.216670
vt 0.214813 0.221721
vt 0.214813 0.459361
vt 0.424593 0.459361
vt 0.214813 0.475282
vt 0.871728 0.870094
vt 0.741139 0.448192
vt 0.871728 0.434414
vt 0.742613 0.431788
vt 0.998500 0.858089
vt 0.742613 0.447784
vt 0.998859 0.448552
vt 0.871728 0.886087
vt 0.740380 0.874146
vt 0.214813 0.000002
vt 0.429604 0.447784
vt 0.742613 0.000002
vt 0.429617 0.221721
vt 0.429617 0.237642
vt 0.817343 0.667476
vt 0.424489 0.216670
vt 0.744490 0.479079
vt 0.424593 0.475282
vt 0.424489 0.000002
vt 0.424489 0.049976
vt 0.761212 0.523787
vt 0.741859 0.858082
vt 0.424593 0.428489
vt 0.757915 0.812958
vt 0.761244 0.781890
vt 0.424593 0.323538
vt 0.424489 0.135825
vt 0.424489 0.166696
vt 0.424593 0.292666
vt 0.424489 0.185799
vt 0.424593 0.273564
vt 0.429604 0.222973
vt 0.429604 0.208554
vt 0.950375 0.637923
vt 0.429604 0.229698
vt 0.429604 0.047016
vt 0.429604 0.031020
vt 0.429604 0.000002
vt 0.999998 0.874100
vt 0.429604 0.078034
vt 0.429604 0.431788
vt 0.429604 0.400773
vt 0.429604 0.171088
vt 0.429604 0.155091
vt 0.429604 0.124073
vt 0.429604 0.384778
vt 0.429604 0.353763
vt 0.429604 0.307727
vt 0.429604 0.276711
vt 0.429604 0.260715
vn -1.000000 0.000000 0.000000
vn -1.000000 0.000000 0.000000
vn -1.000000 0.000000 0.000000
vn -1.000000 0.000000 0.000000
vn 0.000000 0.000000 -1.000000
vn 0.000000 0.000000 -1.000000
vn 0.000000 0.000000 -1.000000
vn 0.000000 0.000000 -1.000000
vn 0.000000 -0.000000 1.000000
vn 0.000000 -0.000000 1.000000
vn 0.000000 -0.000000 1.000000
vn 0.000000 -0.000000 1.000000
vn 0.000000 0.000000 -1.000000
vn 0.000000 0.000000 -1.000000
vn 0.000000 0.000000 -1.000000
vn 0.000000 0.000000 -1.000000
vn 0.000000 0.000000 -1.000000
vn 0.000000 0.000000 -1.000000
vn 0.000000 0.000000 -1.000000
vn 0.000000 0.000000 -1.000000
vn -1.000000 0.000000 0.000000
vn -1.000000 0.000000 0.000000
vn -1.000000 0.000000 0.000000
vn -1.000000 0.000000 0.000000
vn -1.000000 -0.000000 0.000000
vn -1.000000 -0.000000 0.000000
vn -1.000000 -0.000000 0.000000
vn -1.000000 -0.000000 0.000000
vn 0.000000 0.000000 -1.000000
vn 0.000000 0.000000 -1.000000
vn 0.000000 0.000000 -1.000000
vn 0.000000 0.000000 -1.000000
vn 0.000000 0.000000 1.000000
vn 0.000000 0.000000 1.000000
vn 0.000000 0.000000 1.000000
vn 0.000000 0.000000 1.000000
vn 1.000000 0.000000 0.000000
vn 1.000000 0.000000 0.000000
vn 1.000000 0.000000 0.000000
vn 1.000000 0.000000 0.000000
vn 1.000000 0.000000 0.000000
vn 1.000000 0.000000 0.000000
vn 1.000000 0.000000 0.000000
vn 1.000000 0.000000 0.000000
vn -1.000000 0.000000 -0.000000
vn -1.000000 0.000000 -0.000000
vn -1.000000 0.000000 -0.000000
vn -1.000000 0.000000 -0.000000
vn 0.000000 0.000000 1.000000
vn 0.000000 0.000000 1.000000
vn 0.000000 0.000000 1.000000
vn 0.000000 0.000000 1.000000
vn 0.000000 0.000000 1.000000
vn 0.000000 0.000000 1.000000
vn 0.000000 0.000000 -1.000000
vn 0.000000 0.000000 -1.000000
vn 0.000000 0.000000 -1.000000
vn 0.000000 0.000000 -1.000000
vn 0.000000 0.000000 1.000000
vn 0.000000 0.000000 1.000000
vn 1.000000 0.000000 0.000000
vn 1.000000 0.000000 0.000000
vn 1.000000 0.000000 0.000000
vn 1.000000 0.000000 0.000000
vn -1.000000 0.000000 -0.000000
vn -1.000000 0.000000 -0.000000
vn -1.000000 0.000000 -0.000000
vn -1.000000 0.000000 -0.000000
vn 1.000000 0.000000 0.000000
vn 1.000000 0.000000 0.000000
vn 1.000000 0.000000 0.000000
vn 1.000000 0.000000 0.000000
vn 1.000000 0.000000 0.000000
vn 1.000000 0.000000 0.000000
vn 1.000000 0.000000 0.000000
vn 1.000000 0.000000 0.000000
vn 0.000000 -1.000000 0.000000
vn 0.000000 -1.000000 0.000000
vn 0.000000 -1.000000 0.000000
vn 0.000000 -1.000000 0.000000
vn 0.000000 -1.000000 -0.000000
vn 0.000000 -1.000000 -0.000000
vn 0.000000 -1.000000 -0.000000
vn 0.000000 -1.000000 -0.000000
vn -1.000000 -0.000000 0.000000
vn -1.000000 -0.000000 0.000000
vn -1.000000 -0.000000 0.000000
vn -1.000000 -0.000000 0.000000
vn 0.000000 -0.422391 -0.906414
vn 0.000000 -0.422391 -0.906414
vn 0.000000 -0.422391 -0.906414
vn 0.000000 -0.422391 -0.906414
vn -1.000000 -0.000000 0.000000
vn -1.000000 -0.000000 0.000000
vn -1.000000 -0.000000 0.000000
vn -1.000000 -0.000000 0.000000
vn 0.000000 -0.766979 -0.641673
vn 0.000000 -0.766979 -0.641673
vn 0.000000 -0.766979 -0.641673
vn 0.000000 -0.766979 -0.641673
vn 0.000000 0.410912 0.911675
vn 0.000000 0.410912 0.911675
vn 0.000000 0.410912 0.911675
vn 0.000000 0.410912 0.911675
vn 0.000000 -1.000000 0.000000
vn 0.000000 -1.000000 0.000000
vn 0.000000 -1.000000 0.000000
vn 0.000000 -1.000000 0.000000
vn 0.000000 -0.422391 -0.906414
vn 0.000000 -0.422391 -0.906414
vn 0.000000 -0.422391 -0.906414
vn 0.000000 -0.422391 -0.906414
vn 0.000000 1.000000 -0.000000
vn 0.000000 1.000000 -0.000000
vn 0.000000 1.000000 -0.000000
vn 0.000000 1.000000 -0.000000
vn 0.000000 0.775137 0.631793
vn 0.000000 0.775137 0.631793
vn 0.000000 0.775137 0.631793
vn 0.000000 0.775137 0.631793
vn 0.000000 -0.766979 -0.641673
vn 0.000000 -0.766979 -0.641673
vn 0.000000 -0.766979 -0.641673
vn 0.000000 -0.766979 -0.641673
vn 0.000000 -0.422390 -0.906414
vn 0.000000 -0.422390 -0.906414
vn 0.000000 -0.422390 -0.906414
vn 0.000000 -0.422390 -0.906414
vn 0.000000 1.000000 0.000000
vn 0.000000 1.000000 0.000000
vn 0.000000 1.000000 0.000000
vn 0.000000 1.000000 0.000000
vn 1.000000 0.000000 0.000000
vn 1.000000 0.000000 0.000000
vn 1.000000 0.000000 0.000000
vn 1.000000 0.000000 0.000000
vn -1.000000 -0.000000 0.000000
vn -1.000000 -0.000000 0.000000
vn -1.000000 -0.000000 0.000000
vn -1.000000 -0.000000 0.000000
vn 0.000000 -0.766979 -0.641673
vn 0.000000 -0.766979 -0.641673
vn 0.000000 -0.766979 -0.641673
vn 0.000000 -0.766979 -0.641673
vn 0.000000 0.410912 0.911675
vn 0.000000 0.410912 0.911675
vn 0.000000 0.410912 0.911675
vn 0.000000 0.410912 0.911675
vn -1.000000 -0.000000 0.000000
vn -1.000000 -0.000000 0.000000
vn -1.000000 -0.000000 0.000000
vn -1.000000 -0.000000 0.000000
vn 1.000000 0.000000 -0.000000
vn 1.000000 0.000000 -0.000000
vn 1.000000 0.000000 -0.000000
vn 1.000000 0.000000 -0.000000
vn 0.000000 -0.388821 -0.921313
vn 0.000000 -0.388821 -0.921314
vn 0.000000 -0.388821 -0.921313
vn 0.000000 -0.388821 -0.921314
vn 1.000000 0.000000 -0.000000
vn 1.000000 0.000000 -0.000000
vn 1.000000 0.000000 -0.000000
vn 1.000000 0.000000 -0.000000
vn -1.000000 0.000000 0.000000
vn -1.000000 0.000000 0.000000
vn -1.000000 0.000000 0.000000
vn -1.000000 0.000000 0.000000
vn 0.000000 0.775137 0.631793
vn 0.000000 0.775137 0.631793
vn 0.000000 0.775137 0.631793
vn 0.000000 0.775137 0.631793
vn 1.000000 0.000000 0.000000
vn 1.000000 0.000000 0.000000
vn 1.000000 0.000000 0.000000
vn 1.000000 0.000000 0.000000
vn -1.000000 0.000000 0.000000
vn -1.000000 0.000000 0.000000
vn -1.000000 0.000000 0.000000
vn -1.000000 0.000000 0.000000
vn 0.000000 0.383491 0.923545
vn 0.000000 0.383491 0.923545
vn 0.000000 0.383491 0.923545
vn 0.000000 0.383491 0.923545
vn 0.000000 -0.785910 -0.618342
vn 0.000000 -0.785910 -0.618342
vn 0.000000 -0.785910 -0.618342
vn 0.000000 -0.785910 -0.618342
vn 1.000000 0.000000 0.000000
vn 1.000000 0.000000 0.000000
vn 1.000000 0.000000 0.000000
vn 1.000000 0.000000 0.000000
vn 0.000000 0.787873 0.615838
vn 0.000000 0.787873 0.615838
vn 0.000000 0.787873 0.615838
vn 0.000000 0.787873 0.615838
vn 0.000000 0.383491 0.923545
vn 0.000000 0.383491 0.923545
vn 0.000000 0.383491 0.923545
vn 0.000000 0.383491 0.923545
vn 0.000000 -0.388821 -0.921313
vn 0.000000 -0.388821 -0.921313
vn 0.000000 -0.388821 -0.921313
vn 0.000000 -0.388821 -0.921313
vn 0.000000 1.000000 0.000000
vn 0.000000 1.000000 -0.000000
vn 0.000000 1.000000 -0.000000
vn 0.000000 1.000000 0.000000
vn 0.000000 -1.000000 0.000000
vn 0.000000 -1.000000 0.000000
vn 0.000000 -1.000000 0.000000
vn 0.000000 -1.000000 0.000000
vn -1.000000 0.000000 -0.000000
vn -1.000000 0.000000 -0.000000
vn -1.000000 0.000000 -0.000000
vn -1.000000 0.000000 -0.000000
vn 0.000000 0.787873 0.615837
vn 0.000000 0.787873 0.615837
vn 0.000000 0.787873 0.615837
vn 0.000000 0.787873 0.615837
vn 0.000000 0.383491 0.923545
vn 0.000000 0.383491 0.923545
vn 0.000000 0.383491 0.923545
vn 0.000000 0.383491 0.923545
vn 0.000000 -0.785909 -0.618342
vn 0.000000 -0.785909 -0.618342
vn 0.000000 -0.785909 -0.618342
vn 0.000000 -0.785909 -0.618342
vn 1.000000 0.000000 -0.000000
vn 1.000000 0.000000 -0.000000
vn 1.000000 0.000000 -0.000000
vn 1.000000 0.000000 -0.000000
vn 0.000000 -1.000000 -0.000000
vn 0.000000 -1.000000 -0.000000
vn 0.000000 -1.000000 -0.000000
vn 0.000000 -1.000000 -0.000000
vn 0.000000 0.787873 0.615838
vn 0.000000 0.787873 0.615838
vn 0.000000 0.787873 0.615838
vn 0.000000 0.787873 0.615838
vn 0.000000 1.000000 -0.000000
vn 0.000000 1.000000 -0.000000
vn 1.000000 -0.000000 0.000000
vn 1.000000 -0.000000 0.000000
vn 1.000000 -0.000000 0.000000
vn 1.000000 -0.000000 0.000000
vn 0.000000 1.000000 0.000000
vn 0.000000 1.000000 0.000000
vn 1.000000 0.000000 0.000000
vn 1.000000 0.000000 0.000000
vn 1.000000 0.000000 0.000000
vn 1.000000 0.000000 0.000000
vn -1.000000 0.000000 0.000000
vn -1.000000 0.000000 0.000000
vn -1.000000 0.000000 0.000000
vn -1.000000 0.000000 0.000000
vn 0.000000 0.805652 0.592389
vn 0.000000 0.805652 0.592389
vn 0.000000 0.805652 0.592389
vn 0.000000 0.805652 0.592389
vn 1.000000 0.000000 0.000000
vn 1.000000 0.000000 0.000000
vn 1.000000 0.000000 0.000000
vn 1.000000 0.000000 0.000000
vn -1.000000 0.000000 -0.000000
vn -1.000000 0.000000 -0.000000
vn -1.000000 0.000000 -0.000000
vn -1.000000 0.000000 -0.000000
vn 1.000000 0.000000 -0.000000
vn 1.000000 0.000000 -0.000000
vn 1.000000 0.000000 -0.000000
vn 1.000000 0.000000 -0.000000
vn -1.000000 -0.000000 0.000000
vn -1.000000 -0.000000 0.000000
vn -1.000000 -0.000000 0.000000
vn -1.000000 -0.000000 0.000000
vn 1.000000 0.000000 0.000000
vn 1.000000 0.000000 0.000000
vn 1.000000 0.000000 0.000000
vn 1.000000 0.000000 0.000000
vn -1.000000 -0.000000 0.000000
vn -1.000000 -0.000000 0.000000
vn -1.000000 -0.000000 0.000000
vn -1.000000 -0.000000 0.000000
s off
g MetalBeam
f 8/1/1 9/2/2 10/132/3 11/133/4
f 11/133/5 13/118/6 14/61/7 8/1/8
f 9/2/9 15/43/10 16/131/11 10/132/12
f 82/64/13 81/115/14 83/116/15 84/73/16
f 20/72/17 19/71/18 26/126/19 27/53/20
f 30/129/21 31/32/22 32/33/23 33/125/24
f 34/130/25 16/131/26 15/43/27 35/44/28
f 35/44/29 31/32/30 30/129/31 34/130/32
f 37/127/33 38/128/34 39/30/35 40/52/36
f 38/128/37 41/123/38 2/29/39 39/30/40
f 37/127/41 40/52/42 27/53/43 26/126/44
f 42/114/45 43/112/46 5/9/47 22/10/48
s 1
f 32/33/49 44/87/50 45/124/51 33/125/52
f 45/124/51 44/87/50 1/89/53 47/94/54
s off
f 41/123/55 48/119/56 3/20/57 2/29/58
s 1
f 47/121/54 1/95/53 4/19/59 49/120/60
s off
f 4/19/61 3/20/62 48/119/63 49/120/64
f 50/38/65 51/106/66 25/39/67 29/40/68
f 18/59/69 52/111/70 53/113/71 6/60/72
f 24/21/73 54/23/74 55/110/75 36/22/76
f 85/96/77 86/97/78 87/70/79 88/80/80
f 57/67/81 42/114/82 22/10/83 23/69/84
f 11/4/85 10/3/86 58/5/87 59/6/88
f 13/62/89 11/4/90 59/6/91 60/65/92
f 59/6/93 58/5/94 43/7/95 42/8/96
f 60/65/97 59/6/98 42/8/99 57/98/100
f 10/3/101 16/42/102 61/46/103 58/5/104
f 53/113/105 56/99/106 21/79/107 6/60/108
f 83/74/109 81/63/110 89/66/111 90/76/112
f 43/112/113 63/109/114 12/50/115 5/9/116
f 58/5/117 61/46/118 63/48/119 43/7/120
f 90/76/121 89/66/122 86/68/123 85/78/124
f 26/54/125 19/117/126 62/75/127 64/55/128
f 55/110/129 52/111/130 18/59/131 36/22/132
f 17/11/133 65/13/134 66/103/135 46/12/136
f 16/42/137 34/41/138 67/45/139 61/46/140
f 64/55/141 62/75/142 56/77/143 53/57/144
f 38/28/145 37/51/146 69/56/147 70/26/148
f 30/31/149 33/34/150 71/35/151 72/36/152
f 37/51/153 26/54/154 64/55/155 69/56/156
f 34/41/157 30/31/158 72/36/159 67/45/160
f 41/27/161 38/28/162 70/26/163 73/25/164
f 61/46/165 67/45/166 74/108/167 63/48/168
f 70/26/169 69/56/170 52/58/171 55/24/172
f 69/56/173 64/55/174 53/57/175 52/58/176
f 72/36/177 71/35/178 51/37/179 50/107/180
f 33/34/181 45/88/182 75/84/183 71/35/184
f 67/45/185 72/36/186 50/107/187 74/108/188
f 73/25/189 70/26/190 55/24/191 54/104/192
f 71/35/193 75/84/194 76/105/195 51/37/196
f 45/88/197 47/122/198 77/91/199 75/84/200
f 48/18/201 41/27/202 73/25/203 78/16/204
s 2
f 76/82/205 79/101/206 28/83/207 68/81/208
s off
f 54/23/209 24/21/210 46/12/211 66/103/212
f 63/109/213 74/47/214 7/49/215 12/50/216
f 75/84/217 77/91/218 79/92/219 76/105/220
f 47/90/221 49/17/222 80/15/223 77/86/224
f 78/16/225 73/25/226 54/104/227 66/14/228
f 49/17/229 48/18/230 78/16/231 80/15/232
f 74/47/233 50/38/234 29/40/235 7/49/236
f 77/86/237 80/15/238 65/100/239 79/85/240
s 2
f 79/102/206 65/13/241 17/11/242 28/93/207
s off
f 80/15/243 78/16/244 66/14/245 65/100/246
s 2
f 51/106/247 76/82/205 68/81/208 25/39/248
s off
f 14/61/249 13/118/250 81/115/251 82/64/252
f 19/71/253 20/72/254 84/73/255 83/116/256
f 20/72/257 14/61/258 82/64/259 84/73/260
f 57/67/261 23/69/262 87/70/263 86/97/264
f 21/79/265 56/99/266 85/96/267 88/80/268
f 13/62/269 60/65/270 89/66/271 81/63/272
f 62/75/273 19/117/274 83/74/275 90/76/276
f 60/65/277 57/98/278 86/68/279 89/66/280
f 56/77/281 62/75/282 90/76/283 85/78/284
