# This file uses centimeters as units for non-parametric coordinates.

g default
v 0.359317 -1.528657 -0.353553
v 0.006912 -1.500186 -0.500000
v -0.345493 -1.471715 -0.353553
v -0.491464 -1.459922 0.000000
v -0.345493 -1.471715 0.353553
v 0.006912 -1.500186 0.500000
v 0.359317 -1.528657 0.353553
v 0.505288 -1.540450 0.000000
v 1.985394 0.097434 -0.353553
v 1.956920 0.449839 -0.500000
v 1.928446 0.802244 -0.353553
v 1.916651 0.948214 0.000000
v 1.928446 0.802244 0.353553
v 1.956920 0.449839 0.500000
v 1.985394 0.097434 0.353553
v 1.997188 -0.048537 0.000000
v 0.500699 -1.623865 0.000000
v 0.354315 -1.619575 -0.353553
v 0.354315 -1.619575 0.353553
v 0.000914 -1.609216 0.500000
v -0.352488 -1.598857 0.353553
v -0.498872 -1.594566 0.000000
v -0.352488 -1.598857 -0.353553
v 0.000914 -1.609216 -0.500000
v 2.076312 0.102436 -0.353553
v 2.065949 0.455838 -0.500000
v 2.055587 0.809239 -0.353553
v 2.051295 0.955623 0.000000
v 2.055587 0.809239 0.353553
v 2.065949 0.455838 0.500000
v 2.076312 0.102436 0.353553
v 2.080604 -0.043947 0.000000
v 0.601211 -1.548199 -0.000000
v 0.427145 -1.534136 -0.421602
v 0.596893 -1.626685 -0.000000
v 0.422335 -1.621568 -0.421602
v 0.427145 -1.534136 0.421602
v 0.422335 -1.621568 0.421602
v 0.006912 -1.500186 0.596235
v 0.000914 -1.609216 0.596235
v -0.413321 -1.466235 0.421602
v -0.420507 -1.596863 0.421602
v -0.587387 -1.452172 -0.000000
v -0.595066 -1.591746 -0.000000
v -0.413321 -1.466235 -0.421602
v -0.420507 -1.596863 -0.421602
v 0.006912 -1.500186 -0.596235
v 0.000914 -1.609216 -0.596235
v 1.990874 0.029606 -0.421602
v 1.956920 0.449839 -0.596235
v 2.065949 0.455838 -0.596235
v 2.078306 0.034417 -0.421602
v 1.922965 0.870071 -0.421602
v 2.053593 0.877259 -0.421602
v 1.908901 1.044137 -0.000000
v 2.048475 1.051817 -0.000000
v 1.922965 0.870071 0.421602
v 2.053593 0.877259 0.421602
v 1.956920 0.449839 0.596235
v 2.065949 0.455838 0.596235
v 1.990874 0.029606 0.421602
v 2.078306 0.034417 0.421602
v 2.004938 -0.144460 -0.000000
v 2.083424 -0.140141 -0.000000
v 0.500000 -1.671584 0.000000
v 0.353553 -1.671584 -0.353553
v 0.353553 -1.671584 0.353553
v 0.000000 -1.671584 0.500000
v -0.353553 -1.671584 0.353553
v -0.500000 -1.671584 0.000000
v -0.353553 -1.671584 -0.353553
v 0.000000 -1.671584 -0.500000
v 2.128320 0.103199 -0.353553
v 2.128318 0.456752 -0.500000
v 2.128317 0.810305 -0.353553
v 2.128316 0.956752 0.000000
v 2.128317 0.810305 0.353553
v 2.128318 0.456752 0.500000
v 2.128320 0.103199 0.353553
v 2.128320 -0.043248 0.000000
v 0.441177 -1.120807 -0.353553
v 0.580393 -1.166254 0.000000
v 0.441177 -1.120807 0.353553
v 0.105079 -1.011088 0.500000
v -0.231019 -0.901369 0.353553
v -0.370235 -0.855922 0.000000
v -0.231019 -0.901369 -0.353553
v 0.105079 -1.011088 -0.500000
v 0.615723 -0.743216 -0.353553
v 0.740537 -0.819820 0.000000
v 0.615723 -0.743216 0.353553
v 0.314397 -0.558277 0.500000
v 0.013070 -0.373338 0.353553
v -0.111743 -0.296734 0.000000
v 0.013070 -0.373338 -0.353553
v 0.314397 -0.558277 -0.500000
v 0.873368 -0.416626 -0.353553
v 0.976921 -0.520179 0.000000
v 0.873368 -0.416626 0.353553
v 0.623367 -0.166627 0.500000
v 0.373366 0.083372 0.353553
v 0.269812 0.186925 0.000000
v 0.373366 0.083372 -0.353553
v 0.623367 -0.166627 -0.500000
v 1.199955 -0.158979 -0.353553
v 1.276560 -0.283792 0.000000
v 1.199955 -0.158979 0.353553
v 1.015014 0.142346 0.500000
v 0.830072 0.443671 0.353553
v 0.753467 0.568484 0.000000
v 0.830072 0.443671 -0.353553
v 1.015014 0.142346 -0.500000
v 1.577545 0.015571 -0.353553
v 1.622993 -0.123645 0.000000
v 1.577545 0.015571 0.353553
v 1.467824 0.351668 0.500000
v 1.358102 0.687765 0.353553
v 1.312654 0.826981 0.000000
v 1.358102 0.687765 -0.353553
v 1.467824 0.351668 -0.500000
vt 0.386644 0.999998
vt 0.482848 0.999998
vt 0.579048 0.999998
vt 0.675453 0.999998
vt 0.773287 0.999998
vt 0.097836 0.999998
vt 0.194241 0.999998
vt 0.290440 0.999998
vt 0.352303 0.000009
vt 0.440378 0.000008
vt 0.528453 0.000006
vt 0.616528 0.000004
vt 0.704603 0.000002
vt 0.088077 0.000015
vt 0.176152 0.000013
vt 0.264227 0.000011
vt 0.352317 0.690464
vt 0.440392 0.690462
vt 0.528468 0.690460
vt 0.616543 0.690458
vt 0.704618 0.690457
vt 0.088092 0.690469
vt 0.176167 0.690468
vt 0.264242 0.690466
vt 0.194241 0.931810
vt 0.097836 0.931810
vt 0.773288 0.931810
vt 0.675453 0.931810
vt 0.579051 0.931810
vt 0.482851 0.931810
vt 0.386646 0.931810
vt 0.290441 0.931810
vt 0.696249 0.865321
vt 0.623821 0.931805
vt 0.525594 0.927603
vt 0.459109 0.855174
vt 0.463312 0.756947
vt 0.535741 0.690462
vt 0.633968 0.694665
vt 0.700452 0.767094
vt 0.623821 0.931805
vt 0.525594 0.927603
vt 0.459109 0.855174
vt 0.463312 0.756947
vt 0.535741 0.690462
vt 0.633967 0.694665
vt 0.700452 0.767094
vt 0.696250 0.865321
vt 0.386644 0.979236
vt 0.290440 0.979236
vt 0.290440 0.952571
vt 0.386644 0.952571
vt 0.194241 0.979236
vt 0.194241 0.952571
vt 0.097836 0.979236
vt 0.097836 0.952571
vt 0.773287 0.979236
vt 0.773287 0.952571
vt 0.675453 0.979236
vt 0.675453 0.952571
vt 0.579048 0.979236
vt 0.579048 0.952571
vt 0.482848 0.979236
vt 0.482848 0.952571
vt 0.386646 0.952541
vt 0.482851 0.952541
vt 0.482851 0.979268
vt 0.386646 0.979268
vt 0.579051 0.952541
vt 0.579051 0.979268
vt 0.675453 0.952541
vt 0.675453 0.979268
vt 0.000001 0.952541
vt 0.000001 0.979268
vt 0.097836 0.952541
vt 0.097836 0.979268
vt 0.194241 0.952541
vt 0.194241 0.979268
vt 0.290441 0.952541
vt 0.290441 0.979268
vt 0.686098 0.855169
vt 0.623820 0.917449
vt 0.535745 0.917451
vt 0.473466 0.855174
vt 0.473464 0.767098
vt 0.535741 0.704819
vt 0.623816 0.704817
vt 0.686096 0.767094
vt 0.623820 0.917449
vt 0.535745 0.917451
vt 0.473466 0.855174
vt 0.473464 0.767098
vt 0.535741 0.704819
vt 0.623816 0.704817
vt 0.686096 0.767094
vt 0.686098 0.855169
vt 0.352305 0.115085
vt 0.264230 0.115087
vt 0.176155 0.115089
vt 0.088080 0.115091
vt 0.704606 0.115078
vt 0.616531 0.115080
vt 0.528455 0.115082
vt 0.440380 0.115084
vt 0.352307 0.230161
vt 0.264232 0.230163
vt 0.176157 0.230165
vt 0.088082 0.230167
vt 0.704608 0.230154
vt 0.616533 0.230155
vt 0.528458 0.230157
vt 0.440383 0.230159
vt 0.352310 0.345237
vt 0.264235 0.345239
vt 0.176160 0.345241
vt 0.088084 0.345242
vt 0.704611 0.345229
vt 0.616535 0.345231
vt 0.528460 0.345233
vt 0.440385 0.345235
vt 0.352312 0.460312
vt 0.264237 0.460314
vt 0.176162 0.460316
vt 0.088087 0.460318
vt 0.704613 0.460305
vt 0.616538 0.460307
vt 0.528463 0.460309
vt 0.440388 0.460311
vt 0.352315 0.575388
vt 0.264240 0.575390
vt 0.176164 0.575392
vt 0.088089 0.575394
vt 0.704615 0.575381
vt 0.616540 0.575383
vt 0.528465 0.575384
vt 0.440390 0.575386
vt 0.000014 0.575396
vt 0.000016 0.690471
vt 0.000012 0.460320
vt 0.000009 0.345244
vt 0.000007 0.230169
vt 0.000004 0.115093
vt 0.000002 0.000017
vt 0.000001 0.931810
vt 0.773288 0.952541
vt 0.773288 0.979268
vt 0.000002 0.979236
vt 0.000002 0.952571
vt 0.000002 0.999998
vt 0.290441 0.999997
vt 0.386646 0.999997
vt 0.000001 0.999997
vt 0.773288 0.999997
vt 0.675453 0.999997
vt 0.579051 0.999997
vt 0.482851 0.999997
vt 0.386644 0.931809
vt 0.482848 0.931809
vt 0.579048 0.931809
vt 0.675453 0.931809
vt 0.773287 0.931809
vt 0.000002 0.931809
vt 0.290440 0.931809
vt 0.097836 0.999997
vt 0.194241 0.999997
vt 0.097836 0.931809
vt 0.194241 0.931809
vt 0.696247 0.756943
vt 0.623816 0.690461
vt 0.525590 0.694667
vt 0.459108 0.767099
vt 0.463314 0.865325
vt 0.535746 0.931807
vt 0.700454 0.855169
vt 0.633972 0.927600
vt 0.700454 0.855169
vt 0.696247 0.756942
vt 0.623816 0.690461
vt 0.525589 0.694667
vt 0.459107 0.767099
vt 0.463314 0.865325
vt 0.535746 0.931807
vt 0.633972 0.927600
vn 0.377419 -0.075752 -0.922939
vn 0.377419 -0.075752 -0.922939
vn 0.363790 -0.118759 -0.923880
vn 0.363790 -0.118759 -0.923880
vn -0.377419 0.075752 -0.922939
vn -0.377419 0.075752 -0.922939
vn -0.363790 0.118759 -0.923880
vn -0.363790 0.118759 -0.923880
vn -0.906727 0.181989 -0.380429
vn -0.906727 0.181989 -0.380429
vn -0.878266 0.286709 -0.382683
vn -0.878266 0.286709 -0.382683
vn -0.906727 0.181989 0.380429
vn -0.906727 0.181989 0.380429
vn -0.878266 0.286709 0.382683
vn -0.878266 0.286709 0.382683
vn -0.377420 0.075752 0.922939
vn -0.377420 0.075752 0.922939
vn -0.363790 0.118759 0.923880
vn -0.363790 0.118759 0.923880
vn 0.377419 -0.075752 0.922939
vn 0.377419 -0.075752 0.922939
vn 0.363790 -0.118759 0.923880
vn 0.363790 -0.118759 0.923880
vn 0.906727 -0.181989 0.380429
vn 0.906727 -0.181989 0.380429
vn 0.878266 -0.286709 0.382683
vn 0.878266 -0.286709 0.382683
vn 0.906727 -0.181990 -0.380429
vn 0.906727 -0.181990 -0.380429
vn 0.878266 -0.286709 -0.382683
vn 0.878266 -0.286709 -0.382683
vn 0.000000 -1.000000 0.000000
vn 0.000000 -1.000000 -0.000000
vn 0.000000 -1.000000 -0.000000
vn 0.000000 -1.000000 0.000000
vn 1.000000 0.000004 0.000000
vn 1.000000 0.000004 -0.000000
vn 1.000000 0.000004 -0.000000
vn 1.000000 0.000004 0.000000
vn 0.922529 -0.050753 -0.382576
vn 0.922529 -0.050753 -0.382576
vn 0.922529 -0.050753 -0.382576
vn 0.922529 -0.050753 -0.382576
vn 0.922529 -0.050753 0.382576
vn 0.922529 -0.050753 0.382576
vn 0.922529 -0.050753 0.382576
vn 0.922529 -0.050753 0.382576
vn 0.382213 -0.021027 0.923835
vn 0.382213 -0.021027 0.923835
vn 0.382213 -0.021027 0.923835
vn 0.382213 -0.021027 0.923835
vn -0.382213 0.021027 0.923835
vn -0.382213 0.021027 0.923835
vn -0.382213 0.021027 0.923835
vn -0.382213 0.021027 0.923835
vn -0.922529 0.050753 0.382576
vn -0.922529 0.050753 0.382576
vn -0.922529 0.050753 0.382576
vn -0.922529 0.050753 0.382576
vn -0.922529 0.050753 -0.382576
vn -0.922529 0.050753 -0.382576
vn -0.922529 0.050753 -0.382576
vn -0.922529 0.050753 -0.382576
vn -0.382213 0.021027 -0.923835
vn -0.382213 0.021027 -0.923835
vn -0.382213 0.021027 -0.923835
vn -0.382213 0.021027 -0.923835
vn 0.382213 -0.021027 -0.923835
vn 0.382213 -0.021027 -0.923835
vn 0.382213 -0.021027 -0.923835
vn 0.382213 -0.021027 -0.923835
vn 0.021031 -0.382214 -0.923835
vn 0.021031 -0.382214 -0.923835
vn 0.021031 -0.382214 -0.923835
vn 0.021031 -0.382214 -0.923835
vn -0.021031 0.382213 -0.923835
vn -0.021031 0.382213 -0.923835
vn -0.021031 0.382213 -0.923835
vn -0.021031 0.382213 -0.923835
vn -0.050761 0.922529 -0.382576
vn -0.050761 0.922529 -0.382576
vn -0.050761 0.922529 -0.382576
vn -0.050761 0.922529 -0.382576
vn -0.050761 0.922529 0.382576
vn -0.050761 0.922529 0.382576
vn -0.050761 0.922529 0.382576
vn -0.050761 0.922529 0.382576
vn -0.021031 0.382213 0.923835
vn -0.021031 0.382213 0.923835
vn -0.021031 0.382213 0.923835
vn -0.021031 0.382213 0.923835
vn 0.021031 -0.382214 0.923835
vn 0.021031 -0.382214 0.923835
vn 0.021031 -0.382214 0.923835
vn 0.021031 -0.382214 0.923835
vn 0.050761 -0.922528 0.382576
vn 0.050761 -0.922529 0.382576
vn 0.050761 -0.922529 0.382576
vn 0.050761 -0.922528 0.382576
vn 0.050761 -0.922528 -0.382577
vn 0.050761 -0.922528 -0.382576
vn 0.050761 -0.922528 -0.382576
vn 0.050761 -0.922528 -0.382577
vn 0.080528 0.996752 0.000000
vn 0.080528 0.996752 0.000000
vn 0.080528 0.996752 0.000000
vn 0.080528 0.996752 0.000000
vn -0.029299 -0.999571 -0.000000
vn -0.029299 -0.999571 -0.000000
vn -0.029299 -0.999571 -0.000000
vn -0.029299 -0.999571 -0.000000
vn 0.080528 0.996752 0.000000
vn 0.080528 0.996752 0.000000
vn 0.080528 0.996752 0.000000
vn 0.080528 0.996752 0.000000
vn -0.029299 -0.999571 0.000000
vn -0.029299 -0.999571 0.000000
vn -0.029299 -0.999571 0.000000
vn -0.029299 -0.999571 0.000000
vn 0.080528 0.996752 0.000000
vn 0.080528 0.996752 0.000000
vn 0.080528 0.996752 0.000000
vn 0.080528 0.996752 0.000000
vn -0.029300 -0.999571 -0.000001
vn -0.029300 -0.999571 -0.000001
vn -0.029300 -0.999571 -0.000001
vn -0.029300 -0.999571 -0.000001
vn 0.080528 0.996752 0.000000
vn 0.080528 0.996752 0.000000
vn 0.080528 0.996752 0.000000
vn 0.080528 0.996752 0.000000
vn -0.029300 -0.999571 0.000002
vn -0.029300 -0.999571 0.000002
vn -0.029300 -0.999571 0.000002
vn -0.029300 -0.999571 0.000002
vn 0.080528 0.996752 0.000001
vn 0.080528 0.996752 0.000001
vn 0.080528 0.996752 0.000001
vn 0.080528 0.996752 0.000001
vn -0.029300 -0.999571 0.000001
vn -0.029300 -0.999571 0.000001
vn -0.029300 -0.999571 0.000001
vn -0.029300 -0.999571 0.000001
vn 0.080528 0.996752 0.000000
vn 0.080528 0.996752 0.000000
vn 0.080528 0.996752 0.000000
vn 0.080528 0.996752 0.000000
vn -0.029300 -0.999571 -0.000001
vn -0.029300 -0.999571 -0.000001
vn -0.029300 -0.999571 -0.000001
vn -0.029300 -0.999571 -0.000001
vn 0.080528 0.996752 0.000001
vn 0.080528 0.996752 0.000001
vn 0.080528 0.996752 0.000001
vn 0.080528 0.996752 0.000001
vn -0.029300 -0.999571 -0.000001
vn -0.029300 -0.999571 -0.000001
vn -0.029300 -0.999571 -0.000001
vn -0.029300 -0.999571 -0.000001
vn 0.080528 0.996752 0.000000
vn 0.080528 0.996752 0.000000
vn 0.080528 0.996752 0.000000
vn 0.080528 0.996752 0.000000
vn -0.029300 -0.999571 -0.000001
vn -0.029300 -0.999571 -0.000001
vn -0.029300 -0.999571 -0.000001
vn -0.029300 -0.999571 -0.000001
vn -0.996752 -0.080536 -0.000000
vn -0.996752 -0.080536 -0.000000
vn -0.996752 -0.080536 -0.000000
vn -0.996752 -0.080536 -0.000000
vn 0.999570 0.029308 -0.000000
vn 0.999570 0.029308 -0.000000
vn 0.999570 0.029308 -0.000000
vn 0.999570 0.029308 -0.000000
vn -0.996752 -0.080536 0.000000
vn -0.996752 -0.080536 0.000000
vn -0.996752 -0.080536 0.000000
vn -0.996752 -0.080536 0.000000
vn 0.999570 0.029310 0.000000
vn 0.999570 0.029310 0.000000
vn 0.999570 0.029310 0.000000
vn 0.999570 0.029310 0.000000
vn -0.996752 -0.080535 -0.000000
vn -0.996752 -0.080535 -0.000000
vn -0.996752 -0.080535 -0.000000
vn -0.996752 -0.080535 -0.000000
vn 0.999570 0.029308 -0.000000
vn 0.999570 0.029308 -0.000000
vn 0.999570 0.029308 -0.000000
vn 0.999570 0.029308 -0.000000
vn -0.996752 -0.080535 0.000000
vn -0.996752 -0.080535 0.000000
vn -0.996752 -0.080535 0.000000
vn -0.996752 -0.080535 0.000000
vn 0.999570 0.029308 0.000000
vn 0.999570 0.029308 0.000000
vn 0.999570 0.029308 0.000000
vn 0.999570 0.029308 0.000000
vn -0.996752 -0.080536 -0.000000
vn -0.996752 -0.080536 -0.000000
vn -0.996752 -0.080536 -0.000000
vn -0.996752 -0.080536 -0.000000
vn 0.999570 0.029309 -0.000000
vn 0.999570 0.029309 -0.000000
vn 0.999570 0.029309 -0.000000
vn 0.999570 0.029309 -0.000000
vn -0.996752 -0.080536 0.000000
vn -0.996752 -0.080536 0.000000
vn -0.996752 -0.080536 0.000000
vn -0.996752 -0.080536 0.000000
vn 0.999570 0.029308 0.000000
vn 0.999570 0.029308 0.000000
vn 0.999570 0.029308 0.000000
vn 0.999570 0.029308 0.000000
vn -0.996752 -0.080539 -0.000000
vn -0.996751 -0.080539 -0.000000
vn -0.996752 -0.080539 -0.000000
vn -0.996752 -0.080539 -0.000000
vn 0.999570 0.029308 -0.000000
vn 0.999570 0.029308 -0.000000
vn 0.999570 0.029308 -0.000000
vn 0.999570 0.029308 -0.000000
vn -0.996751 -0.080539 0.000000
vn -0.996751 -0.080539 0.000000
vn -0.996751 -0.080539 0.000000
vn -0.996751 -0.080539 0.000000
vn 0.999570 0.029308 0.000000
vn 0.999570 0.029308 0.000000
vn 0.999570 0.029308 0.000000
vn 0.999570 0.029308 0.000000
vn 0.923795 -0.013534 -0.382649
vn 0.923795 -0.013534 -0.382649
vn 0.923795 -0.013534 -0.382649
vn 0.923795 -0.013534 -0.382649
vn 0.923795 -0.013533 0.382648
vn 0.923795 -0.013533 0.382648
vn 0.923795 -0.013533 0.382648
vn 0.923795 -0.013533 0.382648
vn 0.382677 -0.005607 0.923865
vn 0.382677 -0.005607 0.923865
vn 0.382677 -0.005607 0.923865
vn 0.382677 -0.005607 0.923865
vn -0.382678 0.005607 0.923865
vn -0.382678 0.005607 0.923865
vn -0.382679 0.005607 0.923865
vn -0.382679 0.005607 0.923865
vn -0.923795 0.013534 0.382648
vn -0.923795 0.013534 0.382648
vn -0.923795 0.013534 0.382648
vn -0.923795 0.013534 0.382648
vn -0.923795 0.013534 -0.382648
vn -0.923795 0.013534 -0.382648
vn -0.923795 0.013534 -0.382648
vn -0.923795 0.013534 -0.382648
vn -0.382678 0.005607 -0.923865
vn -0.382678 0.005607 -0.923865
vn -0.382678 0.005607 -0.923865
vn -0.382678 0.005607 -0.923865
vn 0.382678 -0.005606 -0.923865
vn 0.382678 -0.005606 -0.923865
vn 0.382678 -0.005606 -0.923865
vn 0.382678 -0.005606 -0.923865
vn 0.005610 -0.382677 -0.923865
vn 0.005610 -0.382677 -0.923865
vn 0.005610 -0.382677 -0.923865
vn 0.005610 -0.382677 -0.923865
vn -0.005609 0.382677 -0.923865
vn -0.005609 0.382677 -0.923865
vn -0.005609 0.382677 -0.923865
vn -0.005609 0.382677 -0.923865
vn -0.013542 0.923795 -0.382649
vn -0.013542 0.923795 -0.382649
vn -0.013542 0.923795 -0.382649
vn -0.013542 0.923795 -0.382649
vn -0.013542 0.923795 0.382649
vn -0.013542 0.923795 0.382649
vn -0.013542 0.923795 0.382649
vn -0.013542 0.923795 0.382649
vn -0.005609 0.382677 0.923865
vn -0.005609 0.382677 0.923865
vn -0.005609 0.382677 0.923865
vn -0.005609 0.382677 0.923865
vn 0.005610 -0.382677 0.923865
vn 0.005610 -0.382677 0.923865
vn 0.005610 -0.382677 0.923865
vn 0.005610 -0.382677 0.923865
vn 0.013542 -0.923795 0.382647
vn 0.013542 -0.923796 0.382647
vn 0.013542 -0.923796 0.382647
vn 0.013542 -0.923796 0.382647
vn 0.013542 -0.923795 -0.382648
vn 0.013542 -0.923795 -0.382648
vn 0.013542 -0.923795 -0.382648
vn 0.013542 -0.923795 -0.382648
vn 0.787404 -0.483269 -0.382683
vn 0.787404 -0.483269 -0.382683
vn 0.787404 -0.483269 0.382684
vn 0.787404 -0.483269 0.382683
vn 0.326153 -0.200176 0.923880
vn 0.326153 -0.200176 0.923880
vn -0.326153 0.200176 0.923880
vn -0.326153 0.200176 0.923880
vn -0.787404 0.483269 0.382683
vn -0.787404 0.483269 0.382683
vn -0.787404 0.483269 -0.382683
vn -0.787404 0.483269 -0.382683
vn -0.326153 0.200176 -0.923880
vn -0.326153 0.200176 -0.923880
vn 0.326153 -0.200176 -0.923880
vn 0.326153 -0.200176 -0.923880
vn 0.653284 -0.653279 -0.382684
vn 0.653284 -0.653279 -0.382684
vn 0.653284 -0.653279 0.382683
vn 0.653284 -0.653279 0.382683
vn 0.270599 -0.270597 0.923880
vn 0.270599 -0.270597 0.923880
vn -0.270599 0.270597 0.923880
vn -0.270599 0.270597 0.923880
vn -0.653284 0.653279 0.382683
vn -0.653284 0.653279 0.382683
vn -0.653284 0.653279 -0.382683
vn -0.653284 0.653279 -0.382683
vn -0.270599 0.270597 -0.923880
vn -0.270599 0.270597 -0.923880
vn 0.270599 -0.270597 -0.923880
vn 0.270599 -0.270597 -0.923880
vn 0.483275 -0.787400 -0.382684
vn 0.483275 -0.787400 -0.382684
vn 0.483275 -0.787400 0.382683
vn 0.483275 -0.787400 0.382683
vn 0.200179 -0.326152 0.923880
vn 0.200179 -0.326152 0.923880
vn -0.200179 0.326152 0.923880
vn -0.200179 0.326152 0.923880
vn -0.483275 0.787400 0.382683
vn -0.483275 0.787400 0.382683
vn -0.483275 0.787400 -0.382683
vn -0.483275 0.787400 -0.382683
vn -0.200179 0.326152 -0.923880
vn -0.200179 0.326152 -0.923880
vn 0.200179 -0.326152 -0.923880
vn 0.200179 -0.326152 -0.923880
vn 0.286716 -0.878264 -0.382684
vn 0.286716 -0.878264 -0.382684
vn 0.286716 -0.878264 0.382683
vn 0.286716 -0.878264 0.382683
vn 0.118762 -0.363789 0.923880
vn 0.118762 -0.363789 0.923880
vn -0.118762 0.363789 0.923880
vn -0.118762 0.363789 0.923880
vn -0.286716 0.878264 0.382684
vn -0.286716 0.878264 0.382684
vn -0.286716 0.878264 -0.382684
vn -0.286716 0.878264 -0.382684
vn -0.118762 0.363789 -0.923880
vn -0.118762 0.363789 -0.923880
vn 0.118762 -0.363789 -0.923880
vn 0.118762 -0.363789 -0.923880
vn 0.181997 -0.906725 -0.380429
vn 0.181997 -0.906725 -0.380429
vn 0.181997 -0.906725 0.380429
vn 0.181997 -0.906725 0.380429
vn 0.075755 -0.377419 0.922939
vn 0.075755 -0.377419 0.922939
vn -0.075755 0.377419 0.922939
vn -0.075755 0.377419 0.922939
vn -0.181997 0.906725 0.380430
vn -0.181997 0.906725 0.380429
vn -0.181997 0.906725 -0.380429
vn -0.181997 0.906725 -0.380430
vn -0.075755 0.377419 -0.922939
vn -0.075755 0.377419 -0.922939
vn 0.075755 -0.377419 -0.922939
vn 0.075755 -0.377419 -0.922939
vn 0.000000 -1.000000 0.000000
vn 0.000000 -1.000000 -0.000000
vn 0.000000 -1.000000 -0.000000
vn 0.000000 -1.000000 0.000000
vn 1.000000 0.000005 0.000001
vn 1.000000 0.000004 0.000000
vn 1.000000 0.000004 0.000000
vn 1.000000 0.000005 -0.000001
s 1
g PipeCurv
f 1/9/1 2/10/2 88/104/3 81/97/4
s 2
f 2/10/5 3/11/6 87/103/7 88/104/8
s 3
f 3/11/9 4/12/10 86/102/11 87/103/12
s 4
f 4/12/13 5/13/14 85/101/15 86/102/16
s 5
f 5/143/17 6/14/18 84/100/19 85/142/20
s 6
f 6/14/21 7/15/22 83/99/23 84/100/24
s 7
f 7/15/25 8/16/26 82/98/27 83/99/28
s 8
f 8/16/29 1/9/30 81/97/31 82/98/32
s 9
f 66/81/33 67/83/34 71/87/35 72/88/36
s 10
f 73/89/37 77/93/38 79/95/39 80/96/40
s off
f 34/49/41 33/50/42 35/51/43 36/52/44
f 33/50/45 37/53/46 38/54/47 35/51/48
f 37/53/49 39/55/50 40/56/51 38/54/52
f 39/55/53 41/147/54 42/148/55 40/56/56
f 41/57/57 43/59/58 44/60/59 42/58/60
f 43/59/61 45/61/62 46/62/63 44/60/64
f 45/61/65 47/63/66 48/64/67 46/62/68
f 47/63/69 34/49/70 36/52/71 48/64/72
f 49/65/73 50/66/74 51/67/75 52/68/76
f 50/66/77 53/69/78 54/70/79 51/67/80
f 53/69/81 55/71/82 56/72/83 54/70/84
f 55/71/85 57/145/86 58/146/87 56/72/88
f 57/73/89 59/75/90 60/76/91 58/74/92
f 59/75/93 61/77/94 62/78/95 60/76/96
f 61/77/97 63/79/98 64/80/99 62/78/100
f 63/79/101 49/65/102 52/68/103 64/80/104
f 1/1/105 8/8/106 33/50/107 34/49/108
f 17/163/109 18/157/110 36/52/111 35/51/112
f 8/8/113 7/7/114 37/53/115 33/50/116
f 19/167/117 17/163/118 35/51/119 38/54/120
f 7/7/121 6/6/122 39/55/123 37/53/124
f 20/166/125 19/167/126 38/54/127 40/56/128
f 6/6/129 5/149/130 41/147/131 39/55/132
f 21/162/133 20/166/134 40/56/135 42/148/136
f 5/5/137 4/4/138 43/59/139 41/57/140
f 22/160/141 21/161/142 42/58/143 44/60/144
f 4/4/145 3/3/146 45/61/147 43/59/148
f 23/159/149 22/160/150 44/60/151 46/62/152
f 3/3/153 2/2/154 47/63/155 45/61/156
f 24/158/157 23/159/158 46/62/159 48/64/160
f 2/2/161 1/1/162 34/49/163 47/63/164
f 18/157/165 24/158/166 48/64/167 36/52/168
f 9/31/169 10/30/170 50/66/171 49/65/172
f 26/156/173 25/151/174 52/68/175 51/67/176
f 10/30/177 11/29/178 53/69/179 50/66/180
f 27/155/181 26/156/182 51/67/183 54/70/184
f 11/29/185 12/28/186 55/71/187 53/69/188
f 28/154/189 27/155/190 54/70/191 56/72/192
f 12/28/193 13/27/194 57/145/195 55/71/196
f 29/153/197 28/154/198 56/72/199 58/146/200
f 13/144/201 14/26/202 59/75/203 57/73/204
f 30/164/205 29/152/206 58/74/207 60/76/208
f 14/26/209 15/25/210 61/77/211 59/75/212
f 31/165/213 30/164/214 60/76/215 62/78/216
f 15/25/217 16/32/218 63/79/219 61/77/220
f 32/150/221 31/165/222 62/78/223 64/80/224
f 16/32/225 9/31/226 49/65/227 63/79/228
f 25/151/229 32/150/230 64/80/231 52/68/232
f 18/33/233 17/175/234 65/82/235 66/81/236
f 17/34/237 19/173/238 67/83/239 65/82/240
f 19/35/241 20/172/242 68/84/243 67/83/244
f 20/36/245 21/171/246 69/85/247 68/84/248
f 21/37/249 22/170/250 70/86/251 69/85/252
f 22/38/253 23/169/254 71/87/255 70/86/256
f 23/39/257 24/168/258 72/88/259 71/87/260
f 24/40/261 18/174/262 66/81/263 72/88/264
f 25/41/265 26/182/266 74/90/267 73/89/268
f 26/42/269 27/181/270 75/91/271 74/90/272
f 27/43/273 28/180/274 76/92/275 75/91/276
f 28/44/277 29/179/278 77/93/279 76/92/280
f 29/45/281 30/178/282 78/94/283 77/93/284
f 30/46/285 31/177/286 79/95/287 78/94/288
f 31/47/289 32/176/290 80/96/291 79/95/292
f 32/48/293 25/183/294 73/89/295 80/96/296
s 8
f 82/98/32 81/97/31 89/105/297 90/106/298
s 7
f 83/99/28 82/98/27 90/106/299 91/107/300
s 6
f 84/100/24 83/99/23 91/107/301 92/108/302
s 5
f 85/142/20 84/100/19 92/108/303 93/141/304
s 4
f 86/102/16 85/101/15 93/109/305 94/110/306
s 3
f 87/103/12 86/102/11 94/110/307 95/111/308
s 2
f 88/104/8 87/103/7 95/111/309 96/112/310
s 1
f 81/97/4 88/104/3 96/112/311 89/105/312
s 8
f 90/106/298 89/105/297 97/113/313 98/114/314
s 7
f 91/107/300 90/106/299 98/114/315 99/115/316
s 6
f 92/108/302 91/107/301 99/115/317 100/116/318
s 5
f 93/141/304 92/108/303 100/116/319 101/140/320
s 4
f 94/110/306 93/109/305 101/117/321 102/118/322
s 3
f 95/111/308 94/110/307 102/118/323 103/119/324
s 2
f 96/112/310 95/111/309 103/119/325 104/120/326
s 1
f 89/105/312 96/112/311 104/120/327 97/113/328
s 8
f 98/114/314 97/113/313 105/121/329 106/122/330
s 7
f 99/115/316 98/114/315 106/122/331 107/123/332
s 6
f 100/116/318 99/115/317 107/123/333 108/124/334
s 5
f 101/140/320 100/116/319 108/124/335 109/139/336
s 4
f 102/118/322 101/117/321 109/125/337 110/126/338
s 3
f 103/119/324 102/118/323 110/126/339 111/127/340
s 2
f 104/120/326 103/119/325 111/127/341 112/128/342
s 1
f 97/113/328 104/120/327 112/128/343 105/121/344
s 8
f 106/122/330 105/121/329 113/129/345 114/130/346
s 7
f 107/123/332 106/122/331 114/130/347 115/131/348
s 6
f 108/124/334 107/123/333 115/131/349 116/132/350
s 5
f 109/139/336 108/124/335 116/132/351 117/137/352
s 4
f 110/126/338 109/125/337 117/133/353 118/134/354
s 3
f 111/127/340 110/126/339 118/134/355 119/135/356
s 2
f 112/128/342 111/127/341 119/135/357 120/136/358
s 1
f 105/121/344 112/128/343 120/136/359 113/129/360
s 8
f 114/130/346 113/129/345 9/17/361 16/24/362
s 7
f 115/131/348 114/130/347 16/24/363 15/23/364
s 6
f 116/132/350 115/131/349 15/23/365 14/22/366
s 5
f 117/137/352 116/132/351 14/22/367 13/138/368
s 4
f 118/134/354 117/133/353 13/21/369 12/20/370
s 3
f 119/135/356 118/134/355 12/20/371 11/19/372
s 2
f 120/136/358 119/135/357 11/19/373 10/18/374
s 1
f 113/129/360 120/136/359 10/18/375 9/17/376
s 9
f 66/81/33 65/82/377 67/83/34
f 71/87/35 67/83/34 68/84/378 69/85/379
f 71/87/35 69/85/379 70/86/380
s 10
f 73/89/37 74/90/381 75/91/382
f 73/89/37 75/91/382 76/92/383 77/93/38
f 79/95/39 77/93/38 78/94/384
