# This file uses centimeters as units for non-parametric coordinates.

g default
v -0.135024 0.619209 -0.583752
v -0.135024 -0.000000 -0.583752
v 1.000000 0.619209 -0.279624
v 1.000000 0.000000 -0.279624
v 1.000000 0.619209 -1.000000
v 1.000000 0.000000 -1.000000
v 0.225164 0.619209 -1.207617
v 0.225164 0.000000 -1.207617
v 1.000000 0.619209 -0.444021
v -0.052825 0.619209 -0.726124
v -0.052825 -0.000000 -0.726124
v 1.000000 0.000000 -0.444021
v 1.000000 0.619209 -0.835603
v 0.142966 0.619209 -1.065244
v 0.142966 0.000000 -1.065244
v 1.000000 0.000000 -0.835603
v 1.000000 0.501365 -0.808253
v 0.129291 0.501365 -1.041559
v -0.039150 0.501365 -0.749810
v 1.000000 0.501365 -0.471370
v 0.129291 0.117844 -1.041559
v -0.039150 0.117844 -0.749810
v 1.000000 0.117844 -0.471370
v 1.000000 0.117844 -0.808253
v -0.823547 0.000000 -1.496846
v -0.965919 0.000000 -1.414647
v -0.799861 0.117844 -1.510521
v -0.508112 0.501365 -1.678962
v -0.508112 0.117844 -1.678962
v -0.799861 0.501365 -1.510521
v -0.342055 0.619209 -1.774836
v -0.484427 0.619209 -1.692637
v -0.965919 0.619209 -1.414647
v -0.823547 0.619209 -1.496846
v -0.342055 0.000000 -1.774836
v -0.484427 0.000000 -1.692637
v -1.105650 0.000000 -2.549671
v -1.270047 0.000000 -2.549671
v -1.078301 0.117844 -2.549671
v -0.741418 0.501365 -2.549671
v -0.741418 0.117844 -2.549671
v -1.078301 0.501365 -2.549671
v -0.549671 0.619209 -2.549671
v -0.714069 0.619209 -2.549671
v -1.270047 0.619209 -2.549671
v -1.105650 0.619209 -2.549671
v -0.549671 0.000000 -2.549671
v -0.714069 0.000000 -2.549671
vt 0.000016 0.276299
vt 0.552596 0.828887
vt 0.451199 0.000002
vt 0.451228 0.171088
vt 0.252161 0.000036
vt 0.252190 0.171121
vt 0.276309 0.999989
vt 0.250813 0.552576
vt 0.405777 0.000010
vt 0.045438 0.276300
vt 0.045460 0.552614
vt 0.045512 0.828911
vt 0.205375 0.000007
vt 0.205369 0.276304
vt 0.205391 0.552584
vt 0.297613 0.171114
vt 0.305146 0.032587
vt 0.171943 0.276303
vt 0.078863 0.276301
vt 0.398226 0.032571
vt 0.171965 0.552590
vt 0.078886 0.552608
vt 0.398244 0.138537
vt 0.305164 0.138552
vt 0.045409 0.276317
vt 0.276299 0.828900
vt 0.078834 0.276311
vt 0.171914 0.276293
vt 0.078857 0.552598
vt 0.171936 0.552600
vt 0.205362 0.552601
vt 0.552606 0.999969
vt 0.000009 0.552596
vt 0.045431 0.552597
vt 0.250762 0.276279
vt 0.205339 0.276287
vt 0.405780 0.000012
vt 0.000002 0.828912
vt 0.398228 0.032573
vt 0.305148 0.032585
vt 0.398241 0.138538
vt 0.171929 0.828897
vt 0.205355 0.828898
vt 0.828903 0.999949
vt 0.451225 0.171092
vt 0.045424 0.828894
vt 0.250710 -0.000018
vt 0.297587 0.000026
vt 0.828891 0.828863
vt 0.205288 -0.000010
vt 0.171862 -0.000004
vt 0.552594 0.828883
vt 0.405802 0.171098
vt 0.078850 0.828895
vt 0.000002 0.828893
vt 0.276307 0.999985
vt 0.250777 0.828899
vt 0.297609 0.171111
vt 0.305162 0.138551
vt 0.250784 0.552602
vt 0.078783 0.000014
vt 0.045357 0.000020
vt -0.000065 0.000028
vt -0.000013 0.276325
vt 0.276297 0.828903
vt 0.552604 0.999973
vt 0.250791 0.276305
vt 0.000038 0.552622
vt 0.078937 0.828905
vt 0.172017 0.828887
vt 0.205442 0.828881
vt 0.405806 0.171095
vt 0.078870 0.000004
vt 0.171950 0.000006
vt 0.045445 0.000003
vt 0.297584 0.000028
vt 0.250865 0.828873
vt 0.250798 0.000008
vt 0.000090 0.828919
vt 0.000023 0.000002
vt 0.000010 0.999998
vt 0.451203 0.000006
vt 0.252187 0.171117
vt 0.252165 0.000032
vt 0.000012 1.000009
vt -0.000000 0.828924
vt 0.828901 0.999960
vt 0.828893 0.828874
vn -0.258819 0.000000 0.965926
vn -0.258819 0.000000 0.965926
vn -0.258819 0.000000 0.965926
vn -0.258819 0.000000 0.965926
vn 1.000000 0.000000 0.000000
vn 1.000000 0.000000 0.000000
vn 1.000000 0.000000 0.000000
vn 0.258819 0.000000 -0.965926
vn 0.258819 0.000000 -0.965926
vn 0.258819 0.000000 -0.965926
vn 0.258819 0.000000 -0.965926
vn 0.000000 0.000000 -1.000000
vn -0.000001 0.000000 -1.000000
vn -0.000001 0.000000 -1.000000
vn 0.000000 -1.000000 -0.000000
vn 0.000000 -1.000000 -0.000000
vn 0.000000 -1.000000 -0.000000
vn 0.000000 -1.000000 -0.000000
vn 0.000000 1.000000 0.000000
vn 0.000000 1.000000 0.000000
vn 0.000000 1.000000 0.000000
vn 0.000000 1.000000 0.000000
vn 0.000000 1.000000 -0.000000
vn 0.000000 1.000000 -0.000000
vn 0.000000 1.000000 -0.000000
vn 0.000000 1.000000 -0.000000
vn 0.000000 0.000000 -1.000000
vn 0.000000 0.000000 -1.000000
vn 0.000000 0.000000 -1.000000
vn 0.000000 0.000000 -1.000000
vn 0.000000 -1.000000 0.000000
vn 0.000000 -1.000000 0.000000
vn 0.000000 -1.000000 0.000000
vn 0.000000 -1.000000 0.000000
vn 1.000000 0.000000 0.000000
vn 1.000000 0.000000 0.000000
vn 1.000000 0.000000 0.000000
vn 1.000000 0.000000 0.000000
vn 0.000000 1.000000 0.000000
vn 0.000000 1.000000 0.000000
vn 0.000000 1.000000 0.000000
vn 0.000000 1.000000 0.000000
vn -0.000000 -1.000000 -0.000000
vn -0.000000 -1.000000 -0.000000
vn -0.000000 -1.000000 -0.000000
vn -0.000000 -1.000000 -0.000000
vn -0.252551 0.218745 0.942533
vn -0.252551 0.218745 0.942533
vn -0.252551 0.218745 0.942533
vn -0.252551 0.218745 0.942533
vn 0.252551 0.218745 -0.942533
vn 0.252551 0.218745 -0.942533
vn 0.252551 0.218745 -0.942533
vn 0.252551 0.218745 -0.942533
vn 0.000001 0.000000 -1.000000
vn 0.000001 0.000000 -1.000000
vn 0.000000 0.000000 -1.000000
vn 0.252551 -0.218745 -0.942533
vn 0.252551 -0.218745 -0.942533
vn 0.252551 -0.218745 -0.942533
vn 0.252551 -0.218745 -0.942533
vn -0.252551 -0.218745 0.942533
vn -0.252551 -0.218745 0.942533
vn -0.252551 -0.218745 0.942533
vn -0.252551 -0.218745 0.942533
vn 1.000000 0.000000 0.000000
vn 1.000000 0.000000 0.000000
vn 1.000000 0.000000 0.000000
vn -0.000001 0.000000 -1.000000
vn -0.000001 0.000000 -1.000000
vn 0.000000 0.000000 -1.000000
vn 0.000001 0.000000 -1.000000
vn 0.000001 0.000000 -1.000000
vn -0.000000 0.000000 -1.000000
vn 1.000000 0.000000 0.000000
vn 1.000000 0.000000 0.000000
vn 1.000000 0.000000 0.000000
vn 1.000000 0.000000 0.000000
vn 1.000000 0.000000 0.000000
vn 1.000000 0.000000 0.000000
vn 0.000000 -1.000000 -0.000000
vn 0.000000 -1.000000 -0.000000
vn 0.000000 -1.000000 -0.000000
vn 0.000000 -1.000000 -0.000000
vn 0.689982 -0.218745 -0.689982
vn 0.689982 -0.218745 -0.689982
vn 0.689982 -0.218745 -0.689982
vn 0.689982 -0.218745 -0.689982
vn 0.000000 -1.000000 0.000000
vn 0.000000 -1.000000 0.000000
vn 0.000000 -1.000000 0.000000
vn 0.000000 -1.000000 0.000000
vn 0.000000 1.000000 -0.000000
vn 0.000000 1.000000 -0.000000
vn 0.000000 1.000000 -0.000000
vn 0.000000 1.000000 -0.000000
vn -0.689982 0.218746 0.689982
vn -0.689982 0.218746 0.689982
vn -0.689982 0.218746 0.689982
vn -0.689982 0.218746 0.689982
vn 0.000000 1.000000 0.000000
vn 0.000000 1.000000 0.000000
vn 0.000000 1.000000 0.000000
vn 0.000000 1.000000 0.000000
vn 0.000000 1.000000 -0.000000
vn 0.000000 1.000000 -0.000000
vn 0.000000 1.000000 -0.000000
vn 0.000000 1.000000 -0.000000
vn 0.689982 0.218745 -0.689982
vn 0.689982 0.218745 -0.689982
vn 0.689982 0.218745 -0.689982
vn 0.689982 0.218745 -0.689982
vn 0.707107 0.000000 -0.707107
vn 0.707107 0.000000 -0.707107
vn 0.707107 0.000000 -0.707107
vn 0.707107 0.000000 -0.707107
vn -0.707107 0.000000 0.707107
vn -0.707107 0.000000 0.707107
vn -0.707107 0.000000 0.707107
vn -0.707107 0.000000 0.707107
vn -0.689982 -0.218746 0.689982
vn -0.689982 -0.218746 0.689982
vn -0.689982 -0.218746 0.689982
vn -0.689982 -0.218746 0.689982
vn 0.000000 -1.000000 -0.000000
vn 0.000000 -1.000000 -0.000000
vn 0.000000 -1.000000 -0.000000
vn 0.000000 -1.000000 -0.000000
vn 0.000000 -1.000000 -0.000000
vn 0.000000 -1.000000 -0.000000
vn 0.000000 -1.000000 -0.000000
vn 0.000000 -1.000000 -0.000000
vn 0.942533 -0.218746 -0.252551
vn 0.942533 -0.218746 -0.252551
vn 0.942533 -0.218746 -0.252551
vn 0.942533 -0.218746 -0.252551
vn 0.000000 -1.000000 -0.000000
vn 0.000000 -1.000000 -0.000000
vn 0.000000 -1.000000 -0.000000
vn 0.000000 -1.000000 -0.000000
vn 0.000000 1.000000 0.000000
vn 0.000000 1.000000 0.000000
vn 0.000000 1.000000 0.000000
vn 0.000000 1.000000 0.000000
vn -0.942533 0.218745 0.252551
vn -0.942533 0.218745 0.252551
vn -0.942533 0.218745 0.252551
vn -0.942533 0.218745 0.252551
vn 0.000000 1.000000 0.000000
vn 0.000000 1.000000 0.000000
vn 0.000000 1.000000 0.000000
vn 0.000000 1.000000 0.000000
vn 0.000000 1.000000 -0.000000
vn 0.000000 1.000000 -0.000000
vn 0.000000 1.000000 -0.000000
vn 0.000000 1.000000 -0.000000
vn 0.942533 0.218746 -0.252551
vn 0.942533 0.218746 -0.252551
vn 0.942533 0.218746 -0.252551
vn 0.942533 0.218746 -0.252551
vn 0.965926 0.000000 -0.258819
vn 0.965926 0.000000 -0.258819
vn 0.965926 0.000000 -0.258819
vn 0.965926 0.000000 -0.258819
vn -0.965926 0.000000 0.258819
vn -0.965926 0.000000 0.258819
vn -0.965926 0.000000 0.258819
vn -0.965926 0.000000 0.258819
vn -0.942533 -0.218745 0.252551
vn -0.942533 -0.218745 0.252551
vn -0.942533 -0.218745 0.252551
vn -0.942533 -0.218745 0.252551
vn 0.000000 -1.000000 -0.000000
vn 0.000000 -1.000000 -0.000000
vn 0.000000 -1.000000 -0.000000
vn 0.000000 -1.000000 -0.000000
s off
g Rail_Curv group1
f 1/66/1 2/2/2 4/88/3 3/87/4
s 1
f 9/9/5 3/3/6 20/20/7
s off
f 5/85/8 6/86/9 8/65/10 7/7/11
s 2
f 37/37/12 38/82/13 39/39/14
s off
f 2/68/15 11/11/16 12/12/17 4/79/18
f 9/75/19 10/10/20 1/1/21 3/80/22
f 17/74/23 18/18/24 19/19/25 20/73/26
f 40/59/27 41/40/28 39/39/29 42/41/30
f 23/69/31 22/22/32 21/21/33 24/70/34
f 20/20/35 23/23/36 24/24/37 17/17/38
f 7/67/39 14/14/40 13/13/41 5/78/42
f 16/71/43 15/15/44 8/8/45 6/77/46
f 13/13/47 14/14/48 18/18/49 17/74/50
f 10/10/51 9/75/52 20/73/53 19/19/54
s 3
f 43/83/55 40/59/56 44/58/57
s off
f 12/12/58 11/11/59 22/22/60 23/69/61
f 15/15/62 16/71/63 24/70/64 21/21/65
s 4
f 6/6/66 24/24/67 16/16/68
s 2
f 42/41/69 45/45/70 46/53/71
s 3
f 47/84/72 41/40/73 40/59/56 43/83/55
s 2
f 39/39/14 38/82/13 45/45/70 42/41/69
s 3
f 48/48/74 41/40/73 47/84/72
s 1
f 20/20/7 3/3/6 4/4/75 23/23/76
s 4
f 13/76/77 17/17/78 5/5/79
s 1
f 23/23/76 4/4/75 12/72/80
s 4
f 5/5/79 17/17/78 24/24/67 6/6/66
s off
f 11/11/81 2/68/82 26/64/83 25/25/84
f 22/22/85 11/11/86 25/25/87 27/27/88
f 21/21/89 22/22/90 27/27/91 29/28/92
f 19/19/93 18/18/94 28/30/95 30/29/96
f 18/18/97 14/14/98 32/31/99 28/30/100
f 14/14/101 7/67/102 31/60/103 32/31/104
f 1/1/105 10/10/106 34/34/107 33/33/108
f 10/10/109 19/19/110 30/29/111 34/34/112
f 7/7/113 8/65/114 35/52/115 31/32/116
f 2/2/117 1/66/118 33/56/119 26/26/120
f 15/15/121 21/21/122 29/28/123 36/36/124
f 8/8/125 15/15/126 36/36/127 35/35/128
f 25/25/129 26/64/130 38/63/131 37/62/132
f 27/27/133 25/25/134 37/62/135 39/61/136
f 29/28/137 27/27/138 39/61/139 41/51/140
f 30/29/141 28/30/142 40/42/143 42/54/144
f 28/30/145 32/31/146 44/43/147 40/42/148
f 32/31/149 31/60/150 43/57/151 44/43/152
f 33/33/153 34/34/154 46/46/155 45/55/156
f 34/34/157 30/29/158 42/54/159 46/46/160
f 31/32/161 35/52/162 47/49/163 43/44/164
f 26/26/165 33/56/166 45/81/167 38/38/168
f 36/36/169 29/28/170 41/51/171 48/50/172
f 35/35/173 36/36/174 48/50/175 47/47/176
