# This file uses centimeters as units for non-parametric coordinates.

g default
v 0.000000 0.619209 -0.279624
v 0.000000 0.000000 -0.279624
v 1.000000 0.619209 -0.279624
v 1.000000 0.000000 -0.279624
v 1.000000 0.619209 -1.000000
v 1.000000 0.000000 -1.000000
v 0.000000 0.619209 -1.000000
v 0.000000 0.000000 -1.000000
v 1.000000 0.619209 -0.444021
v 0.000000 0.619209 -0.444021
v 0.000000 0.000000 -0.444021
v 1.000000 0.000000 -0.444021
v 1.000000 0.619209 -0.835603
v 0.000000 0.619209 -0.835603
v 0.000000 0.000000 -0.835603
v 1.000000 0.000000 -0.835603
v 1.000000 0.501365 -0.808253
v 0.000000 0.501365 -0.808253
v 0.000000 0.501365 -0.471370
v 1.000000 0.501365 -0.471370
v 0.000000 0.117844 -0.808253
v 0.000000 0.117844 -0.471370
v 1.000000 0.117844 -0.471370
v 1.000000 0.117844 -0.808253
v -1.000000 0.000000 -0.444021
v -1.000000 0.000000 -0.279624
v -1.000000 0.117844 -0.471370
v -1.000000 0.501365 -0.808253
v -1.000000 0.117844 -0.808253
v -1.000000 0.501365 -0.471370
v -1.000000 0.619209 -1.000000
v -1.000000 0.619209 -0.835603
v -1.000000 0.619209 -0.279624
v -1.000000 0.619209 -0.444021
v -1.000000 0.000000 -1.000000
v -1.000000 0.000000 -0.835603
v -2.000000 0.000000 -0.444021
v -2.000000 0.000000 -0.279624
v -2.000000 0.117844 -0.471370
v -2.000000 0.501365 -0.808253
v -2.000000 0.117844 -0.808253
v -2.000000 0.501365 -0.471370
v -2.000000 0.619209 -1.000000
v -2.000000 0.619209 -0.835603
v -2.000000 0.619209 -0.279624
v -2.000000 0.619209 -0.444021
v -2.000000 0.000000 -1.000000
v -2.000000 0.000000 -0.835603
vt 0.417594 0.737710
vt 0.456322 0.776439
vt 0.449215 0.718346
vt 0.449217 0.730337
vt 0.435266 0.718348
vt 0.435268 0.730339
vt 0.436958 0.788430
vt 0.435171 0.757073
vt 0.446032 0.718346
vt 0.420777 0.737710
vt 0.420779 0.757076
vt 0.420782 0.776440
vt 0.431986 0.718346
vt 0.431986 0.737711
vt 0.431988 0.757074
vt 0.438451 0.730338
vt 0.438979 0.720630
vt 0.429643 0.737711
vt 0.423120 0.737710
vt 0.445502 0.720628
vt 0.429645 0.757074
vt 0.423121 0.757076
vt 0.445504 0.728055
vt 0.438980 0.728056
vt 0.420775 0.737712
vt 0.436957 0.776440
vt 0.423118 0.737711
vt 0.429641 0.737710
vt 0.423119 0.757075
vt 0.429643 0.757075
vt 0.431986 0.757075
vt 0.456322 0.788429
vt 0.417593 0.757075
vt 0.420777 0.757075
vt 0.435167 0.737709
vt 0.431984 0.737710
vt 0.446032 0.718347
vt 0.417593 0.776441
vt 0.445503 0.720629
vt 0.438979 0.720629
vt 0.445504 0.728055
vt 0.429642 0.776439
vt 0.431985 0.776440
vt 0.475687 0.788428
vt 0.449217 0.730337
vt 0.420776 0.776439
vt 0.435164 0.718344
vt 0.438449 0.718348
vt 0.475686 0.776437
vt 0.431980 0.718345
vt 0.429638 0.718346
vt 0.456321 0.776438
vt 0.446034 0.730337
vt 0.423119 0.776439
vt 0.417593 0.776439
vt 0.436958 0.788430
vt 0.435169 0.776440
vt 0.438451 0.730338
vt 0.438980 0.728056
vt 0.435169 0.757075
vt 0.423114 0.718347
vt 0.420772 0.718347
vt 0.417588 0.718348
vt 0.417592 0.737712
vt 0.436957 0.776440
vt 0.456322 0.788429
vt 0.435169 0.737711
vt 0.417595 0.757077
vt 0.423125 0.776440
vt 0.429649 0.776439
vt 0.431991 0.776438
vt 0.446034 0.730337
vt 0.423120 0.718346
vt 0.429644 0.718346
vt 0.420778 0.718346
vt 0.438449 0.718348
vt 0.435175 0.776438
vt 0.435170 0.718346
vt 0.417599 0.776441
vt 0.417594 0.718346
vt 0.417593 0.788431
vt 0.449215 0.718346
vt 0.435267 0.730339
vt 0.435266 0.718348
vt 0.417594 0.788432
vt 0.417593 0.776441
vt 0.475687 0.788428
vt 0.475686 0.776438
vn 0.000000 0.000000 1.000000
vn 0.000000 0.000000 1.000000
vn 0.000000 0.000000 1.000000
vn 0.000000 0.000000 1.000000
vn 1.000000 0.000000 0.000000
vn 1.000000 0.000000 0.000000
vn 1.000000 0.000000 0.000000
vn 0.000000 0.000000 -1.000000
vn 0.000000 0.000000 -1.000000
vn 0.000000 0.000000 -1.000000
vn 0.000000 0.000000 -1.000000
vn -1.000000 0.000000 0.000000
vn -1.000000 0.000000 0.000000
vn -1.000000 0.000000 0.000000
vn 0.000000 -1.000000 0.000000
vn 0.000000 -1.000000 0.000000
vn 0.000000 -1.000000 0.000000
vn 0.000000 -1.000000 0.000000
vn 0.000000 1.000000 0.000000
vn 0.000000 1.000000 0.000000
vn 0.000000 1.000000 0.000000
vn 0.000000 1.000000 0.000000
vn 0.000000 1.000000 0.000000
vn 0.000000 1.000000 0.000000
vn 0.000000 1.000000 0.000000
vn 0.000000 1.000000 0.000000
vn -1.000000 0.000000 0.000000
vn -1.000000 0.000000 0.000000
vn -1.000000 0.000000 0.000000
vn -1.000000 0.000000 0.000000
vn 0.000000 -1.000000 0.000000
vn 0.000000 -1.000000 0.000000
vn 0.000000 -1.000000 0.000000
vn 0.000000 -1.000000 0.000000
vn 1.000000 0.000000 0.000000
vn 1.000000 0.000000 0.000000
vn 1.000000 0.000000 0.000000
vn 1.000000 0.000000 0.000000
vn 0.000000 1.000000 0.000000
vn 0.000000 1.000000 0.000000
vn 0.000000 1.000000 0.000000
vn 0.000000 1.000000 0.000000
vn 0.000000 -1.000000 0.000000
vn 0.000000 -1.000000 0.000000
vn 0.000000 -1.000000 0.000000
vn 0.000000 -1.000000 0.000000
vn 0.000000 0.226074 0.974110
vn 0.000000 0.226074 0.974110
vn 0.000000 0.226074 0.974110
vn 0.000000 0.226074 0.974110
vn 0.000000 0.226074 -0.974110
vn 0.000000 0.226074 -0.974110
vn 0.000000 0.226074 -0.974110
vn 0.000000 0.226074 -0.974110
vn -1.000000 0.000000 0.000000
vn -1.000000 0.000000 0.000000
vn -1.000000 0.000000 0.000000
vn 0.000000 -0.226074 -0.974110
vn 0.000000 -0.226074 -0.974110
vn 0.000000 -0.226074 -0.974110
vn 0.000000 -0.226074 -0.974110
vn 0.000000 -0.226074 0.974110
vn 0.000000 -0.226074 0.974110
vn 0.000000 -0.226074 0.974110
vn 0.000000 -0.226074 0.974110
vn 1.000000 0.000000 0.000000
vn 1.000000 0.000000 0.000000
vn 1.000000 0.000000 0.000000
vn -1.000000 0.000000 0.000000
vn -1.000000 0.000000 0.000000
vn -1.000000 0.000000 0.000000
vn -1.000000 0.000000 0.000000
vn -1.000000 0.000000 0.000000
vn -1.000000 0.000000 0.000000
vn 1.000000 0.000000 0.000000
vn 1.000000 0.000000 0.000000
vn 1.000000 0.000000 0.000000
vn 1.000000 0.000000 0.000000
vn 1.000000 0.000000 0.000000
vn 1.000000 0.000000 0.000000
vn 0.000000 -1.000000 0.000000
vn 0.000000 -1.000000 0.000000
vn 0.000000 -1.000000 0.000000
vn 0.000000 -1.000000 0.000000
vn 0.000000 -0.226074 -0.974110
vn 0.000000 -0.226074 -0.974110
vn 0.000000 -0.226074 -0.974110
vn 0.000000 -0.226074 -0.974110
vn 0.000000 -1.000000 0.000000
vn 0.000000 -1.000000 0.000000
vn 0.000000 -1.000000 0.000000
vn 0.000000 -1.000000 0.000000
vn 0.000000 1.000000 0.000000
vn 0.000000 1.000000 0.000000
vn 0.000000 1.000000 0.000000
vn 0.000000 1.000000 0.000000
vn 0.000000 0.226074 0.974110
vn 0.000000 0.226074 0.974110
vn 0.000000 0.226074 0.974110
vn 0.000000 0.226074 0.974110
vn 0.000000 1.000000 0.000000
vn 0.000000 1.000000 0.000000
vn 0.000000 1.000000 0.000000
vn 0.000000 1.000000 0.000000
vn 0.000000 1.000000 0.000000
vn 0.000000 1.000000 0.000000
vn 0.000000 1.000000 0.000000
vn 0.000000 1.000000 0.000000
vn 0.000000 0.226074 -0.974110
vn 0.000000 0.226074 -0.974110
vn 0.000000 0.226074 -0.974110
vn 0.000000 0.226074 -0.974110
vn 0.000000 0.000000 -1.000000
vn 0.000000 0.000000 -1.000000
vn 0.000000 0.000000 -1.000000
vn 0.000000 0.000000 -1.000000
vn 0.000000 0.000000 1.000000
vn 0.000000 0.000000 1.000000
vn 0.000000 0.000000 1.000000
vn 0.000000 0.000000 1.000000
vn 0.000000 -0.226074 0.974110
vn 0.000000 -0.226074 0.974110
vn 0.000000 -0.226074 0.974110
vn 0.000000 -0.226074 0.974110
vn 0.000000 -1.000000 0.000000
vn 0.000000 -1.000000 0.000000
vn 0.000000 -1.000000 0.000000
vn 0.000000 -1.000000 0.000000
vn 0.000000 -1.000000 0.000000
vn 0.000000 -1.000000 0.000000
vn 0.000000 -1.000000 0.000000
vn 0.000000 -1.000000 0.000000
vn 0.000000 -0.226074 -0.974110
vn 0.000000 -0.226074 -0.974110
vn 0.000000 -0.226074 -0.974110
vn 0.000000 -0.226074 -0.974110
vn 0.000000 -1.000000 0.000000
vn 0.000000 -1.000000 0.000000
vn 0.000000 -1.000000 0.000000
vn 0.000000 -1.000000 0.000000
vn 0.000000 1.000000 0.000000
vn 0.000000 1.000000 0.000000
vn 0.000000 1.000000 0.000000
vn 0.000000 1.000000 0.000000
vn 0.000000 0.226074 0.974110
vn 0.000000 0.226074 0.974110
vn 0.000000 0.226074 0.974110
vn 0.000000 0.226074 0.974110
vn 0.000000 1.000000 0.000000
vn 0.000000 1.000000 0.000000
vn 0.000000 1.000000 0.000000
vn 0.000000 1.000000 0.000000
vn 0.000000 1.000000 0.000000
vn 0.000000 1.000000 0.000000
vn 0.000000 1.000000 0.000000
vn 0.000000 1.000000 0.000000
vn 0.000000 0.226074 -0.974110
vn 0.000000 0.226074 -0.974110
vn 0.000000 0.226074 -0.974110
vn 0.000000 0.226074 -0.974110
vn 0.000000 0.000000 -1.000000
vn 0.000000 0.000000 -1.000000
vn 0.000000 0.000000 -1.000000
vn 0.000000 0.000000 -1.000000
vn 0.000000 0.000000 1.000000
vn 0.000000 0.000000 1.000000
vn 0.000000 0.000000 1.000000
vn 0.000000 0.000000 1.000000
vn 0.000000 -0.226074 0.974110
vn 0.000000 -0.226074 0.974110
vn 0.000000 -0.226074 0.974110
vn 0.000000 -0.226074 0.974110
vn 0.000000 -1.000000 0.000000
vn 0.000000 -1.000000 0.000000
vn 0.000000 -1.000000 0.000000
vn 0.000000 -1.000000 0.000000
s off
g Rail_Straight group1
f 1/66/1 2/2/2 4/88/3 3/87/4
s 1
f 9/9/5 3/3/6 20/20/7
s off
f 5/85/8 6/86/9 8/65/10 7/7/11
s 2
f 37/37/12 38/82/13 39/39/14
s off
f 2/68/15 11/11/16 12/12/17 4/79/18
f 9/75/19 10/10/20 1/1/21 3/80/22
f 17/74/23 18/18/24 19/19/25 20/73/26
f 40/59/27 41/40/28 39/39/29 42/41/30
f 23/69/31 22/22/32 21/21/33 24/70/34
f 20/20/35 23/23/36 24/24/37 17/17/38
f 7/67/39 14/14/40 13/13/41 5/78/42
f 16/71/43 15/15/44 8/8/45 6/77/46
f 13/13/47 14/14/48 18/18/49 17/74/50
f 10/10/51 9/75/52 20/73/53 19/19/54
s 3
f 43/83/55 40/59/56 44/58/57
s off
f 12/12/58 11/11/59 22/22/60 23/69/61
f 15/15/62 16/71/63 24/70/64 21/21/65
s 4
f 6/6/66 24/24/67 16/16/68
s 2
f 42/41/69 45/45/70 46/53/71
s 3
f 47/84/72 41/40/73 40/59/56 43/83/55
s 2
f 39/39/14 38/82/13 45/45/70 42/41/69
s 3
f 48/48/74 41/40/73 47/84/72
s 1
f 20/20/7 3/3/6 4/4/75 23/23/76
s 4
f 13/76/77 17/17/78 5/5/79
s 1
f 23/23/76 4/4/75 12/72/80
s 4
f 5/5/79 17/17/78 24/24/67 6/6/66
s off
f 11/11/81 2/68/82 26/64/83 25/25/84
f 22/22/85 11/11/86 25/25/87 27/27/88
f 21/21/89 22/22/90 27/27/91 29/28/92
f 19/19/93 18/18/94 28/30/95 30/29/96
f 18/18/97 14/14/98 32/31/99 28/30/100
f 14/14/101 7/67/102 31/60/103 32/31/104
f 1/1/105 10/10/106 34/34/107 33/33/108
f 10/10/109 19/19/110 30/29/111 34/34/112
f 7/7/113 8/65/114 35/52/115 31/32/116
f 2/2/117 1/66/118 33/56/119 26/26/120
f 15/15/121 21/21/122 29/28/123 36/36/124
f 8/8/125 15/15/126 36/36/127 35/35/128
f 25/25/129 26/64/130 38/63/131 37/62/132
f 27/27/133 25/25/134 37/62/135 39/61/136
f 29/28/137 27/27/138 39/61/139 41/51/140
f 30/29/141 28/30/142 40/42/143 42/54/144
f 28/30/145 32/31/146 44/43/147 40/42/148
f 32/31/149 31/60/150 43/57/151 44/43/152
f 33/33/153 34/34/154 46/46/155 45/55/156
f 34/34/157 30/29/158 42/54/159 46/46/160
f 31/32/161 35/52/162 47/49/163 43/44/164
f 26/26/165 33/56/166 45/81/167 38/38/168
f 36/36/169 29/28/170 41/51/171 48/50/172
f 35/35/173 36/36/174 48/50/175 47/47/176
