# This file uses centimeters as units for non-parametric coordinates.

g default
v 0.923879 -0.118780 -0.382683
v 0.382683 -0.118780 -0.923879
v -0.382683 -0.118780 -0.923879
v -0.923879 -0.118780 -0.382683
v -0.923879 -0.118780 0.382683
v -0.382683 -0.118780 0.923879
v 0.382683 -0.118780 0.923880
v 0.923880 -0.118780 0.382683
v 0.923879 0.118780 -0.382683
v 0.382683 0.118780 -0.923879
v -0.382683 0.118780 -0.923879
v -0.923879 0.118780 -0.382683
v -0.923879 0.118780 0.382683
v -0.382683 0.118780 0.923879
v 0.382683 0.118780 0.923880
v 0.923880 0.118780 0.382683
v 0.218951 -0.118780 -1.423879
v -0.218951 -0.118780 -1.423879
v -0.218951 -0.057037 -1.423879
v 0.218951 -0.057037 -1.423879
v -1.423879 -0.118780 -0.220391
v -1.423879 -0.118780 0.220391
v -1.423879 -0.057037 0.220391
v -1.423879 -0.057037 -0.220391
v -0.218951 -0.118780 1.423879
v 0.218951 -0.118780 1.423880
v 0.218951 -0.057037 1.423880
v -0.218951 -0.057037 1.423879
v 1.423880 -0.118780 0.220391
v 1.423879 -0.118780 -0.220391
v 1.423879 -0.057037 -0.220391
v 1.423880 -0.057037 0.220391
v 0.721811 0.118780 -0.298984
v 0.298984 0.118780 -0.721811
v -0.298984 0.118780 -0.721811
v -0.721811 0.118780 -0.298984
v -0.721811 0.118780 0.298984
v -0.298984 0.118780 0.721811
v 0.298984 0.118780 0.721811
v 0.721811 0.118780 0.298984
v 0.616764 0.118780 -0.255472
v 0.255472 0.118780 -0.616763
v -0.255472 0.118780 -0.616763
v -0.616763 0.118780 -0.255472
v -0.616763 0.118780 0.255472
v -0.255472 0.118780 0.616763
v 0.255472 0.118780 0.616763
v 0.616764 0.118780 0.255472
v 0.000000 0.118780 -0.094472
v 0.000000 0.118780 0.094472
v 0.721811 0.032992 -0.298984
v 0.298984 0.032992 -0.721811
v 0.255472 0.032992 -0.616763
v 0.616764 0.032992 -0.255472
v -0.298984 0.032992 -0.721811
v -0.255472 0.032992 -0.616763
v -0.721811 0.032992 -0.298984
v -0.616763 0.032992 -0.255472
v -0.721811 0.032992 0.298984
v -0.616763 0.032992 0.255472
v -0.298984 0.032992 0.721811
v -0.255472 0.032992 0.616763
v 0.298984 0.032992 0.721811
v 0.255472 0.032992 0.616763
v 0.721811 0.032992 0.298984
v 0.616764 0.032992 0.255472
v 0.000000 -0.118780 0.000000
vt 0.469064 0.745582
vt 0.458446 0.734962
vt 0.443428 0.734961
vt 0.432809 0.745579
vt 0.432807 0.760596
vt 0.443425 0.771216
vt 0.458443 0.771217
vt 0.469062 0.760599
vt 0.487503 0.737082
vt 0.686243 0.766520
vt 0.466970 0.788638
vt 0.634826 0.787356
vt 0.415346 0.768054
vt 0.614159 0.735966
vt 0.435878 0.716498
vt 0.665738 0.714961
vt 0.648149 0.756232
vt 0.650121 0.733134
vt 0.684568 0.796622
vt 0.651187 0.758043
vt 0.636317 0.758275
vt 0.657540 0.760082
vt 0.604675 0.785480
vt 0.634664 0.761049
vt 0.654015 0.759188
vt 0.675234 0.761067
vt 0.615834 0.705864
vt 0.652342 0.761975
vt 0.681546 0.764858
vt 0.683863 0.736132
vt 0.695855 0.717327
vt 0.685309 0.767078
vt 0.480072 0.740316
vt 0.678621 0.763431
vt 0.463673 0.781226
vt 0.637958 0.779746
vt 0.422777 0.764820
vt 0.621781 0.739055
vt 0.439175 0.723910
vt 0.662483 0.722519
vt 0.370321 0.787431
vt 0.338072 0.787522
vt 0.315201 0.764667
vt 0.315240 0.732344
vt 0.338093 0.709610
vt 0.370342 0.709520
vt 0.393213 0.732375
vt 0.393174 0.764698
vt 0.349978 0.752765
vt 0.358436 0.744277
vt 0.964820 0.188303
vt 0.676323 0.761167
vt 0.935921 0.182829
vt 0.372422 0.792338
vt 0.462409 0.778454
vt 0.917089 0.163998
vt 0.640236 0.777458
vt 0.917089 0.137367
vt 0.425557 0.763583
vt 0.935919 0.118535
vt 0.624079 0.741319
vt 0.962550 0.118535
vt 0.440440 0.726682
vt 0.981382 0.137365
vt 0.660169 0.724769
vt 0.981383 0.163996
vt 0.450936 0.753089
vt 0.684293 0.705436
vt 0.687449 0.734048
vt 0.658235 0.795130
vt 0.472360 0.742286
vt 0.604280 0.717596
vt 0.676763 0.763748
vt 0.631582 0.741682
vt 0.461738 0.774513
vt 0.616429 0.797181
vt 0.659068 0.762739
vt 0.614021 0.740948
vt 0.429511 0.763892
vt 0.696122 0.784891
vt 0.653033 0.731461
vt 0.629176 0.780705
vt 0.440133 0.731665
vt 0.398118 0.766704
vt 0.962552 0.182828
vt 0.986858 0.166264
vt 0.477292 0.741554
vt 0.398119 0.730280
vt 0.986857 0.135097
vt 0.372308 0.704562
vt 0.964818 0.113059
vt 0.335992 0.704704
vt 0.933651 0.113060
vt 0.310296 0.730338
vt 0.911613 0.135099
vt 0.310295 0.766762
vt 0.911614 0.166266
vt 0.336106 0.792480
vt 0.933653 0.188304
vt 0.463228 0.723741
vt 0.462075 0.726541
vt 0.637558 0.723036
vt 0.639856 0.725299
vt 0.422686 0.740814
vt 0.425484 0.741962
vt 0.622013 0.763873
vt 0.624290 0.761585
vt 0.439621 0.781396
vt 0.440774 0.778595
vt 0.662844 0.779450
vt 0.660546 0.777187
vt 0.480163 0.764322
vt 0.477365 0.763174
vt 0.678168 0.738650
vt 0.675854 0.740900
vt 0.466436 0.716312
vt 0.634353 0.715462
vt 0.415265 0.737613
vt 0.614417 0.767039
vt 0.436412 0.788825
vt 0.666049 0.787024
vt 0.487584 0.767524
vt 0.685814 0.735607
vt 0.648662 0.780423
vt 0.472358 0.763896
vt 0.687383 0.734625
vt 0.698506 0.741379
vt 0.642565 0.734631
vt 0.440129 0.774512
vt 0.669462 0.733761
vt 0.680546 0.740418
vt 0.624921 0.733921
vt 0.429513 0.742283
vt 0.621303 0.720004
vt 0.628615 0.707877
vt 0.621465 0.768777
vt 0.461742 0.731667
vt 0.648179 0.720158
vt 0.657119 0.705121
vn 0.707107 0.000000 -0.707107
vn 0.707107 0.000000 -0.707107
vn 0.707107 0.000000 -0.707107
vn 0.707107 0.000000 -0.707107
vn 0.000000 0.000000 -1.000000
vn 0.000000 0.000000 -1.000000
vn 0.000000 0.000000 -1.000000
vn 0.000000 0.000000 -1.000000
vn -0.707107 0.000000 -0.707107
vn -0.707107 0.000000 -0.707107
vn -0.707107 0.000000 -0.707107
vn -0.707107 0.000000 -0.707107
vn -1.000000 0.000000 0.000000
vn -1.000000 0.000000 0.000000
vn -1.000000 0.000000 0.000000
vn -1.000000 0.000000 0.000000
vn -0.707107 0.000000 0.707107
vn -0.707107 0.000000 0.707107
vn -0.707107 0.000000 0.707107
vn -0.707107 0.000000 0.707107
vn -0.000000 0.000000 1.000000
vn -0.000000 0.000000 1.000000
vn -0.000000 0.000000 1.000000
vn -0.000000 0.000000 1.000000
vn 0.707107 0.000000 0.707107
vn 0.707107 0.000000 0.707107
vn 0.707107 0.000000 0.707107
vn 0.707107 0.000000 0.707107
vn 1.000000 0.000000 -0.000000
vn 1.000000 0.000000 -0.000000
vn 1.000000 0.000000 -0.000000
vn 1.000000 0.000000 -0.000000
vn 0.000000 -1.000000 0.000000
vn 0.000000 -1.000000 0.000000
vn 0.000000 -1.000000 0.000000
vn 0.000000 -1.000000 0.000000
vn -0.950343 0.000000 -0.311205
vn -0.950343 0.000000 -0.311205
vn -0.950343 0.000000 -0.311205
vn -0.950343 0.000000 -0.311205
vn 0.000000 0.943377 -0.331723
vn 0.000000 0.943377 -0.331723
vn 0.000000 0.943377 -0.331723
vn 0.000000 0.943377 -0.331723
vn 0.950343 0.000000 -0.311205
vn 0.950343 0.000000 -0.311205
vn 0.950343 0.000000 -0.311205
vn 0.950343 0.000000 -0.311205
vn 0.000000 -1.000000 0.000000
vn 0.000000 -1.000000 0.000000
vn 0.000000 -1.000000 0.000000
vn 0.000000 -1.000000 0.000000
vn -0.308729 0.000000 0.951150
vn -0.308729 0.000000 0.951150
vn -0.308729 0.000000 0.951150
vn -0.308729 0.000000 0.951150
vn -0.331723 0.943377 0.000000
vn -0.331723 0.943377 0.000000
vn -0.331723 0.943377 0.000000
vn -0.331723 0.943377 0.000000
vn -0.308729 0.000000 -0.951150
vn -0.308729 0.000000 -0.951150
vn -0.308729 0.000000 -0.951150
vn -0.308729 0.000000 -0.951150
vn 0.000000 -1.000000 -0.000000
vn 0.000000 -1.000000 -0.000000
vn 0.000000 -1.000000 -0.000000
vn 0.000000 -1.000000 -0.000000
vn 0.950343 0.000000 0.311205
vn 0.950343 0.000000 0.311205
vn 0.950343 0.000000 0.311205
vn 0.950343 0.000000 0.311205
vn -0.000000 0.943377 0.331723
vn -0.000000 0.943377 0.331723
vn -0.000000 0.943377 0.331723
vn -0.000000 0.943377 0.331723
vn -0.950343 0.000000 0.311205
vn -0.950343 0.000000 0.311205
vn -0.950343 0.000000 0.311205
vn -0.950343 0.000000 0.311205
vn 0.000000 -1.000000 0.000000
vn 0.000000 -1.000000 0.000000
vn 0.000000 -1.000000 0.000000
vn 0.000000 -1.000000 0.000000
vn 0.308729 0.000000 -0.951150
vn 0.308729 0.000000 -0.951150
vn 0.308729 0.000000 -0.951150
vn 0.308729 0.000000 -0.951150
vn 0.331723 0.943377 -0.000000
vn 0.331723 0.943377 -0.000000
vn 0.331723 0.943377 -0.000000
vn 0.331723 0.943377 -0.000000
vn 0.308730 0.000000 0.951150
vn 0.308730 0.000000 0.951150
vn 0.308730 0.000000 0.951150
vn 0.308729 0.000000 0.951150
vn 0.000000 1.000000 -0.000000
vn 0.000000 1.000000 -0.000000
vn 0.000000 1.000000 -0.000000
vn 0.000000 1.000000 -0.000000
vn 0.000000 1.000000 0.000000
vn 0.000000 1.000000 0.000000
vn 0.000000 1.000000 0.000000
vn 0.000000 1.000000 0.000000
vn 0.000000 1.000000 -0.000000
vn 0.000000 1.000000 -0.000000
vn 0.000000 1.000000 -0.000000
vn 0.000000 1.000000 -0.000000
vn 0.000000 1.000000 0.000000
vn 0.000000 1.000000 0.000000
vn 0.000000 1.000000 0.000000
vn 0.000000 1.000000 0.000000
vn 0.000000 1.000000 0.000000
vn 0.000000 1.000000 0.000000
vn 0.000000 1.000000 0.000000
vn 0.000000 1.000000 0.000000
vn 0.000000 1.000000 -0.000000
vn 0.000000 1.000000 -0.000000
vn 0.000000 1.000000 -0.000000
vn 0.000000 1.000000 -0.000000
vn 0.000000 1.000000 -0.000000
vn 0.000000 1.000000 -0.000000
vn 0.000000 1.000000 -0.000000
vn 0.000000 1.000000 -0.000000
vn 0.000000 1.000000 0.000000
vn 0.000000 1.000000 0.000000
vn 0.000000 1.000000 0.000000
vn 0.000000 1.000000 0.000000
vn 0.000000 1.000000 0.000000
vn 0.000000 1.000000 0.000000
vn 0.000000 1.000000 0.000000
vn 0.000000 1.000000 0.000000
vn 0.000000 1.000000 0.000000
vn 0.000000 1.000000 0.000000
vn 0.000000 1.000000 0.000000
vn 0.000000 1.000000 0.000000
vn 0.000000 1.000000 0.000000
vn 0.000000 1.000000 0.000000
vn 0.000000 1.000000 0.000000
vn 0.000000 1.000000 0.000000
vn 0.000000 1.000000 0.000000
vn 0.000000 1.000000 0.000000
vn 0.000000 1.000000 0.000000
vn 0.000000 1.000000 0.000000
vn 0.000000 1.000000 -0.000000
vn 0.000000 1.000000 -0.000000
vn 0.000000 1.000000 -0.000000
vn 0.000000 1.000000 -0.000000
vn 0.000000 1.000000 0.000000
vn 0.000000 1.000000 0.000000
vn 0.000000 1.000000 0.000000
vn 0.000000 1.000000 0.000000
vn 0.000000 1.000000 0.000000
vn 0.000000 1.000000 0.000000
vn 0.000000 1.000000 0.000000
vn 0.000000 1.000000 0.000000
vn 0.000000 1.000000 0.000000
vn 0.000000 1.000000 0.000000
vn 0.000000 1.000000 0.000000
vn 0.000000 1.000000 0.000000
vn 0.000000 1.000000 0.000000
vn 0.000000 1.000000 0.000000
vn 0.000000 1.000000 0.000000
vn 0.000000 1.000000 -0.000000
vn 0.000000 1.000000 -0.000000
vn 0.000000 1.000000 -0.000000
vn 0.000000 1.000000 0.000000
vn 0.000000 1.000000 0.000000
vn 0.000000 1.000000 0.000000
vn 0.000000 1.000000 0.000000
vn 0.000000 1.000000 0.000000
vn 0.000000 1.000000 0.000000
vn 0.000000 1.000000 0.000000
vn 0.000000 1.000000 0.000000
vn 0.000000 1.000000 0.000000
vn 0.000000 1.000000 0.000000
vn 0.000000 1.000000 -0.000000
vn 0.000000 1.000000 -0.000000
vn 0.000000 1.000000 -0.000000
vn 0.000000 1.000000 0.000000
vn 0.000000 1.000000 0.000000
vn 0.000000 1.000000 0.000000
vn 0.000000 1.000000 0.000000
vn 0.000000 1.000000 0.000000
vn 0.000000 1.000000 0.000000
vn 0.000000 1.000000 0.000000
vn -0.707107 0.000000 0.707107
vn -0.707107 0.000000 0.707107
vn -0.707107 0.000000 0.707107
vn -0.707107 0.000000 0.707107
vn 0.707107 0.000000 -0.707107
vn 0.707107 0.000000 -0.707107
vn 0.707107 0.000000 -0.707107
vn 0.707107 0.000000 -0.707107
vn 0.000000 0.000000 1.000000
vn 0.000000 0.000000 1.000000
vn 0.000000 0.000000 1.000000
vn 0.000000 0.000000 1.000000
vn 0.000000 0.000000 -1.000000
vn 0.000000 0.000000 -1.000000
vn 0.000000 0.000000 -1.000000
vn 0.000000 0.000000 -1.000000
vn 0.707107 0.000000 0.707107
vn 0.707107 0.000000 0.707107
vn 0.707107 0.000000 0.707107
vn 0.707107 0.000000 0.707107
vn -0.707107 0.000000 -0.707107
vn -0.707107 0.000000 -0.707107
vn -0.707107 0.000000 -0.707107
vn -0.707107 0.000000 -0.707107
vn 1.000000 0.000000 0.000000
vn 1.000000 0.000000 0.000000
vn 1.000000 0.000000 0.000000
vn 1.000000 0.000000 0.000000
vn -1.000000 0.000000 0.000000
vn -1.000000 0.000000 0.000000
vn -1.000000 0.000000 0.000000
vn -1.000000 0.000000 0.000000
vn 0.707107 0.000000 -0.707107
vn 0.707107 0.000000 -0.707107
vn 0.707107 0.000000 -0.707107
vn 0.707107 0.000000 -0.707107
vn -0.707107 0.000000 0.707107
vn -0.707107 0.000000 0.707107
vn -0.707107 0.000000 0.707107
vn -0.707107 0.000000 0.707107
vn 0.000000 0.000000 -1.000000
vn 0.000000 0.000000 -1.000000
vn 0.000000 0.000000 -1.000000
vn 0.000000 0.000000 -1.000000
vn 0.000000 0.000000 1.000000
vn 0.000000 0.000000 1.000000
vn 0.000000 0.000000 1.000000
vn 0.000000 0.000000 1.000000
vn -0.707107 0.000000 -0.707107
vn -0.707107 0.000000 -0.707107
vn -0.707107 0.000000 -0.707107
vn -0.707107 0.000000 -0.707107
vn 0.707107 0.000000 0.707107
vn 0.707107 0.000000 0.707107
vn 0.707107 0.000000 0.707107
vn 0.707107 0.000000 0.707107
vn -1.000000 0.000000 0.000000
vn -1.000000 0.000000 0.000000
vn -1.000000 0.000000 0.000000
vn -1.000000 0.000000 0.000000
vn 1.000000 0.000000 0.000000
vn 1.000000 0.000000 0.000000
vn 1.000000 0.000000 0.000000
vn 1.000000 0.000000 0.000000
vn -0.000000 -1.000000 0.000000
vn -0.000000 -1.000000 0.000000
vn -0.000000 -1.000000 0.000000
vn -0.000000 -1.000000 0.000000
vn -0.000000 -1.000000 0.000000
vn -0.000000 -1.000000 0.000000
vn 0.000000 -1.000000 0.000000
vn 0.000000 -1.000000 0.000000
vn 0.000000 -1.000000 0.000000
vn 0.000000 -1.000000 -0.000000
vn 0.000000 -1.000000 -0.000000
vn 0.000000 -1.000000 -0.000000
vn 0.000000 -1.000000 0.000000
vn 0.000000 -1.000000 0.000000
vn 0.000000 -1.000000 0.000000
vn 0.000000 -1.000000 0.000000
vn 0.000000 -1.000000 0.000000
vn 0.000000 -1.000000 0.000000
vn 0.000000 -1.000000 0.000000
vn 0.000000 -1.000000 0.000000
vn 0.000000 -1.000000 0.000000
vn -0.000000 -1.000000 0.000000
vn -0.000000 -1.000000 0.000000
vn -0.000000 -1.000000 0.000000
s off
g pCylinder4
f 1/1/1 2/2/2 10/137/3 9/71/4
f 17/17/5 18/18/6 19/81/7 20/20/8
f 3/3/9 4/4/10 12/133/11 11/83/12
f 21/21/13 22/22/14 23/77/15 24/24/16
f 5/5/17 6/6/18 14/129/19 13/79/20
f 25/25/21 26/26/22 27/73/23 28/28/24
f 7/7/25 8/8/26 16/125/27 15/75/28
f 29/29/29 30/30/30 31/69/31 32/32/32
f 2/136/33 3/134/34 18/18/35 17/17/36
f 3/134/37 11/135/38 19/81/39 18/18/40
f 11/121/41 10/10/42 20/80/43 19/19/44
f 10/82/45 2/136/46 17/17/47 20/20/48
f 4/132/49 5/130/50 22/22/51 21/21/52
f 5/130/53 13/131/54 23/77/55 22/22/56
f 13/119/57 12/12/58 24/76/59 23/23/60
f 12/78/61 4/132/62 21/21/63 24/24/64
f 6/128/65 7/126/66 26/26/67 25/25/68
f 7/126/69 15/127/70 27/73/71 26/26/72
f 15/117/73 14/14/74 28/72/75 27/27/76
f 14/74/77 6/128/78 25/25/79 28/28/80
f 8/124/81 1/138/82 30/30/83 29/29/84
f 1/138/85 9/139/86 31/69/87 30/30/88
f 9/123/89 16/16/90 32/68/91 31/31/92
f 16/70/93 8/124/94 29/29/95 32/32/96
f 9/9/97 10/122/98 34/112/99 33/33/100
f 10/10/101 11/121/102 35/110/103 34/34/104
f 11/11/105 12/120/106 36/108/107 35/35/108
f 12/12/109 13/119/110 37/106/111 36/36/112
f 13/13/113 14/118/114 38/104/115 37/37/116
f 14/14/117 15/117/118 39/102/119 38/38/120
f 15/15/121 16/116/122 40/100/123 39/39/124
f 16/16/125 9/123/126 33/114/127 40/40/128
f 51/51/129 52/99/130 53/53/131 54/85/132
f 52/99/133 55/97/134 56/56/135 53/53/136
f 55/97/137 57/95/138 58/58/139 56/56/140
f 57/95/141 59/93/142 60/60/143 58/58/144
f 59/93/145 61/91/146 62/62/147 60/60/148
f 61/91/149 63/89/150 64/64/151 62/62/152
f 63/89/153 65/86/154 66/66/155 64/64/156
f 65/86/157 51/51/158 54/85/159 66/66/160
f 41/41/161 42/42/162 49/49/163
f 42/42/164 43/43/165 49/49/166
f 43/43/167 44/44/168 49/49/169
f 44/44/170 45/45/171 50/50/172 49/49/173
f 45/45/174 46/46/175 50/50/176
f 46/46/177 47/47/178 50/50/179
f 47/47/180 48/48/181 50/50/182
f 48/48/183 41/41/184 49/49/185 50/50/186
f 33/33/187 34/112/188 52/113/189 51/87/190
f 42/42/191 41/41/192 54/54/193 53/98/194
f 34/34/195 35/110/196 55/111/197 52/52/198
f 43/43/199 42/42/200 53/98/201 56/96/202
f 35/35/203 36/108/204 57/109/205 55/55/206
f 44/44/207 43/43/208 56/96/209 58/94/210
f 36/36/211 37/106/212 59/107/213 57/57/214
f 45/45/215 44/44/216 58/94/217 60/92/218
f 37/37/219 38/104/220 61/105/221 59/59/222
f 46/46/223 45/45/224 60/92/225 62/90/226
f 38/38/227 39/102/228 63/103/229 61/61/230
f 47/47/231 46/46/232 62/90/233 64/88/234
f 39/39/235 40/100/236 65/101/237 63/63/238
f 48/48/239 47/47/240 64/88/241 66/84/242
f 40/40/243 33/114/244 51/115/245 65/65/246
f 41/41/247 48/48/248 66/84/249 54/54/250
f 1/1/251 8/8/252 67/67/253
f 8/8/254 7/7/255 67/67/256
f 7/7/257 6/6/258 67/67/259
f 6/6/260 5/5/261 67/67/262
f 5/5/263 4/4/264 67/67/265
f 4/4/266 3/3/267 67/67/268
f 3/3/269 2/2/270 67/67/271
f 2/2/272 1/1/273 67/67/274
