# This file uses centimeters as units for non-parametric coordinates.

g default
v -0.500000 0.000000 0.500000
v -0.400000 0.022871 0.500000
v -0.300000 0.012446 0.500000
v -0.200000 0.012446 0.500000
v -0.100000 0.012446 0.500000
v 0.000000 0.012446 0.500000
v 0.100000 0.012446 0.500000
v 0.200000 0.012446 0.500000
v 0.300000 0.012446 0.500000
v 0.400000 0.022871 0.500000
v 0.500000 0.000000 0.500000
v -0.500000 0.000000 0.400000
v -0.400000 0.022871 0.400000
v -0.300000 0.012446 0.400000
v -0.200000 0.012446 0.400000
v -0.100000 0.012446 0.400000
v 0.000000 0.012446 0.400000
v 0.100000 0.012446 0.400000
v 0.200000 0.012446 0.400000
v 0.300000 0.012446 0.400000
v 0.400000 0.022871 0.400000
v 0.500000 0.000000 0.400000
v -0.500000 0.000000 0.300000
v -0.400000 0.022871 0.300000
v -0.300000 0.012446 0.300000
v -0.200000 0.012446 0.300000
v -0.100000 0.012446 0.300000
v 0.000000 0.012446 0.300000
v 0.100000 0.012446 0.300000
v 0.200000 0.012446 0.300000
v 0.300000 0.012446 0.300000
v 0.400000 0.022871 0.300000
v 0.500000 0.000000 0.300000
v -0.500000 0.000000 0.200000
v -0.400000 0.022871 0.200000
v -0.300000 0.012446 0.200000
v -0.200000 0.012446 0.200000
v -0.100000 0.012446 0.200000
v 0.000000 0.012446 0.200000
v 0.100000 0.012446 0.200000
v 0.200000 0.012446 0.200000
v 0.300000 0.012446 0.200000
v 0.400000 0.022871 0.200000
v 0.500000 0.000000 0.200000
v -0.500000 0.000000 0.100000
v -0.400000 0.022871 0.100000
v -0.300000 0.012446 0.100000
v -0.200000 0.012446 0.100000
v -0.100000 0.012446 0.100000
v 0.000000 0.012446 0.100000
v 0.100000 0.012446 0.100000
v 0.200000 0.012446 0.100000
v 0.300000 0.012446 0.100000
v 0.400000 0.022871 0.100000
v 0.500000 0.000000 0.100000
v -0.500000 0.000000 0.000000
v -0.400000 0.022871 0.000000
v -0.300000 0.012446 0.000000
v -0.200000 0.012446 0.000000
v -0.100000 0.012446 0.000000
v 0.000000 0.012446 0.000000
v 0.100000 0.012446 0.000000
v 0.200000 0.012446 0.000000
v 0.300000 0.012446 0.000000
v 0.400000 0.022871 0.000000
v 0.500000 0.000000 0.000000
v -0.500000 0.000000 -0.100000
v -0.400000 0.022871 -0.100000
v -0.300000 0.012446 -0.100000
v -0.200000 0.012446 -0.100000
v -0.100000 0.012446 -0.100000
v 0.000000 0.012446 -0.100000
v 0.100000 0.012446 -0.100000
v 0.200000 0.012446 -0.100000
v 0.300000 0.012446 -0.100000
v 0.400000 0.022871 -0.100000
v 0.500000 0.000000 -0.100000
v -0.500000 0.000000 -0.200000
v -0.400000 0.022871 -0.200000
v -0.300000 0.012446 -0.200000
v -0.200000 0.012446 -0.200000
v -0.100000 0.012446 -0.200000
v 0.000000 0.012446 -0.200000
v 0.100000 0.012446 -0.200000
v 0.200000 0.012446 -0.200000
v 0.300000 0.012446 -0.200000
v 0.400000 0.022871 -0.200000
v 0.500000 0.000000 -0.200000
v -0.500000 0.000000 -0.300000
v -0.400000 0.022871 -0.300000
v -0.300000 0.012446 -0.300000
v -0.200000 0.012446 -0.300000
v -0.100000 0.012446 -0.300000
v 0.000000 0.012446 -0.300000
v 0.100000 0.012446 -0.300000
v 0.200000 0.012446 -0.300000
v 0.300000 0.012446 -0.300000
v 0.400000 0.022871 -0.300000
v 0.500000 0.000000 -0.300000
v -0.500000 0.000000 -0.400000
v -0.400000 0.022871 -0.400000
v -0.300000 0.012446 -0.400000
v -0.200000 0.012446 -0.400000
v -0.100000 0.012446 -0.400000
v 0.000000 0.012446 -0.400000
v 0.100000 0.012446 -0.400000
v 0.200000 0.012446 -0.400000
v 0.300000 0.012446 -0.400000
v 0.400000 0.022871 -0.400000
v 0.500000 0.000000 -0.400000
v -0.500000 0.000000 -0.500000
v -0.400000 0.022871 -0.500000
v -0.300000 0.012446 -0.500000
v -0.200000 0.012446 -0.500000
v -0.100000 0.012446 -0.500000
v 0.000000 0.012446 -0.500000
v 0.100000 0.012446 -0.500000
v 0.200000 0.012446 -0.500000
v 0.300000 0.012446 -0.500000
v 0.400000 0.022871 -0.500000
v 0.500000 0.000000 -0.500000
vt 0.545940 0.701218
vt 0.554060 0.701218
vt 0.827268 0.612114
vt 0.919181 0.612113
vt 0.926758 0.612113
vt 0.934336 0.612113
vt 0.941913 0.612113
vt 0.949490 0.612113
vt 0.957068 0.612113
vt 0.880309 0.612114
vt 0.554060 0.701227
vt 0.545940 0.710974
vt 0.819691 0.619691
vt 0.911604 0.619691
vt 0.919181 0.619691
vt 0.926758 0.619691
vt 0.934336 0.619691
vt 0.941913 0.619691
vt 0.949490 0.619691
vt 0.872732 0.619691
vt 0.545940 0.710982
vt 0.554060 0.710982
vt 0.545940 0.720731
vt 0.819691 0.627268
vt 0.911604 0.627268
vt 0.919181 0.627268
vt 0.926758 0.627268
vt 0.934336 0.627268
vt 0.941913 0.627268
vt 0.949490 0.627268
vt 0.872732 0.627268
vt 0.545940 0.720736
vt 0.554060 0.720736
vt 0.545940 0.730487
vt 0.819691 0.634845
vt 0.911604 0.634845
vt 0.919181 0.634845
vt 0.926758 0.634845
vt 0.934336 0.634845
vt 0.941913 0.634845
vt 0.949490 0.634845
vt 0.872732 0.634845
vt 0.545940 0.730491
vt 0.554060 0.730491
vt 0.545940 0.740244
vt 0.819691 0.642423
vt 0.911604 0.642423
vt 0.919181 0.642423
vt 0.926758 0.642423
vt 0.934336 0.642423
vt 0.941913 0.642423
vt 0.949490 0.642423
vt 0.872732 0.642423
vt 0.545940 0.740245
vt 0.554060 0.740245
vt 0.545940 0.750000
vt 0.819691 0.650000
vt 0.911604 0.650000
vt 0.919181 0.650000
vt 0.926758 0.650000
vt 0.934336 0.650000
vt 0.941913 0.650000
vt 0.949490 0.650000
vt 0.872732 0.650000
vt 0.545940 0.750000
vt 0.554060 0.750000
vt 0.545940 0.759756
vt 0.819691 0.657577
vt 0.911604 0.657577
vt 0.919181 0.657577
vt 0.926758 0.657577
vt 0.934336 0.657577
vt 0.941913 0.657577
vt 0.949490 0.657577
vt 0.872732 0.657577
vt 0.545940 0.759755
vt 0.554060 0.759755
vt 0.545940 0.769513
vt 0.819691 0.665155
vt 0.911604 0.665155
vt 0.919181 0.665155
vt 0.926758 0.665155
vt 0.934336 0.665155
vt 0.941913 0.665155
vt 0.949490 0.665155
vt 0.872732 0.665155
vt 0.545940 0.769509
vt 0.554060 0.769509
vt 0.545940 0.779269
vt 0.819691 0.672732
vt 0.911604 0.672732
vt 0.919181 0.672732
vt 0.926758 0.672732
vt 0.934336 0.672732
vt 0.941913 0.672732
vt 0.949490 0.672732
vt 0.872732 0.672732
vt 0.545940 0.779264
vt 0.554060 0.779264
vt 0.545940 0.789026
vt 0.819691 0.680309
vt 0.911604 0.680309
vt 0.919181 0.680309
vt 0.926758 0.680309
vt 0.934336 0.680309
vt 0.941913 0.680309
vt 0.949490 0.680309
vt 0.872732 0.680309
vt 0.545940 0.789018
vt 0.554060 0.789018
vt 0.545940 0.798782
vt 0.819691 0.687887
vt 0.911604 0.687886
vt 0.919181 0.687886
vt 0.926758 0.687886
vt 0.934336 0.687886
vt 0.941913 0.687886
vt 0.949490 0.687886
vt 0.872732 0.687887
vt 0.545940 0.798773
vt 0.554060 0.798773
vt 0.554060 0.789026
vt 0.554060 0.798782
vt 0.554060 0.779269
vt 0.554060 0.769513
vt 0.554060 0.759756
vt 0.554060 0.750000
vt 0.554060 0.740244
vt 0.554060 0.730487
vt 0.554060 0.720731
vt 0.554060 0.710974
vt 0.819691 0.612114
vt 0.880309 0.680309
vt 0.880309 0.687887
vt 0.880309 0.672732
vt 0.880309 0.665155
vt 0.880309 0.657577
vt 0.880309 0.650000
vt 0.880309 0.642423
vt 0.880309 0.634845
vt 0.880309 0.627268
vt 0.880309 0.619691
vt 0.545940 0.701227
vt 0.957068 0.680309
vt 0.957068 0.687886
vt 0.827268 0.680309
vt 0.827268 0.687887
vt 0.957068 0.672732
vt 0.827268 0.672732
vt 0.957068 0.665155
vt 0.827268 0.665155
vt 0.957068 0.657577
vt 0.827268 0.657577
vt 0.957068 0.650000
vt 0.827268 0.650000
vt 0.957068 0.642423
vt 0.827268 0.642423
vt 0.957068 0.634845
vt 0.827268 0.634845
vt 0.957068 0.627268
vt 0.827268 0.627268
vt 0.957068 0.619691
vt 0.827268 0.619691
vt 0.872732 0.612114
vt 0.911604 0.612113
vn -0.222955 0.974829 0.000000
vn -0.062111 0.998069 0.000000
vn -0.062112 0.998069 0.000000
vn -0.222955 0.974829 0.000000
vn 0.052054 0.998644 0.000000
vn 0.052054 0.998644 0.000000
vn 0.000000 1.000000 0.000000
vn 0.000000 1.000000 0.000000
vn 0.000000 1.000000 0.000000
vn 0.000000 1.000000 0.000000
vn 0.000000 1.000000 0.000000
vn 0.000000 1.000000 0.000000
vn 0.000000 1.000000 0.000000
vn 0.000000 1.000000 0.000000
vn 0.000000 1.000000 0.000000
vn 0.000000 1.000000 0.000000
vn -0.052054 0.998644 0.000000
vn -0.052054 0.998644 0.000000
vn 0.062111 0.998069 0.000000
vn 0.062112 0.998069 0.000000
vn 0.222955 0.974829 0.000000
vn 0.222955 0.974829 0.000000
vn -0.062112 0.998069 0.000000
vn -0.222955 0.974829 0.000000
vn 0.052054 0.998644 0.000000
vn 0.000000 1.000000 0.000000
vn 0.000000 1.000000 0.000000
vn 0.000000 1.000000 0.000000
vn 0.000000 1.000000 0.000000
vn 0.000000 1.000000 0.000000
vn -0.052054 0.998644 0.000000
vn 0.062112 0.998069 0.000000
vn 0.222955 0.974829 0.000000
vn -0.062112 0.998069 0.000000
vn -0.222955 0.974829 0.000000
vn 0.052054 0.998644 0.000000
vn 0.000000 1.000000 0.000000
vn 0.000000 1.000000 0.000000
vn 0.000000 1.000000 0.000000
vn 0.000000 1.000000 0.000000
vn 0.000000 1.000000 0.000000
vn -0.052054 0.998644 0.000000
vn 0.062111 0.998069 0.000000
vn 0.222955 0.974829 0.000000
vn -0.062112 0.998069 0.000000
vn -0.222955 0.974829 0.000000
vn 0.052054 0.998644 0.000000
vn 0.000000 1.000000 0.000000
vn 0.000000 1.000000 0.000000
vn 0.000000 1.000000 0.000000
vn 0.000000 1.000000 0.000000
vn 0.000000 1.000000 0.000000
vn -0.052054 0.998644 0.000000
vn 0.062112 0.998069 0.000000
vn 0.222955 0.974829 0.000000
vn -0.062112 0.998069 0.000000
vn -0.222955 0.974829 0.000000
vn 0.052054 0.998644 0.000000
vn 0.000000 1.000000 0.000000
vn 0.000000 1.000000 0.000000
vn 0.000000 1.000000 0.000000
vn 0.000000 1.000000 0.000000
vn 0.000000 1.000000 0.000000
vn -0.052054 0.998644 0.000000
vn 0.062112 0.998069 0.000000
vn 0.222955 0.974829 0.000000
vn -0.062112 0.998069 0.000000
vn -0.222955 0.974829 0.000000
vn 0.052054 0.998644 0.000000
vn 0.000000 1.000000 0.000000
vn 0.000000 1.000000 0.000000
vn 0.000000 1.000000 0.000000
vn 0.000000 1.000000 0.000000
vn 0.000000 1.000000 0.000000
vn -0.052054 0.998644 0.000000
vn 0.062112 0.998069 0.000000
vn 0.222955 0.974829 0.000000
vn -0.062112 0.998069 0.000000
vn -0.222955 0.974829 0.000000
vn 0.052054 0.998644 0.000000
vn 0.000000 1.000000 0.000000
vn 0.000000 1.000000 0.000000
vn 0.000000 1.000000 0.000000
vn 0.000000 1.000000 0.000000
vn 0.000000 1.000000 0.000000
vn -0.052054 0.998644 0.000000
vn 0.062111 0.998069 0.000000
vn 0.222955 0.974829 0.000000
vn -0.062111 0.998069 0.000000
vn -0.222955 0.974829 0.000000
vn 0.052054 0.998644 0.000000
vn 0.000000 1.000000 0.000000
vn 0.000000 1.000000 0.000000
vn 0.000000 1.000000 0.000000
vn 0.000000 1.000000 0.000000
vn 0.000000 1.000000 0.000000
vn -0.052054 0.998644 0.000000
vn 0.062111 0.998069 0.000000
vn 0.222955 0.974829 0.000000
vn -0.062112 0.998069 0.000000
vn -0.222955 0.974829 0.000000
vn 0.052054 0.998644 0.000000
vn 0.000000 1.000000 0.000000
vn 0.000000 1.000000 0.000000
vn 0.000000 1.000000 0.000000
vn 0.000000 1.000000 0.000000
vn 0.000000 1.000000 0.000000
vn -0.052054 0.998644 0.000000
vn 0.062112 0.998069 0.000000
vn 0.222955 0.974829 0.000000
vn -0.062112 0.998069 0.000000
vn -0.222955 0.974829 0.000000
vn 0.052054 0.998644 0.000000
vn 0.000000 1.000000 0.000000
vn 0.000000 1.000000 0.000000
vn 0.000000 1.000000 0.000000
vn 0.000000 1.000000 0.000000
vn 0.000000 1.000000 0.000000
vn -0.052054 0.998644 0.000000
vn 0.062112 0.998069 0.000000
vn 0.222955 0.974829 0.000000
s 1
g pPlane1
f 1/1/1 2/2/2 13/131/3 12/12/4
f 2/132/2 3/3/5 14/163/6 13/13/3
f 3/165/5 4/4/7 15/15/8 14/14/6
f 4/4/7 5/5/9 16/16/10 15/15/8
f 5/5/9 6/6/11 17/17/12 16/16/10
f 6/6/11 7/7/13 18/18/14 17/17/12
f 7/7/13 8/8/15 19/19/16 18/18/14
f 8/8/15 9/9/17 20/162/18 19/19/16
f 9/164/17 10/10/19 21/142/20 20/20/18
f 10/143/19 11/11/21 22/22/22 21/21/20
f 12/12/4 13/131/3 24/130/23 23/23/24
f 13/13/3 14/163/6 25/161/25 24/24/23
f 14/14/6 15/15/8 26/26/26 25/25/25
f 15/15/8 16/16/10 27/27/27 26/26/26
f 16/16/10 17/17/12 28/28/28 27/27/27
f 17/17/12 18/18/14 29/29/29 28/28/28
f 18/18/14 19/19/16 30/30/30 29/29/29
f 19/19/16 20/162/18 31/160/31 30/30/30
f 20/20/18 21/142/20 32/141/32 31/31/31
f 21/21/20 22/22/22 33/33/33 32/32/32
f 23/23/24 24/130/23 35/129/34 34/34/35
f 24/24/23 25/161/25 36/159/36 35/35/34
f 25/25/25 26/26/26 37/37/37 36/36/36
f 26/26/26 27/27/27 38/38/38 37/37/37
f 27/27/27 28/28/28 39/39/39 38/38/38
f 28/28/28 29/29/29 40/40/40 39/39/39
f 29/29/29 30/30/30 41/41/41 40/40/40
f 30/30/30 31/160/31 42/158/42 41/41/41
f 31/31/31 32/141/32 43/140/43 42/42/42
f 32/32/32 33/33/33 44/44/44 43/43/43
f 34/34/35 35/129/34 46/128/45 45/45/46
f 35/35/34 36/159/36 47/157/47 46/46/45
f 36/36/36 37/37/37 48/48/48 47/47/47
f 37/37/37 38/38/38 49/49/49 48/48/48
f 38/38/38 39/39/39 50/50/50 49/49/49
f 39/39/39 40/40/40 51/51/51 50/50/50
f 40/40/40 41/41/41 52/52/52 51/51/51
f 41/41/41 42/158/42 53/156/53 52/52/52
f 42/42/42 43/140/43 54/139/54 53/53/53
f 43/43/43 44/44/44 55/55/55 54/54/54
f 45/45/46 46/128/45 57/127/56 56/56/57
f 46/46/45 47/157/47 58/155/58 57/57/56
f 47/47/47 48/48/48 59/59/59 58/58/58
f 48/48/48 49/49/49 60/60/60 59/59/59
f 49/49/49 50/50/50 61/61/61 60/60/60
f 50/50/50 51/51/51 62/62/62 61/61/61
f 51/51/51 52/52/52 63/63/63 62/62/62
f 52/52/52 53/156/53 64/154/64 63/63/63
f 53/53/53 54/139/54 65/138/65 64/64/64
f 54/54/54 55/55/55 66/66/66 65/65/65
f 56/56/57 57/127/56 68/126/67 67/67/68
f 57/57/56 58/155/58 69/153/69 68/68/67
f 58/58/58 59/59/59 70/70/70 69/69/69
f 59/59/59 60/60/60 71/71/71 70/70/70
f 60/60/60 61/61/61 72/72/72 71/71/71
f 61/61/61 62/62/62 73/73/73 72/72/72
f 62/62/62 63/63/63 74/74/74 73/73/73
f 63/63/63 64/154/64 75/152/75 74/74/74
f 64/64/64 65/138/65 76/137/76 75/75/75
f 65/65/65 66/66/66 77/77/77 76/76/76
f 67/67/68 68/126/67 79/125/78 78/78/79
f 68/68/67 69/153/69 80/151/80 79/79/78
f 69/69/69 70/70/70 81/81/81 80/80/80
f 70/70/70 71/71/71 82/82/82 81/81/81
f 71/71/71 72/72/72 83/83/83 82/82/82
f 72/72/72 73/73/73 84/84/84 83/83/83
f 73/73/73 74/74/74 85/85/85 84/84/84
f 74/74/74 75/152/75 86/150/86 85/85/85
f 75/75/75 76/137/76 87/136/87 86/86/86
f 76/76/76 77/77/77 88/88/88 87/87/87
f 78/78/79 79/125/78 90/124/89 89/89/90
f 79/79/78 80/151/80 91/149/91 90/90/89
f 80/80/80 81/81/81 92/92/92 91/91/91
f 81/81/81 82/82/82 93/93/93 92/92/92
f 82/82/82 83/83/83 94/94/94 93/93/93
f 83/83/83 84/84/84 95/95/95 94/94/94
f 84/84/84 85/85/85 96/96/96 95/95/95
f 85/85/85 86/150/86 97/148/97 96/96/96
f 86/86/86 87/136/87 98/135/98 97/97/97
f 87/87/87 88/88/88 99/99/99 98/98/98
f 89/89/90 90/124/89 101/122/100 100/100/101
f 90/90/89 91/149/91 102/146/102 101/101/100
f 91/91/91 92/92/92 103/103/103 102/102/102
f 92/92/92 93/93/93 104/104/104 103/103/103
f 93/93/93 94/94/94 105/105/105 104/104/104
f 94/94/94 95/95/95 106/106/106 105/105/105
f 95/95/95 96/96/96 107/107/107 106/106/106
f 96/96/96 97/148/97 108/144/108 107/107/107
f 97/97/97 98/135/98 109/133/109 108/108/108
f 98/98/98 99/99/99 110/110/110 109/109/109
f 100/100/101 101/122/100 112/123/111 111/111/112
f 101/101/100 102/146/102 113/147/113 112/112/111
f 102/102/102 103/103/103 114/114/114 113/113/113
f 103/103/103 104/104/104 115/115/115 114/114/114
f 104/104/104 105/105/105 116/116/116 115/115/115
f 105/105/105 106/106/106 117/117/117 116/116/116
f 106/106/106 107/107/107 118/118/118 117/117/117
f 107/107/107 108/144/108 119/145/119 118/118/118
f 108/108/108 109/133/109 120/134/120 119/119/119
f 109/109/109 110/110/110 121/121/121 120/120/120
